<svg width="1025" height="1025" viewBox="0 0 1025 1025" fill="none" xmlns="http://www.w3.org/2000/svg">
<path fill-rule="evenodd" clip-rule="evenodd" d="M512.406 0C795.208 0 1024.81 229.598 1024.81 512.406C1024.81 795.208 795.208 1024.8 512.406 1024.8C229.604 1024.8 0 795.208 0 512.406C0 229.598 229.604 0 512.406 0ZM506.974 203.147C673.272 203.147 808.291 338.167 808.291 504.465C808.291 670.768 673.272 805.781 506.974 805.781C340.671 805.781 205.657 670.768 205.657 504.465C205.657 338.167 340.671 203.147 506.974 203.147ZM530.706 249.438C517.838 225.654 508.374 210.549 506.62 210.549C504.86 210.549 495.379 225.683 482.493 249.502C352.604 261.847 250.855 371.368 250.855 504.465C250.855 645.822 365.617 760.584 506.974 760.584C648.332 760.584 763.093 645.822 763.093 504.465C763.093 371.113 660.95 261.423 530.706 249.438ZM545.863 278.468C653.711 296.96 735.893 391.004 735.893 504.087C735.893 630.433 633.314 733.006 506.974 733.006C380.629 733.006 278.056 630.433 278.056 504.087C278.056 391.278 359.842 297.413 467.301 278.607C459.371 294.299 450.918 311.821 442.599 330.167C371.955 356.351 321.552 424.38 321.552 504.087C321.552 606.428 404.634 689.51 506.974 689.51C609.309 689.51 692.397 606.428 692.397 504.087C692.397 424.061 641.587 355.805 570.496 329.848C562.2 311.565 553.77 294.113 545.863 278.468ZM587.425 368.963C633.541 396.448 664.465 446.822 664.465 504.36C664.465 591.282 593.897 661.851 506.974 661.851C420.052 661.851 349.484 591.282 349.484 504.36C349.484 447.212 379.984 397.139 425.577 369.532C411.867 402.978 400.027 436.824 393.683 465.663C389.535 477.805 387.281 490.818 387.281 504.36C387.281 570.42 440.914 624.054 506.974 624.054C573.035 624.054 626.668 570.42 626.668 504.36C626.668 488.901 623.729 474.121 618.384 460.55C611.778 432.694 600.432 400.636 587.425 368.963ZM506.388 255.724C506.388 255.724 416.613 431.474 416.613 506.794C416.613 556.338 456.838 596.569 506.388 596.569C555.937 596.569 596.162 556.338 596.162 506.794C596.162 431.474 506.388 255.724 506.388 255.724Z" fill="#47506E"/>
</svg>
