<svg width="83" height="83" viewBox="0 0 83 83" fill="none" xmlns="http://www.w3.org/2000/svg">
<g clip-path="url(#clip0_2_147)">
<path fill-rule="evenodd" clip-rule="evenodd" d="M31.5 -0.5C37.8333 -0.5 44.1667 -0.5 50.5 -0.5C51.5 0.166667 52.5 0.833333 53.5 1.5C43.8832 -0.491386 34.5498 0.341947 25.5 4C31.0673 3.13297 36.734 2.63297 42.5 2.5C45.6862 2.50199 48.6862 2.83533 51.5 3.5C46.778 2.97668 42.4447 3.97668 38.5 6.5C40.4132 7.05124 42.4132 7.21791 44.5 7C42.1615 9.26889 42.8282 10.7689 46.5 11.5C45.7573 12.1818 45.0906 12.8485 44.5 13.5C44.5 14.1667 44.5 14.8333 44.5 15.5C43.9613 12.9584 42.628 10.7918 40.5 9C36.3387 8.33282 32.3387 8.83282 28.5 10.5C27.8333 12.5 27.1667 14.5 26.5 16.5C25.0347 14.4537 25.368 12.6204 27.5 11C25.99 10.1502 24.49 9.31686 23 8.5C19.7548 11.0786 16.2548 13.2453 12.5 15C7.88693 20.0602 4.72027 25.8936 3 32.5C2.13667 40.5643 2.47 48.5643 4 56.5C5.69646 58.5596 6.86312 60.8929 7.5 63.5C9.01203 64.8625 10.512 65.1958 12 64.5C15.2806 71.1235 16.7806 70.4569 16.5 62.5C17.5 62.5 18.5 62.5 19.5 62.5C20.5 62.5 21.5 62.5 22.5 62.5C21.3588 63.339 20.0255 64.0057 18.5 64.5C17.218 65.9584 17.218 67.2918 18.5 68.5C20.2624 69.2623 21.2624 70.5956 21.5 72.5C19.4078 72.4386 17.9078 71.4386 17 69.5C15.8118 70.5634 15.3118 71.8967 15.5 73.5C11.5664 71.4022 8.39972 68.4022 6 64.5C3.51112 59.8627 1.34445 55.196 -0.5 50.5C-0.5 44.1667 -0.5 37.8333 -0.5 31.5C4.5 15.1667 15.1667 4.5 31.5 -0.5Z" fill="#911D09"/>
<path fill-rule="evenodd" clip-rule="evenodd" d="M53.5 1.49995C68.5945 6.26101 78.2612 16.261 82.5 31.4999C82.5 37.8332 82.5 44.1666 82.5 50.4999C81.2172 54.0084 79.5505 57.3417 77.5 60.4999C81.2785 48.913 81.4452 37.2463 78 25.4999C72.2848 14.2742 63.4515 6.94093 51.5 3.49995C48.6862 2.83528 45.6862 2.50194 42.5 2.49995C36.734 2.63292 31.0673 3.13292 25.5 3.99995C34.5498 0.341892 43.8832 -0.491441 53.5 1.49995Z" fill="#831106"/>
<path fill-rule="evenodd" clip-rule="evenodd" d="M56.5 35.5C54.5696 36.7635 52.9029 38.4301 51.5 40.5C52.6094 42.3853 53.4427 44.3853 54 46.5C59.5227 46.7334 64.6894 48.0667 69.5 50.5C69.6646 53.5184 69.498 56.5184 69 59.5C67.9887 60.3366 66.8221 60.67 65.5 60.5C65.5 60.1667 65.5 59.8333 65.5 59.5C65.7135 57.8561 65.3802 56.3561 64.5 55C60.7202 53.515 57.0535 53.3483 53.5 54.5C51.9826 54.4894 50.8159 53.8228 50 52.5C49.5161 47.0142 46.6827 45.1808 41.5 47C37.5496 49.1146 34.8829 52.2813 33.5 56.5C33.9312 57.2935 34.2645 58.1268 34.5 59C33.5509 63.0441 32.2176 66.8774 30.5 70.5C28.146 70.162 25.8127 69.662 23.5 69C21.5743 68.5776 20.5743 67.4109 20.5 65.5C22.0418 64.6993 23.7085 64.366 25.5 64.5C27.8404 59.4622 29.3404 54.1289 30 48.5C32.3079 47.3589 34.1413 45.6922 35.5 43.5C35.1131 42.2801 34.2798 41.6135 33 41.5C30.9011 42.2865 28.7345 42.6199 26.5 42.5C26.7616 39.0791 25.4283 38.0791 22.5 39.5C20.3428 37.5879 18.0094 35.9213 15.5 34.5C16.5 34.1667 17.5 33.8333 18.5 33.5C23.3085 35.3067 28.3085 36.14 33.5 36C34.9802 33.7655 34.6469 31.9321 32.5 30.5C31.828 27.0921 32.828 24.4255 35.5 22.5C33.3483 20.8381 31.6817 18.8381 30.5 16.5C30.1667 16.5 29.8333 16.5 29.5 16.5C30.0605 13.7255 31.7271 11.8922 34.5 11C40.6044 10.294 43.2711 13.1274 42.5 19.5C46.5887 17.5712 50.0887 18.2379 53 21.5C53.9266 26.3128 55.0933 30.9795 56.5 35.5Z" fill="#F6F3C3"/>
<path fill-rule="evenodd" clip-rule="evenodd" d="M44.5 15.5C46.631 16.3138 48.9644 16.8138 51.5 17C52.5707 17.8518 53.5707 18.6851 54.5 19.5C55.0769 22.9656 56.0769 26.2989 57.5 29.5C57.7947 31.7354 57.4614 33.7354 56.5 35.5C55.0933 30.9795 53.9266 26.3128 53 21.5C50.0887 18.2379 46.5887 17.5712 42.5 19.5C43.2711 13.1274 40.6044 10.294 34.5 11C31.7271 11.8922 30.0605 13.7255 29.5 16.5C28.5 16.5 27.5 16.5 26.5 16.5C27.1667 14.5 27.8333 12.5 28.5 10.5C32.3387 8.83284 36.3387 8.33284 40.5 9.00002C42.628 10.7918 43.9613 12.9584 44.5 15.5Z" fill="#47120E"/>
<path fill-rule="evenodd" clip-rule="evenodd" d="M26.5 16.5C26.5 16.8333 26.5 17.1667 26.5 17.5C21.0214 20.311 17.3547 24.6444 15.5 30.5C14.5 30.5 13.5 30.5 12.5 30.5C12.1849 33.2108 12.8516 35.5441 14.5 37.5C11.2469 46.5115 12.9136 54.8448 19.5 62.5C18.5 62.5 17.5 62.5 16.5 62.5C16.7806 70.4569 15.2806 71.1235 12 64.5C10.512 65.1958 9.012 64.8625 7.49997 63.5C6.86309 60.8929 5.69643 58.5596 3.99997 56.5C2.46997 48.5643 2.13664 40.5643 2.99997 32.5C4.72024 25.8936 7.8869 20.0602 12.5 15C16.2548 13.2453 19.7548 11.0786 23 8.5C24.49 9.31686 25.99 10.1502 27.5 11C25.368 12.6204 25.0347 14.4537 26.5 16.5Z" fill="#A62B0C"/>
<path fill-rule="evenodd" clip-rule="evenodd" d="M30.5 16.5C31.6817 18.8381 33.3483 20.8381 35.5 22.5C32.828 24.4255 31.828 27.0921 32.5 30.5C31.3563 26.0363 30.6896 21.3696 30.5 16.5Z" fill="#4E1510"/>
<path fill-rule="evenodd" clip-rule="evenodd" d="M26.5 17.5C27.1667 17.5 27.5 17.8333 27.5 18.5C23.8428 22.1637 20.5095 26.1637 17.5 30.5C16.8333 30.5 16.1667 30.5 15.5 30.5C17.3547 24.6444 21.0214 20.311 26.5 17.5Z" fill="#F38564"/>
<path fill-rule="evenodd" clip-rule="evenodd" d="M44.5 13.5C63.6138 17.1018 71.9471 28.4351 69.5 47.5C68.8333 47.5 68.5 47.1667 68.5 46.5C69.8121 34.2052 65.1454 25.2052 54.5 19.5C53.5707 18.6851 52.5707 17.8518 51.5 17C48.9644 16.8138 46.631 16.3138 44.5 15.5C44.5 14.8333 44.5 14.1667 44.5 13.5Z" fill="#EE7959"/>
<path fill-rule="evenodd" clip-rule="evenodd" d="M27.5 18.5C28.1174 18.6107 28.6174 18.944 29 19.5C29.3333 23.5 29.6667 27.5 30 31.5C30.5 32 31 32.5 31.5 33C27.7115 34.1163 24.3782 33.4496 21.5 31C20.2068 30.51 18.8734 30.3433 17.5 30.5C20.5095 26.1637 23.8428 22.1637 27.5 18.5Z" fill="#C64E2D"/>
<path fill-rule="evenodd" clip-rule="evenodd" d="M54.5 19.5C65.1454 25.2052 69.8121 34.2052 68.5 46.5C64.3395 45.1387 60.0062 44.1387 55.5 43.5C55.0688 42.7065 54.7355 41.8732 54.5 41C58.3066 37.7885 59.3066 33.9552 57.5 29.5C56.0769 26.2989 55.0769 22.9656 54.5 19.5Z" fill="#B83E1E"/>
<path fill-rule="evenodd" clip-rule="evenodd" d="M51.5 3.49995C63.4515 6.94093 72.2848 14.2742 78 25.4999C81.4452 37.2463 81.2785 48.913 77.5 60.4999C73.4602 69.5383 66.7936 75.8716 57.5 79.4999C57.5 78.4999 57.5 77.4999 57.5 76.4999C60.8055 75.7147 63.8055 74.2147 66.5 71.9999C65.0267 71.2903 64.3601 70.1237 64.5 68.4999C63.5 68.4999 62.5 68.4999 61.5 68.4999C61.6287 66.7838 61.962 65.1171 62.5 63.4999C63.4345 62.4323 63.7678 61.0989 63.5 59.4999C63.1667 58.8332 62.8333 58.1666 62.5 57.4999C63.7777 57.7821 64.7777 58.4488 65.5 59.4999C65.5 59.8332 65.5 60.1666 65.5 60.4999C65.5 61.4999 65.5 62.4999 65.5 63.4999C68.8078 64.0261 70.9745 62.6927 72 59.4999C72.6342 56.4452 72.4675 53.4452 71.5 50.4999C70.8333 49.4999 70.1667 48.4999 69.5 47.4999C71.9471 28.435 63.6138 17.1017 44.5 13.4999C45.0906 12.8484 45.7573 12.1817 46.5 11.4999C42.8282 10.7688 42.1615 9.26884 44.5 6.99995C42.4132 7.21786 40.4132 7.05119 38.5 6.49995C42.4447 3.97663 46.778 2.97663 51.5 3.49995Z" fill="#9F2506"/>
<path fill-rule="evenodd" clip-rule="evenodd" d="M26.5 17.5C26.5 17.1667 26.5 16.8333 26.5 16.5C27.5 16.5 28.5 16.5 29.5 16.5C29.8333 16.5 30.1667 16.5 30.5 16.5C30.6896 21.3696 31.3563 26.0363 32.5 30.5C34.6469 31.9321 34.9802 33.7655 33.5 36C28.3085 36.14 23.3085 35.3067 18.5 33.5C17.5 33.8333 16.5 34.1667 15.5 34.5C18.0094 35.9213 20.3428 37.5879 22.5 39.5C25.4283 38.0791 26.7616 39.0791 26.5 42.5C28.7345 42.6199 30.9011 42.2865 33 41.5C34.2798 41.6135 35.1131 42.2801 35.5 43.5C34.1413 45.6922 32.3079 47.3589 30 48.5C29.3404 54.1289 27.8404 59.4622 25.5 64.5C23.7085 64.366 22.0418 64.6993 20.5 65.5C18.9519 65.8212 18.2852 66.8212 18.5 68.5C17.218 67.2918 17.218 65.9584 18.5 64.5C20.0255 64.0057 21.3588 63.339 22.5 62.5C24.7979 57.3321 26.7979 51.9988 28.5 46.5C24.278 43.5604 19.9447 40.8937 15.5 38.5C15.5 37.8333 15.1667 37.5 14.5 37.5C12.8516 35.5441 12.1849 33.2108 12.5 30.5C13.5 30.5 14.5 30.5 15.5 30.5C16.1667 30.5 16.8333 30.5 17.5 30.5C18.8734 30.3433 20.2068 30.51 21.5 31C24.3782 33.4496 27.7115 34.1163 31.5 33C31 32.5 30.5 32 30 31.5C29.6667 27.5 29.3333 23.5 29 19.5C28.6174 18.944 28.1174 18.6107 27.5 18.5C27.5 17.8333 27.1667 17.5 26.5 17.5Z" fill="#6E1A11"/>
<path fill-rule="evenodd" clip-rule="evenodd" d="M57.5 29.5C59.3066 33.9552 58.3066 37.7885 54.5 41C54.7355 41.8732 55.0688 42.7065 55.5 43.5C60.0062 44.1387 64.3395 45.1387 68.5 46.5C68.5 47.1667 68.8333 47.5 69.5 47.5C70.1667 48.5 70.8333 49.5 71.5 50.5C70.8333 50.5 70.1667 50.5 69.5 50.5C64.6894 48.0667 59.5227 46.7334 54 46.5C53.4427 44.3853 52.6094 42.3853 51.5 40.5C52.9029 38.4301 54.5696 36.7635 56.5 35.5C57.4614 33.7354 57.7947 31.7354 57.5 29.5Z" fill="#631A13"/>
<path fill-rule="evenodd" clip-rule="evenodd" d="M14.5 37.5C15.1667 37.5 15.5 37.8333 15.5 38.5C14.1756 47.5307 16.509 55.5307 22.5 62.5C21.5 62.5 20.5 62.5 19.5 62.5C12.9136 54.8448 11.2469 46.5115 14.5 37.5Z" fill="#EF7958"/>
<path fill-rule="evenodd" clip-rule="evenodd" d="M53.5 54.5001C57.0535 53.3484 60.7202 53.5151 64.5 55.0001C65.3802 56.3562 65.7135 57.8562 65.5 59.5001C64.7777 58.449 63.7777 57.7823 62.5 57.5001C61.0048 57.0114 59.6715 56.3447 58.5 55.5001C57.0813 54.549 55.4147 54.2156 53.5 54.5001Z" fill="#4E1914"/>
<path fill-rule="evenodd" clip-rule="evenodd" d="M15.5 38.5C19.9447 40.8937 24.278 43.5604 28.5 46.5C26.7979 51.9988 24.7979 57.3321 22.5 62.5C16.509 55.5307 14.1756 47.5307 15.5 38.5Z" fill="#BE4425"/>
<path fill-rule="evenodd" clip-rule="evenodd" d="M53.5 54.5C55.4147 54.2155 57.0813 54.5489 58.5 55.5C53.9402 57.5119 49.9402 56.8453 46.5 53.5C46.9899 51.0516 46.1566 49.385 44 48.5C41.6589 50.0162 39.4923 51.6828 37.5 53.5C36.5875 58.3971 35.5875 63.3971 34.5 68.5C33.0937 68.9731 32.427 69.9731 32.5 71.5C32.0296 72.6935 31.0296 73.3601 29.5 73.5C28.2739 73.4805 27.2739 73.1471 26.5 72.5C28.288 72.7852 29.9547 72.4519 31.5 71.5C31.3764 70.8933 31.0431 70.56 30.5 70.5C32.2176 66.8774 33.5509 63.0441 34.5 59C34.2645 58.1268 33.9312 57.2935 33.5 56.5C34.8829 52.2813 37.5496 49.1146 41.5 47C46.6827 45.1808 49.5161 47.0142 50 52.5C50.8159 53.8228 51.9826 54.4894 53.5 54.5Z" fill="#65130D"/>
<path fill-rule="evenodd" clip-rule="evenodd" d="M46.5 53.5C47.3761 58.8703 45.2094 62.8703 40 65.5C38.0149 61.7945 37.1816 57.7945 37.5 53.5C39.4923 51.6828 41.6589 50.0162 44 48.5C46.1566 49.385 46.9899 51.0516 46.5 53.5Z" fill="#E06444"/>
<path fill-rule="evenodd" clip-rule="evenodd" d="M69.5 50.5C70.1667 50.5 70.8333 50.5 71.5 50.5C72.4675 53.4453 72.6342 56.4453 72 59.5C70.9745 62.6928 68.8078 64.0262 65.5 63.5C65.5 62.5 65.5 61.5 65.5 60.5C66.8221 60.67 67.9887 60.3366 69 59.5C69.498 56.5184 69.6646 53.5184 69.5 50.5Z" fill="#401A14"/>
<path fill-rule="evenodd" clip-rule="evenodd" d="M37.5 53.5C37.1816 57.7945 38.0149 61.7945 40 65.5C45.2094 62.8703 47.3761 58.8703 46.5 53.5C49.9402 56.8453 53.9402 57.5119 58.5 55.5C59.6715 56.3446 61.0048 57.0113 62.5 57.5C62.8333 58.1667 63.1667 58.8333 63.5 59.5C55.6401 68.3423 45.9735 71.3423 34.5 68.5C35.5875 63.3971 36.5875 58.3971 37.5 53.5Z" fill="#BE4425"/>
<path fill-rule="evenodd" clip-rule="evenodd" d="M20.5 65.5C20.5743 67.4109 21.5743 68.5776 23.5 69C25.8127 69.662 28.146 70.162 30.5 70.5C31.0431 70.56 31.3764 70.8933 31.5 71.5C29.9547 72.4519 28.288 72.7852 26.5 72.5C24.8333 72.5 23.1667 72.5 21.5 72.5C21.2624 70.5956 20.2624 69.2623 18.5 68.5C18.2852 66.8212 18.9519 65.8212 20.5 65.5Z" fill="#2D0E0B"/>
<path fill-rule="evenodd" clip-rule="evenodd" d="M63.5 59.5C63.7678 61.099 63.4345 62.4324 62.5 63.5C53.986 71.342 43.986 74.0087 32.5 71.5C32.427 69.9731 33.0937 68.9731 34.5 68.5C45.9735 71.3423 55.6401 68.3423 63.5 59.5Z" fill="#F27D5B"/>
<path fill-rule="evenodd" clip-rule="evenodd" d="M62.5 63.5C61.962 65.1172 61.6287 66.7839 61.5 68.5C62.5 68.5 63.5 68.5 64.5 68.5C64.3601 70.1238 65.0267 71.2904 66.5 72C63.8055 74.2148 60.8055 75.7148 57.5 76.5C57.5 77.5 57.5 78.5 57.5 79.5C55.0128 80.3228 52.6794 81.3228 50.5 82.5C44.1667 82.5 37.8333 82.5 31.5 82.5C26.804 80.6555 22.1373 78.4889 17.5 76C16.6195 75.2917 15.9528 74.4584 15.5 73.5C15.3118 71.8967 15.8118 70.5634 17 69.5C17.9078 71.4386 19.4078 72.4386 21.5 72.5C23.1667 72.5 24.8333 72.5 26.5 72.5C27.2739 73.1471 28.2739 73.4805 29.5 73.5C31.0296 73.3601 32.0296 72.6935 32.5 71.5C43.986 74.0087 53.986 71.342 62.5 63.5Z" fill="#A3290A"/>
</g>
<defs>
<clipPath id="clip0_2_147">
<rect width="83" height="83" fill="white"/>
</clipPath>
</defs>
</svg>
