<svg width="1025" height="1025" viewBox="0 0 1025 1025" fill="none" xmlns="http://www.w3.org/2000/svg">
<path fill-rule="evenodd" clip-rule="evenodd" d="M512.407 0C795.214 0 1024.81 229.6 1024.81 512.407C1024.81 795.208 795.214 1024.81 512.407 1024.81C229.606 1024.81 0 795.208 0 512.407C0 229.6 229.606 0 512.407 0ZM350.079 237.2C350.079 237.2 356.332 208.571 383.845 185.205C411.363 161.838 457.364 154.526 457.364 154.526C457.364 154.526 445.743 173.347 443.602 189.846C443.602 189.846 464.276 172.124 490.02 166.012C546.714 152.549 617.512 159.534 617.512 159.534C617.512 159.534 585.025 177.143 582.428 189.689C582.428 189.689 631.415 187.143 654.641 199.237C688.486 216.864 695.668 247.497 709.611 263.299C723.553 279.1 734.014 301.036 734.014 301.036C734.014 301.036 690.497 299.785 677.287 292.237C677.287 292.237 725.975 339.539 745.303 372.319C773.982 420.957 777.581 515.635 789.389 564.295C801.19 612.955 826.771 653.52 826.771 653.52C826.771 653.52 757.82 668.6 707.999 593.762C707.999 593.762 699.166 666.803 775.694 738.041C775.694 738.041 636.885 734.115 596.038 650.444C596.038 650.444 571.196 707.639 630.108 812.327C630.108 812.327 512.892 796.391 482.314 717.469C482.314 717.469 460.519 738.582 478.264 833.452C478.264 833.452 375 768.76 387.743 698.834C387.743 698.834 349.82 722.798 342.654 785.181C342.654 785.181 301.83 743.044 323.867 674.634C345.905 606.223 362.805 606.556 382.425 595.65C402.046 584.749 469.78 555.096 486.33 488.206C498.549 438.837 465.347 395.489 465.347 395.489C465.347 395.489 509.641 338.029 470.011 284.006C430.381 229.989 350.079 237.2 350.079 237.2ZM235.33 500.262C235.33 500.262 176.783 451.23 175.301 414.146C175.301 414.146 159.185 401.685 172.378 380.155C185.577 358.619 244.027 338.024 264.943 325.743C264.943 325.743 271.241 303.233 277.9 292.868C284.558 282.502 324.527 265.676 336.875 263.496C362.591 258.95 396.784 261.378 431.632 285.144C491.795 326.183 427.846 397.128 427.846 397.128C427.846 397.128 474.765 435.164 452.762 493.986C430.758 552.814 371.739 572.322 338.204 572.001C304.664 571.68 307.154 623.957 307.142 639.296C307.142 639.296 279.545 616.391 261.321 583.803C243.103 551.209 245.227 521.291 245.227 521.291L279.404 537.717C279.404 537.717 305.492 533.768 341.026 508.582C358.168 496.431 343.128 447.715 307.756 448.526C269.473 449.41 236.039 458.04 236.039 458.04L235.33 500.262ZM302.213 371.288C302.213 371.288 281.376 340.812 280.762 333.112C280.153 325.411 286.891 321.969 297.447 320.155C308.004 318.341 337.877 319.586 337.877 319.586C344.677 321.316 365.351 339.083 363.086 343.989C360.821 348.896 302.213 371.288 302.213 371.288ZM495.997 288.276C483.965 276.244 486.404 257.727 500.346 250.415C514.289 243.103 577.651 228.237 593.222 225.167C608.786 222.103 623.777 232.389 621.478 252.838C619.952 266.414 622.317 288.682 604.961 308.404C586.603 329.264 563.219 345.589 551.423 334.266C539.627 322.944 508.024 300.309 495.997 288.276ZM567.799 313.08C567.799 313.08 534.822 287.792 524.383 280.277C513.95 272.762 521.42 266.346 532.985 262.989C544.556 259.637 596.731 247.492 596.731 247.492C596.731 247.492 611.502 279.669 567.799 313.08Z" fill="#8C3932"/>
</svg>
