<svg width="84" height="84" viewBox="0 0 84 84" fill="none" xmlns="http://www.w3.org/2000/svg">
<g clip-path="url(#clip0_2_585)">
<path fill-rule="evenodd" clip-rule="evenodd" d="M45.5 12.5C45.8333 13.5 46.5 14.1667 47.5 14.5C47.8333 15.5 48.5 16.1667 49.5 16.5C49.7373 17.791 49.404 18.791 48.5 19.5C47.8333 19.5 47.1667 19.5 46.5 19.5C45.5489 20.9187 45.2155 22.5853 45.5 24.5C46.8333 24.5 48.1667 24.5 49.5 24.5C50.5 24.8333 51.1667 25.5 51.5 26.5C52.3439 30.0991 52.6773 33.7657 52.5 37.5C54.1667 37.5 55.8333 37.5 57.5 37.5C57.5793 40.2706 57.0793 42.9373 56 45.5C55.7679 44.2625 55.2679 43.2625 54.5 42.5C52.4862 42.3915 50.8195 43.0582 49.5 44.5C48.5326 45.8062 47.1993 46.4729 45.5 46.5C45.5 47.5 45.5 48.5 45.5 49.5C44.5 49.1667 43.8333 48.5 43.5 47.5C42.5514 46.8476 41.3847 46.5143 40 46.5C38.3189 46.6083 37.1522 47.2749 36.5 48.5C36.1667 48.5 35.8333 48.5 35.5 48.5C35.316 46.0752 34.6493 46.0752 33.5 48.5C33.1667 48.1667 32.8333 47.8333 32.5 47.5C33.4485 44.2053 33.4485 40.872 32.5 37.5C33.5 37.5 34.5 37.5 35.5 37.5C36.4731 35.0521 36.8064 32.3854 36.5 29.5C32.8622 30.2634 31.3622 28.9301 32 25.5C34.3806 24.565 36.8806 24.2317 39.5 24.5C39.5 23.5 39.5 22.5 39.5 21.5C39.8842 18.9192 40.2175 16.2525 40.5 13.5C41.9187 12.5489 43.5853 12.2155 45.5 12.5Z" fill="#FAFAC5"/>
<path fill-rule="evenodd" clip-rule="evenodd" d="M38.5 13.5C38.8333 13.5 39.1667 13.5 39.5 13.5C39.8333 13.5 40.1667 13.5 40.5 13.5C40.2175 16.2525 39.8842 18.9192 39.5 21.5C39.2964 19.3146 38.6298 17.3146 37.5 15.5C37.8333 14.8333 38.1667 14.1667 38.5 13.5Z" fill="#DED39B"/>
<path fill-rule="evenodd" clip-rule="evenodd" d="M58.5 15.5C58.2627 16.791 58.596 17.791 59.5 18.5C59.5 18.8333 59.5 19.1667 59.5 19.5C58.7777 20.5511 57.7777 21.2178 56.5 21.5C56.5 20.8333 56.5 20.1667 56.5 19.5C57.1667 18.1667 57.8333 16.8333 58.5 15.5Z" fill="#8D6C23"/>
<path fill-rule="evenodd" clip-rule="evenodd" d="M63.5 19.5C62.2502 19.5774 61.4169 20.244 61 21.5C60.7216 20.5842 60.2216 19.9175 59.5 19.5C59.5 19.1667 59.5 18.8333 59.5 18.5C61.3509 14.6134 62.6843 14.9468 63.5 19.5Z" fill="#DDD39B"/>
<path fill-rule="evenodd" clip-rule="evenodd" d="M49.5 16.5C50.1667 16.5 50.5 16.8333 50.5 17.5C50.7148 19.1788 50.0481 20.1788 48.5 20.5C48.5 20.1667 48.5 19.8333 48.5 19.5C49.404 18.791 49.7373 17.791 49.5 16.5Z" fill="#B9A784"/>
<path fill-rule="evenodd" clip-rule="evenodd" d="M35.5 18.5C36.404 19.209 36.7373 20.209 36.5 21.5C34.8333 21.5 33.1667 21.5 31.5 21.5C33.2191 20.9779 34.5525 19.9779 35.5 18.5Z" fill="#B07820"/>
<path fill-rule="evenodd" clip-rule="evenodd" d="M46.5 19.5C47.1667 19.5 47.8333 19.5 48.5 19.5C48.5 19.8333 48.5 20.1667 48.5 20.5C48.5 21.5 48.5 22.5 48.5 23.5C46.8235 22.8166 46.1568 21.4832 46.5 19.5Z" fill="#754A1D"/>
<path fill-rule="evenodd" clip-rule="evenodd" d="M34.5 16.5C34.3284 17.4916 34.6618 18.1583 35.5 18.5C34.5525 19.9779 33.2191 20.9779 31.5 21.5C29.2273 21.9568 27.894 23.2901 27.5 25.5C25.1878 27.1455 23.1878 29.1455 21.5 31.5C19.9547 32.4519 18.288 32.7852 16.5 32.5C19.6449 24.0251 25.6449 18.6918 34.5 16.5Z" fill="#E8AE3A"/>
<path fill-rule="evenodd" clip-rule="evenodd" d="M35.5 15.5C36.1667 15.5 36.8333 15.5 37.5 15.5C38.6298 17.3146 39.2964 19.3146 39.5 21.5C37.1489 23.0696 34.4823 23.9029 31.5 24C31.0257 25.7286 30.0257 26.8953 28.5 27.5C27.6618 27.1583 27.3284 26.4916 27.5 25.5C27.894 23.2901 29.2273 21.9568 31.5 21.5C33.1667 21.5 34.8333 21.5 36.5 21.5C36.7373 20.209 36.404 19.209 35.5 18.5C34.6618 18.1583 34.3284 17.4916 34.5 16.5C34.5 15.8333 34.8333 15.5 35.5 15.5Z" fill="#865317"/>
<path fill-rule="evenodd" clip-rule="evenodd" d="M50.5 17.5C51.609 17.5569 52.609 17.8902 53.5 18.5C54.209 19.404 55.209 19.7373 56.5 19.5C56.5 20.1667 56.5 20.8333 56.5 21.5C55.8333 21.5 55.1667 21.5 54.5 21.5C52.4482 22.0527 52.1148 23.0527 53.5 24.5C55.7271 25.4006 56.7271 27.0672 56.5 29.5C55.8333 29.5 55.5 29.8333 55.5 30.5C54.8333 29.5 54.1667 28.5 53.5 27.5C52.8333 27.1667 52.1667 26.8333 51.5 26.5C51.1667 25.5 50.5 24.8333 49.5 24.5C49.5 23.8333 49.1667 23.5 48.5 23.5C48.5 22.5 48.5 21.5 48.5 20.5C50.0481 20.1788 50.7148 19.1788 50.5 17.5Z" fill="#4A3522"/>
<path fill-rule="evenodd" clip-rule="evenodd" d="M54.5 21.5C53.8902 22.391 53.5569 23.391 53.5 24.5C52.1148 23.0527 52.4482 22.0527 54.5 21.5Z" fill="#A09673"/>
<path fill-rule="evenodd" clip-rule="evenodd" d="M63.5 19.5C65.7424 20.6481 68.0758 21.6481 70.5 22.5C70.3764 23.1067 70.0431 23.44 69.5 23.5C68.4324 22.5655 67.099 22.2322 65.5 22.5C64.0937 22.0269 63.427 21.0269 63.5 19.5Z" fill="#B39463"/>
<path fill-rule="evenodd" clip-rule="evenodd" d="M59.5 12.5001C60.9778 12.2381 62.3112 12.5714 63.5 13.5001C64.7228 18.7695 68.0562 20.9362 73.5 20.0001C74.2524 20.6709 74.5858 21.5042 74.5 22.5001C73.1667 24.1668 71.8333 25.8334 70.5 27.5001C69.9779 29.2192 68.9779 30.5526 67.5 31.5001C67.3225 30.3053 66.9891 29.1386 66.5 28.0001C67.3146 26.3567 68.3146 24.8567 69.5 23.5001C70.0431 23.4401 70.3764 23.1068 70.5 22.5001C68.0758 21.6482 65.7424 20.6482 63.5 19.5001C62.6843 14.9469 61.3509 14.6135 59.5 18.5001C58.596 17.7911 58.2627 16.7911 58.5 15.5001C58.5569 14.3911 58.8902 13.3911 59.5 12.5001Z" fill="#6A3010"/>
<path fill-rule="evenodd" clip-rule="evenodd" d="M46.5 19.5C46.1568 21.4832 46.8235 22.8166 48.5 23.5C49.1667 23.5 49.5 23.8333 49.5 24.5C48.1667 24.5 46.8333 24.5 45.5 24.5C45.2155 22.5853 45.5489 20.9187 46.5 19.5Z" fill="#C3B484"/>
<path fill-rule="evenodd" clip-rule="evenodd" d="M59.5 19.5C60.2216 19.9175 60.7216 20.5842 61 21.5C61.4169 20.244 62.2502 19.5774 63.5 19.5C63.427 21.0269 64.0937 22.0269 65.5 22.5C64.0474 23.8249 64.3808 24.6582 66.5 25C63.6074 26.1488 60.6074 26.6488 57.5 26.5C57.7373 27.791 57.404 28.791 56.5 29.5C56.7271 27.0672 55.7271 25.4006 53.5 24.5C53.5569 23.391 53.8902 22.391 54.5 21.5C55.1667 21.5 55.8333 21.5 56.5 21.5C57.7777 21.2178 58.7777 20.5511 59.5 19.5Z" fill="#F4ECA8"/>
<path fill-rule="evenodd" clip-rule="evenodd" d="M35.5 13.5C35.5 14.1667 35.5 14.8333 35.5 15.5C34.8333 15.5 34.5 15.8333 34.5 16.5C25.6449 18.6918 19.6449 24.0251 16.5 32.5C15.8902 33.391 15.5569 34.391 15.5 35.5C13.2472 37.4503 12.9139 39.7837 14.5 42.5C14.3367 44.8568 14.5034 47.1902 15 49.5C15.3768 50.9423 16.2101 51.9423 17.5 52.5C17.8925 54.2838 18.5592 55.9505 19.5 57.5C19.7148 59.1788 19.0481 60.1788 17.5 60.5C17.5 60.1667 17.5 59.8333 17.5 59.5C12.3897 52.3928 10.3897 44.3928 11.5 35.5C13.9504 28.1301 18.2838 21.9634 24.5 17C27.7932 14.7581 31.4599 13.5915 35.5 13.5Z" fill="#F0DE67"/>
<path fill-rule="evenodd" clip-rule="evenodd" d="M74.5 22.5C75.4959 22.4142 76.3292 22.7476 77 23.5C78.1356 26.0964 78.969 28.763 79.5 31.5C76.8333 31.5 74.1667 31.5 71.5 31.5C71.5 32.8333 71.5 34.1667 71.5 35.5C71.1667 35.5 70.8333 35.5 70.5 35.5C70.5 32.8333 70.5 30.1667 70.5 27.5C71.8333 25.8333 73.1667 24.1667 74.5 22.5Z" fill="#D0941C"/>
<path fill-rule="evenodd" clip-rule="evenodd" d="M27.5 25.5C27.3284 26.4916 27.6618 27.1583 28.5 27.5C27.2073 29.2959 25.7073 30.9625 24 32.5C23.51 33.7932 23.3433 35.1266 23.5 36.5C22.8485 37.0906 22.1818 37.7573 21.5 38.5C20.8589 37.0065 19.8589 36.0065 18.5 35.5C17.6522 34.375 16.6522 34.375 15.5 35.5C15.5569 34.391 15.8902 33.391 16.5 32.5C18.288 32.7852 19.9547 32.4519 21.5 31.5C23.1878 29.1455 25.1878 27.1455 27.5 25.5Z" fill="#916219"/>
<path fill-rule="evenodd" clip-rule="evenodd" d="M65.5 22.5C67.099 22.2322 68.4324 22.5655 69.5 23.5C68.3146 24.8566 67.3146 26.3566 66.5 28C66.9891 29.1385 67.3225 30.3052 67.5 31.5C67.5 32.8333 66.8333 33.5 65.5 33.5C64.6879 32.0069 63.3545 31.3402 61.5 31.5C60.2739 31.5195 59.2739 31.8529 58.5 32.5C56.4017 33.9143 55.4017 33.2476 55.5 30.5C55.5 29.8333 55.8333 29.5 56.5 29.5C57.404 28.791 57.7373 27.791 57.5 26.5C60.6074 26.6488 63.6074 26.1488 66.5 25C64.3808 24.6582 64.0474 23.8249 65.5 22.5Z" fill="#F0D791"/>
<path fill-rule="evenodd" clip-rule="evenodd" d="M65.5 33.5C63.5454 32.6765 61.5454 32.5099 59.5 33C60.056 33.3826 60.3893 33.8826 60.5 34.5C59.1667 34.5 58.5 33.8333 58.5 32.5C59.2739 31.8529 60.2739 31.5195 61.5 31.5C63.3545 31.3402 64.6879 32.0069 65.5 33.5Z" fill="#796644"/>
<path fill-rule="evenodd" clip-rule="evenodd" d="M32.5 -0.5C38.5 -0.5 44.5 -0.5 50.5 -0.5C50.5 -0.166667 50.5 0.166667 50.5 0.5C57.6288 1.39767 63.6288 4.39767 68.5 9.5C66.8877 8.54773 65.3877 8.21439 64 8.5C62.1413 9.57907 60.6413 10.9124 59.5 12.5C58.8902 13.391 58.5569 14.391 58.5 15.5C57.8333 16.8333 57.1667 18.1667 56.5 19.5C55.209 19.7373 54.209 19.404 53.5 18.5C57.5 17.8333 57.5 17.1667 53.5 16.5C53.6716 15.5084 53.3382 14.8417 52.5 14.5C51.3285 13.6554 49.9952 12.9887 48.5 12.5C45.8479 8.68561 42.1813 7.51894 37.5 9C36.7476 9.67076 36.4142 10.5041 36.5 11.5C35.6618 11.8417 35.3284 12.5084 35.5 13.5C31.4599 13.5915 27.7932 14.7581 24.5 17C18.2838 21.9634 13.9504 28.1301 11.5 35.5C10.1958 40.37 10.1958 45.37 11.5 50.5C9.78398 50.9972 8.11732 51.3306 6.5 51.5C5.5 50.8333 4.5 50.1667 3.5 49.5C2.70245 49.9569 2.36912 50.6236 2.5 51.5C-1.47875 29.2941 6.85458 13.4608 27.5 4C26.2068 3.50999 24.8734 3.34332 23.5 3.5C26.3448 1.77567 29.3448 0.442336 32.5 -0.5Z" fill="#DA9D24"/>
<path fill-rule="evenodd" clip-rule="evenodd" d="M53.5 16.5C57.5 17.1667 57.5 17.8333 53.5 18.5C53.5 17.8333 53.5 17.1667 53.5 16.5Z" fill="#F0D35C"/>
<path fill-rule="evenodd" clip-rule="evenodd" d="M47.5 14.5C49.3344 15.494 51.0011 15.494 52.5 14.5C53.3382 14.8417 53.6716 15.5084 53.5 16.5C53.5 17.1667 53.5 17.8333 53.5 18.5C52.609 17.8902 51.609 17.5569 50.5 17.5C50.5 16.8333 50.1667 16.5 49.5 16.5C48.5 16.1667 47.8333 15.5 47.5 14.5Z" fill="#997F29"/>
<path fill-rule="evenodd" clip-rule="evenodd" d="M36.5 11.5C36.5 12.8333 37.1667 13.5 38.5 13.5C38.1667 14.1667 37.8333 14.8333 37.5 15.5C36.8333 15.5 36.1667 15.5 35.5 15.5C35.5 14.8333 35.5 14.1667 35.5 13.5C35.3284 12.5084 35.6618 11.8417 36.5 11.5Z" fill="#91701A"/>
<path fill-rule="evenodd" clip-rule="evenodd" d="M45.5 12.5C46.7978 13.1157 47.7978 13.1157 48.5 12.5C49.9952 12.9887 51.3285 13.6554 52.5 14.5C51.0011 15.494 49.3344 15.494 47.5 14.5C46.5 14.1667 45.8333 13.5 45.5 12.5Z" fill="#835917"/>
<path fill-rule="evenodd" clip-rule="evenodd" d="M48.5 12.5C47.7978 13.1157 46.7978 13.1157 45.5 12.5C44.7261 11.8529 43.7261 11.5195 42.5 11.5C40.9704 11.6399 39.9704 12.3065 39.5 13.5C39.1667 13.5 38.8333 13.5 38.5 13.5C37.1667 13.5 36.5 12.8333 36.5 11.5C36.4142 10.5041 36.7476 9.67077 37.5 9.00001C42.1813 7.51895 45.8479 8.68562 48.5 12.5Z" fill="#6A320D"/>
<path fill-rule="evenodd" clip-rule="evenodd" d="M45.5 12.5C43.5853 12.2155 41.9187 12.5489 40.5 13.5C40.1667 13.5 39.8333 13.5 39.5 13.5C39.9704 12.3065 40.9704 11.6399 42.5 11.5C43.7261 11.5195 44.7261 11.8529 45.5 12.5Z" fill="#AE946C"/>
<path fill-rule="evenodd" clip-rule="evenodd" d="M50.5 0.500001C53.5625 1.69914 56.5625 3.19914 59.5 5C56.3791 5.13798 53.3791 4.47131 50.5 3C43.1277 2.4858 35.7944 2.4858 28.5 3C30.2852 1.83716 32.2852 1.17049 34.5 1C39.8229 0.50065 45.1563 0.333984 50.5 0.500001Z" fill="#C28517"/>
<path fill-rule="evenodd" clip-rule="evenodd" d="M65.5 33.5C65.5 34.1667 65.8333 34.5 66.5 34.5C66.5 35.8333 65.8333 36.5 64.5 36.5C64.5 35.8333 64.1667 35.5 63.5 35.5C63.1667 35.5 62.8333 35.5 62.5 35.5C62.1583 34.6618 61.4916 34.3284 60.5 34.5C60.3893 33.8826 60.056 33.3826 59.5 33C61.5454 32.5099 63.5454 32.6765 65.5 33.5Z" fill="#381B0F"/>
<path fill-rule="evenodd" clip-rule="evenodd" d="M70.5 27.5C70.5 30.1667 70.5 32.8333 70.5 35.5C68.9519 35.8212 68.2852 36.8212 68.5 38.5C67.8333 37.1667 67.1667 35.8333 66.5 34.5C65.8333 34.5 65.5 34.1667 65.5 33.5C66.8333 33.5 67.5 32.8333 67.5 31.5C68.9779 30.5525 69.9779 29.2191 70.5 27.5Z" fill="#977720"/>
<path fill-rule="evenodd" clip-rule="evenodd" d="M79.5 31.5C80.4614 33.2646 80.7947 35.2646 80.5 37.5C77.546 36.7287 74.546 36.062 71.5 35.5C71.5 34.1667 71.5 32.8333 71.5 31.5C74.1667 31.5 76.8333 31.5 79.5 31.5Z" fill="#EEB136"/>
<path fill-rule="evenodd" clip-rule="evenodd" d="M53.5 27.5C54.1667 28.5 54.8333 29.5 55.5 30.5C55.4017 33.2476 56.4017 33.9143 58.5 32.5C58.5 33.8333 59.1667 34.5 60.5 34.5C61.4916 34.3284 62.1583 34.6618 62.5 35.5C59.4824 35.7038 56.4824 36.0371 53.5 36.5C53.5 33.5 53.5 30.5 53.5 27.5Z" fill="#999661"/>
<path fill-rule="evenodd" clip-rule="evenodd" d="M18.5 35.5C19.8589 36.0065 20.8589 37.0065 21.5 38.5C22.1818 37.7573 22.8485 37.0906 23.5 36.5C23.4828 38.5648 23.1495 40.5648 22.5 42.5C20.8583 40.9192 18.8583 40.2525 16.5 40.5C16.3915 38.4862 17.0582 36.8195 18.5 35.5Z" fill="#D3C78E"/>
<path fill-rule="evenodd" clip-rule="evenodd" d="M63.5 35.5C64.1667 35.5 64.5 35.8333 64.5 36.5C62.8159 37.9999 61.1493 39.6666 59.5 41.5C60.325 42.3857 61.325 42.719 62.5 42.5C62.5 42.8333 62.5 43.1667 62.5 43.5C61.1667 43.5 59.8333 43.5 58.5 43.5C58.3433 42.1266 58.51 40.7932 59 39.5C60.8587 38.4209 62.3587 37.0876 63.5 35.5Z" fill="#9C7842"/>
<path fill-rule="evenodd" clip-rule="evenodd" d="M51.5 26.5C52.1667 26.8333 52.8333 27.1667 53.5 27.5C53.5 30.5 53.5 33.5 53.5 36.5C56.4824 36.0371 59.4824 35.7038 62.5 35.5C62.8333 35.5 63.1667 35.5 63.5 35.5C62.3587 37.0876 60.8587 38.4209 59 39.5C58.51 40.7932 58.3433 42.1266 58.5 43.5C59.8333 43.5 61.1667 43.5 62.5 43.5C63.4916 43.3284 64.1583 43.6618 64.5 44.5C64.5 45.1667 64.1667 45.5 63.5 45.5C61.901 45.2322 60.5676 45.5655 59.5 46.5C57.8333 46.5 56.1667 46.5 54.5 46.5C54.5 45.1667 54.5 43.8333 54.5 42.5C55.2679 43.2625 55.7679 44.2625 56 45.5C57.0793 42.9373 57.5793 40.2706 57.5 37.5C55.8333 37.5 54.1667 37.5 52.5 37.5C52.6773 33.7657 52.3439 30.0991 51.5 26.5Z" fill="#E6E1AB"/>
<path fill-rule="evenodd" clip-rule="evenodd" d="M64.5 44.5C64.1583 43.6618 63.4916 43.3284 62.5 43.5C62.5 43.1667 62.5 42.8333 62.5 42.5C63.8583 41.3744 65.1916 41.3744 66.5 42.5C66.1445 43.5223 65.4778 44.189 64.5 44.5Z" fill="#C0AC7D"/>
<path fill-rule="evenodd" clip-rule="evenodd" d="M70.5 35.5C70.8333 35.5 71.1667 35.5 71.5 35.5C71.8182 40.0323 71.4849 44.3656 70.5 48.5C70.9227 46.2188 70.256 44.5521 68.5 43.5C68.5 41.8333 68.5 40.1667 68.5 38.5C68.2852 36.8212 68.9519 35.8212 70.5 35.5Z" fill="#D0AC36"/>
<path fill-rule="evenodd" clip-rule="evenodd" d="M66.5 34.5C67.1667 35.8333 67.8333 37.1667 68.5 38.5C68.5 40.1667 68.5 41.8333 68.5 43.5C68.4431 44.609 68.1098 45.609 67.5 46.5C66.391 46.5569 65.391 46.8902 64.5 47.5C63.1266 47.6567 61.7932 47.49 60.5 47C61.7375 46.7679 62.7375 46.2679 63.5 45.5C64.1667 45.5 64.5 45.1667 64.5 44.5C65.4778 44.189 66.1445 43.5223 66.5 42.5C65.1916 41.3744 63.8583 41.3744 62.5 42.5C61.325 42.719 60.325 42.3857 59.5 41.5C61.1493 39.6666 62.8159 37.9999 64.5 36.5C65.8333 36.5 66.5 35.8333 66.5 34.5Z" fill="#713A0E"/>
<path fill-rule="evenodd" clip-rule="evenodd" d="M14.5 42.5C16.0418 43.3007 17.7085 43.634 19.5 43.5C19.7475 45.8583 19.0808 47.8583 17.5 49.5C17.5 50.5 17.5 51.5 17.5 52.5C16.2101 51.9423 15.3768 50.9423 15 49.5C14.5034 47.1902 14.3367 44.8568 14.5 42.5Z" fill="#E6AF3D"/>
<path fill-rule="evenodd" clip-rule="evenodd" d="M18.5 35.5C17.0582 36.8195 16.3915 38.4862 16.5 40.5C18.8583 40.2525 20.8583 40.9192 22.5 42.5C22.9817 43.4163 23.315 44.4163 23.5 45.5C22.4814 47.5107 21.4814 49.5107 20.5 51.5C19.7777 50.4489 18.7777 49.7822 17.5 49.5C19.0808 47.8583 19.7475 45.8583 19.5 43.5C17.7085 43.634 16.0418 43.3007 14.5 42.5C12.9139 39.7837 13.2472 37.4503 15.5 35.5C16.6522 34.375 17.6522 34.375 18.5 35.5Z" fill="#8B5516"/>
<path fill-rule="evenodd" clip-rule="evenodd" d="M43.5 47.5C41.0504 47.298 38.717 47.6314 36.5 48.5C37.1522 47.2749 38.3189 46.6083 40 46.5C41.3847 46.5143 42.5514 46.8476 43.5 47.5Z" fill="#BCAB64"/>
<path fill-rule="evenodd" clip-rule="evenodd" d="M63.5 45.5C62.7375 46.2679 61.7375 46.7679 60.5 47C61.7932 47.49 63.1266 47.6567 64.5 47.5C61.3633 49.3904 58.0299 49.7237 54.5 48.5C56.1667 47.8333 57.8333 47.1667 59.5 46.5C60.5676 45.5655 61.901 45.2322 63.5 45.5Z" fill="#8B5216"/>
<path fill-rule="evenodd" clip-rule="evenodd" d="M39.5 21.5C39.5 22.5 39.5 23.5 39.5 24.5C36.8806 24.2317 34.3806 24.565 32 25.5C31.3622 28.9301 32.8622 30.2634 36.5 29.5C36.8064 32.3854 36.4731 35.0521 35.5 37.5C35.7845 35.5853 35.4511 33.9187 34.5 32.5C34.1575 30.7748 33.1575 30.2748 31.5 31C29.8588 32.129 28.8588 33.629 28.5 35.5C25.2035 39.968 25.8702 43.6346 30.5 46.5C31.4147 45.6721 32.0814 44.6721 32.5 43.5C31.2463 41.3569 31.2463 39.3569 32.5 37.5C33.4485 40.872 33.4485 44.2053 32.5 47.5C32.8333 47.8333 33.1667 48.1667 33.5 48.5C34.6493 46.0752 35.316 46.0752 35.5 48.5C35.0766 49.2646 34.7432 50.0979 34.5 51C36.3693 53.3685 38.036 55.8685 39.5 58.5C39.3764 59.1067 39.0431 59.44 38.5 59.5C38.1667 58.5 37.5 57.8333 36.5 57.5C34.8113 56.6963 33.1446 55.6963 31.5 54.5C30.4822 55.1925 29.4822 55.8592 28.5 56.5C28.6309 55.6236 28.2975 54.9569 27.5 54.5C26.6143 55.325 26.281 56.325 26.5 57.5C25.5 57.5 24.5 57.5 23.5 57.5C23.7709 59.3797 23.1042 60.713 21.5 61.5C21.5 60.8333 21.5 60.1667 21.5 59.5C22.1667 58.5 22.8333 57.5 23.5 56.5C26.5441 54.4993 27.5441 51.8326 26.5 48.5C25.3954 50.6114 23.7288 51.9447 21.5 52.5C21.5 51.8333 21.1667 51.5 20.5 51.5C21.4814 49.5107 22.4814 47.5107 23.5 45.5C23.315 44.4163 22.9817 43.4163 22.5 42.5C23.1495 40.5648 23.4828 38.5648 23.5 36.5C23.3433 35.1266 23.51 33.7932 24 32.5C25.7073 30.9625 27.2073 29.2959 28.5 27.5C30.0257 26.8953 31.0257 25.7286 31.5 24C34.4823 23.9029 37.1489 23.0696 39.5 21.5Z" fill="#EBE5AB"/>
<path fill-rule="evenodd" clip-rule="evenodd" d="M32.5 36.5C32.5 36.8333 32.5 37.1667 32.5 37.5C31.2463 39.3569 31.2463 41.3569 32.5 43.5C32.0814 44.6721 31.4147 45.6721 30.5 46.5C25.8702 43.6346 25.2035 39.968 28.5 35.5C30.0012 34.5573 31.3346 34.8906 32.5 36.5Z" fill="#8C671C"/>
<path fill-rule="evenodd" clip-rule="evenodd" d="M34.5 32.5C35.4511 33.9187 35.7845 35.5853 35.5 37.5C34.5 37.5 33.5 37.5 32.5 37.5C32.5 37.1667 32.5 36.8333 32.5 36.5C34.1765 35.8166 34.8432 34.4832 34.5 32.5Z" fill="#AFA454"/>
<path fill-rule="evenodd" clip-rule="evenodd" d="M34.5 32.5C34.8432 34.4832 34.1765 35.8166 32.5 36.5C31.3346 34.8906 30.0012 34.5573 28.5 35.5C28.8588 33.629 29.8588 32.129 31.5 31C33.1575 30.2748 34.1575 30.7748 34.5 32.5Z" fill="#977B27"/>
<path fill-rule="evenodd" clip-rule="evenodd" d="M54.5 42.5C54.5 43.8333 54.5 45.1667 54.5 46.5C56.1667 46.5 57.8333 46.5 59.5 46.5C57.8333 47.1667 56.1667 47.8333 54.5 48.5C53.375 49.3478 53.375 50.3478 54.5 51.5C53.8333 51.5 53.5 51.8333 53.5 52.5C51.127 50.4208 49.7936 47.7541 49.5 44.5C50.8195 43.0582 52.4862 42.3915 54.5 42.5Z" fill="#907323"/>
<path fill-rule="evenodd" clip-rule="evenodd" d="M11.5 35.5C10.3897 44.3928 12.3897 52.3928 17.5 59.5C14.1667 59.5 10.8333 59.5 7.5 59.5C7.65001 55.5301 5.98334 52.8635 2.5 51.5C2.36912 50.6236 2.70245 49.9569 3.5 49.5C4.5 50.1667 5.5 50.8333 6.5 51.5C8.11732 51.3306 9.78398 50.9972 11.5 50.5C10.1958 45.37 10.1958 40.37 11.5 35.5Z" fill="#E3AB30"/>
<path fill-rule="evenodd" clip-rule="evenodd" d="M17.5 49.5C18.7777 49.7822 19.7777 50.4489 20.5 51.5C21.1667 51.5 21.5 51.8333 21.5 52.5C22.6005 53.6049 23.2671 54.9382 23.5 56.5C22.8333 57.5 22.1667 58.5 21.5 59.5C20.6618 59.1583 20.3284 58.4916 20.5 57.5C20.7271 55.0672 19.7271 53.4006 17.5 52.5C17.5 51.5 17.5 50.5 17.5 49.5Z" fill="#7F430E"/>
<path fill-rule="evenodd" clip-rule="evenodd" d="M23.5 56.5C23.2671 54.9382 22.6005 53.6049 21.5 52.5C23.7288 51.9447 25.3954 50.6114 26.5 48.5C27.5441 51.8326 26.5441 54.4993 23.5 56.5Z" fill="#8B5E1B"/>
<path fill-rule="evenodd" clip-rule="evenodd" d="M49.5 44.5C49.7936 47.7541 51.127 50.4208 53.5 52.5C53.5 53.1667 53.5 53.8333 53.5 54.5C53.427 56.0269 54.0937 57.0269 55.5 57.5C55.4326 58.9587 55.7659 60.2921 56.5 61.5C56.7497 63.674 57.7497 65.3406 59.5 66.5C59.8039 67.1499 60.1373 67.8165 60.5 68.5C57.9135 69.48 55.2469 69.8134 52.5 69.5C52.7678 67.901 52.4345 66.5676 51.5 65.5C50.8333 62.8333 50.1667 60.1667 49.5 57.5C49.6567 56.1266 49.49 54.7932 49 53.5C47.6244 52.2949 46.4577 50.9616 45.5 49.5C45.5 48.5 45.5 47.5 45.5 46.5C47.1993 46.4729 48.5326 45.8062 49.5 44.5Z" fill="#EEEAB5"/>
<path fill-rule="evenodd" clip-rule="evenodd" d="M54.5 51.5C57.1777 54.2101 58.511 57.5434 58.5 61.5C58.0623 62.5063 57.3957 62.5063 56.5 61.5C55.7659 60.2921 55.4326 58.9587 55.5 57.5C55.573 55.9731 54.9063 54.9731 53.5 54.5C53.5 53.8333 53.5 53.1667 53.5 52.5C53.5 51.8333 53.8333 51.5 54.5 51.5Z" fill="#895216"/>
<path fill-rule="evenodd" clip-rule="evenodd" d="M67.5 46.5C66.6713 52.4913 64.0046 57.4913 59.5 61.5C59.1667 61.5 58.8333 61.5 58.5 61.5C58.511 57.5434 57.1777 54.2101 54.5 51.5C53.375 50.3478 53.375 49.3478 54.5 48.5C58.0299 49.7237 61.3633 49.3904 64.5 47.5C65.391 46.8902 66.391 46.5569 67.5 46.5Z" fill="#E2A431"/>
<path fill-rule="evenodd" clip-rule="evenodd" d="M68.5 43.5C70.256 44.5521 70.9227 46.2188 70.5 48.5C68.6718 52.878 66.5052 57.2113 64 61.5C63.1841 62.8228 62.0174 63.4894 60.5 63.5C59.6618 63.1583 59.3284 62.4916 59.5 61.5C64.0046 57.4913 66.6713 52.4913 67.5 46.5C68.1098 45.609 68.4431 44.609 68.5 43.5Z" fill="#F1D85F"/>
<path fill-rule="evenodd" clip-rule="evenodd" d="M17.5 52.5C19.7271 53.4006 20.7271 55.0672 20.5 57.5C20.1667 57.5 19.8333 57.5 19.5 57.5C18.5592 55.9505 17.8925 54.2838 17.5 52.5Z" fill="#D49B34"/>
<path fill-rule="evenodd" clip-rule="evenodd" d="M36.5 57.5C34.7376 57.6427 33.0709 57.3094 31.5 56.5C30.265 57.3398 29.265 58.3398 28.5 59.5C28.5 58.5 28.5 57.5 28.5 56.5C29.4822 55.8592 30.4822 55.1925 31.5 54.5C33.1446 55.6963 34.8113 56.6963 36.5 57.5Z" fill="#9C7B39"/>
<path fill-rule="evenodd" clip-rule="evenodd" d="M43.5 47.5C43.8333 48.5 44.5 49.1667 45.5 49.5C46.4577 50.9616 47.6244 52.2949 49 53.5C49.49 54.7932 49.6567 56.1266 49.5 57.5C48.5655 58.5676 48.2322 59.901 48.5 61.5C47.8333 61.5 47.5 61.1667 47.5 60.5C47.6437 53.6447 44.3104 49.978 37.5 49.5C37.7759 52.7186 39.1093 55.3852 41.5 57.5C40.8423 58.3984 40.1757 59.3984 39.5 60.5C38.8933 60.3764 38.56 60.0431 38.5 59.5C39.0431 59.44 39.3764 59.1067 39.5 58.5C38.036 55.8685 36.3693 53.3685 34.5 51C34.7432 50.0979 35.0766 49.2646 35.5 48.5C35.8333 48.5 36.1667 48.5 36.5 48.5C38.717 47.6314 41.0504 47.298 43.5 47.5Z" fill="#977123"/>
<path fill-rule="evenodd" clip-rule="evenodd" d="M47.5 60.5C46.5655 59.4324 46.2322 58.099 46.5 56.5C44.8007 56.5271 43.4674 57.1938 42.5 58.5C42.5 57.8333 42.1667 57.5 41.5 57.5C39.1093 55.3852 37.7759 52.7186 37.5 49.5C44.3104 49.978 47.6437 53.6447 47.5 60.5Z" fill="#E8BD4B"/>
<path fill-rule="evenodd" clip-rule="evenodd" d="M53.5 54.5C54.9063 54.9731 55.573 55.9731 55.5 57.5C54.0937 57.0269 53.427 56.0269 53.5 54.5Z" fill="#B69962"/>
<path fill-rule="evenodd" clip-rule="evenodd" d="M36.5 57.5C37.5 57.8333 38.1667 58.5 38.5 59.5C38.56 60.0431 38.8933 60.3764 39.5 60.5C40.1757 59.3984 40.8423 58.3984 41.5 57.5C42.1667 57.5 42.5 57.8333 42.5 58.5C41.1963 62.8238 38.863 63.4904 35.5 60.5C34.3588 59.661 33.0255 58.9943 31.5 58.5C30.451 60.528 29.451 62.528 28.5 64.5C27.7659 65.7079 27.4326 67.0413 27.5 68.5C27.1667 68.5 26.8333 68.5 26.5 68.5C26.0653 65.1625 26.7319 62.1625 28.5 59.5C29.265 58.3398 30.265 57.3398 31.5 56.5C33.0709 57.3094 34.7376 57.6427 36.5 57.5Z" fill="#8F6219"/>
<path fill-rule="evenodd" clip-rule="evenodd" d="M35.5 60.5C34.0222 60.238 32.6888 60.5713 31.5 61.5C30.8118 62.8549 29.8118 63.8549 28.5 64.5C29.451 62.528 30.451 60.528 31.5 58.5C33.0255 58.9943 34.3588 59.661 35.5 60.5Z" fill="#D69C38"/>
<path fill-rule="evenodd" clip-rule="evenodd" d="M19.5 57.5C19.8333 57.5 20.1667 57.5 20.5 57.5C20.3284 58.4916 20.6618 59.1583 21.5 59.5C21.5 60.1667 21.5 60.8333 21.5 61.5C20.8333 62.1667 20.1667 62.8333 19.5 63.5C19.5 62.1667 18.8333 61.5 17.5 61.5C17.5 61.1667 17.5 60.8333 17.5 60.5C19.0481 60.1788 19.7148 59.1788 19.5 57.5Z" fill="#8E7523"/>
<path fill-rule="evenodd" clip-rule="evenodd" d="M28.5 56.5C28.5 57.5 28.5 58.5 28.5 59.5C26.7319 62.1625 26.0653 65.1625 26.5 68.5C26.1667 68.5 25.8333 68.5 25.5 68.5C22.9179 68.9746 20.9179 68.3079 19.5 66.5C19.5 65.5 19.5 64.5 19.5 63.5C20.1667 62.8333 20.8333 62.1667 21.5 61.5C23.1042 60.713 23.7709 59.3797 23.5 57.5C24.5 57.5 25.5 57.5 26.5 57.5C26.281 56.325 26.6143 55.325 27.5 54.5C28.2975 54.9569 28.6309 55.6236 28.5 56.5Z" fill="#F3F1BC"/>
<path fill-rule="evenodd" clip-rule="evenodd" d="M49.5 57.5C50.1667 60.1667 50.8333 62.8333 51.5 65.5C51.6716 66.4916 51.3382 67.1583 50.5 67.5C49.7148 65.6264 49.0482 63.6264 48.5 61.5C48.2322 59.901 48.5655 58.5676 49.5 57.5Z" fill="#885419"/>
<path fill-rule="evenodd" clip-rule="evenodd" d="M2.5 51.5C5.98334 52.8635 7.65001 55.5301 7.5 59.5C10.8333 59.5 14.1667 59.5 17.5 59.5C17.5 59.8333 17.5 60.1667 17.5 60.5C17.5 60.8333 17.5 61.1667 17.5 61.5C16.0687 62.7804 15.4021 64.4471 15.5 66.5C14.596 67.209 14.2627 68.209 14.5 69.5C13.448 69.6495 12.448 69.4828 11.5 69C7.28946 63.7446 4.28946 57.9113 2.5 51.5Z" fill="#DCA026"/>
<path fill-rule="evenodd" clip-rule="evenodd" d="M47.5 60.5C47.5 61.1667 47.8333 61.5 48.5 61.5C49.0482 63.6264 49.7148 65.6264 50.5 67.5C50.5 68.5 50.5 69.5 50.5 70.5C50.1667 70.5 49.8333 70.5 49.5 70.5C49.5299 69.5028 49.0299 68.8361 48 68.5C41.6 70.1099 35.4333 69.4432 29.5 66.5C28.7025 66.9569 28.3691 67.6236 28.5 68.5C28.1667 68.5 27.8333 68.5 27.5 68.5C27.4326 67.0413 27.7659 65.7079 28.5 64.5C29.8118 63.8549 30.8118 62.8549 31.5 61.5C32.6888 60.5713 34.0222 60.238 35.5 60.5C38.863 63.4904 41.1963 62.8238 42.5 58.5C43.4674 57.1938 44.8007 56.5271 46.5 56.5C46.2322 58.099 46.5655 59.4324 47.5 60.5Z" fill="#F3BC45"/>
<path fill-rule="evenodd" clip-rule="evenodd" d="M56.5 61.5C57.3957 62.5063 58.0623 62.5063 58.5 61.5C58.8333 61.5 59.1667 61.5 59.5 61.5C59.3284 62.4916 59.6618 63.1583 60.5 63.5C60.8333 64.1667 61.1667 64.8333 61.5 65.5C60.5084 65.3284 59.8417 65.6618 59.5 66.5C57.7497 65.3406 56.7497 63.674 56.5 61.5Z" fill="#967730"/>
<path fill-rule="evenodd" clip-rule="evenodd" d="M23.5 3.50006C24.8734 3.34338 26.2068 3.51005 27.5 4.00006C6.85458 13.4609 -1.47875 29.2942 2.5 51.5001C4.28946 57.9114 7.28946 63.7447 11.5 69.0001C12.448 69.4829 13.448 69.6496 14.5 69.5001C14.2627 68.2091 14.596 67.2091 15.5 66.5001C15.2155 68.4148 15.5489 70.0814 16.5 71.5001C19.8333 71.5001 23.1667 71.5001 26.5 71.5001C13.5214 71.3764 13.1881 73.5431 25.5 78.0001C26.7736 78.9773 26.7736 79.8107 25.5 80.5001C12.1873 74.5502 3.5206 64.5502 -0.5 50.5001C-0.5 44.5001 -0.5 38.5001 -0.5 32.5001C3.14503 19.1919 11.145 9.52516 23.5 3.50006Z" fill="#C08317"/>
<path fill-rule="evenodd" clip-rule="evenodd" d="M17.5 61.5C16.9492 64.8067 16.6159 68.1401 16.5 71.5C15.5489 70.0813 15.2155 68.4147 15.5 66.5C15.4021 64.4471 16.0687 62.7804 17.5 61.5Z" fill="#8C4C12"/>
<path fill-rule="evenodd" clip-rule="evenodd" d="M61.5 65.5C63.7188 67.0654 64.0521 69.0654 62.5 71.5C58.6853 72.8077 55.0187 72.8077 51.5 71.5C51.3284 70.5084 51.6618 69.8417 52.5 69.5C55.2469 69.8134 57.9135 69.48 60.5 68.5C60.1373 67.8165 59.8039 67.1499 59.5 66.5C59.8417 65.6618 60.5084 65.3284 61.5 65.5Z" fill="#794015"/>
<path fill-rule="evenodd" clip-rule="evenodd" d="M19.5 66.5C20.9179 68.3079 22.9179 68.9746 25.5 68.5C23.3926 69.4682 21.0593 69.8016 18.5 69.5C18.2627 68.209 18.596 67.209 19.5 66.5Z" fill="#BDAA7E"/>
<path fill-rule="evenodd" clip-rule="evenodd" d="M49.5 70.5C42.3771 72.069 35.3771 71.7357 28.5 69.5C28.5 69.1667 28.5 68.8333 28.5 68.5C28.3691 67.6236 28.7025 66.9569 29.5 66.5C35.4333 69.4432 41.6 70.1099 48 68.5C49.0299 68.8361 49.5299 69.5028 49.5 70.5Z" fill="#F7EA72"/>
<path fill-rule="evenodd" clip-rule="evenodd" d="M51.5 65.5C52.4345 66.5676 52.7678 67.901 52.5 69.5C51.6618 69.8417 51.3284 70.5084 51.5 71.5C50.8333 71.5 50.5 71.1667 50.5 70.5C50.5 69.5 50.5 68.5 50.5 67.5C51.3382 67.1583 51.6716 66.4916 51.5 65.5Z" fill="#97812A"/>
<path fill-rule="evenodd" clip-rule="evenodd" d="M17.5 61.5C18.8333 61.5 19.5 62.1667 19.5 63.5C19.5 64.5 19.5 65.5 19.5 66.5C18.596 67.209 18.2627 68.209 18.5 69.5C21.0593 69.8016 23.3926 69.4682 25.5 68.5C25.8333 68.5 26.1667 68.5 26.5 68.5C26.8333 68.5 27.1667 68.5 27.5 68.5C27.7373 69.791 27.404 70.791 26.5 71.5C23.1667 71.5 19.8333 71.5 16.5 71.5C16.6159 68.1401 16.9492 64.8067 17.5 61.5Z" fill="#6B300F"/>
<path fill-rule="evenodd" clip-rule="evenodd" d="M71.5 35.5C74.546 36.062 77.546 36.7287 80.5 37.5C82.1677 51.2573 77.501 63.0907 66.5 73C54.8354 81.033 42.1687 83.1996 28.5 79.5C27.537 79.9698 27.537 80.6365 28.5 81.5C27.209 81.7373 26.209 81.404 25.5 80.5C26.7736 79.8106 26.7736 78.9772 25.5 78C13.1881 73.543 13.5214 71.3763 26.5 71.5C27.404 70.791 27.7373 69.791 27.5 68.5C27.8333 68.5 28.1667 68.5 28.5 68.5C28.5 68.8333 28.5 69.1667 28.5 69.5C28.8039 70.1499 29.1373 70.8165 29.5 71.5C35.1376 72.3299 40.8042 72.8299 46.5 73C43.8333 73.6667 41.1667 74.3333 38.5 75C39.8146 76.3946 39.4812 77.3946 37.5 78C39.1293 78.5855 40.6293 79.4188 42 80.5C44.3008 79.1996 46.3008 77.533 48 75.5C50.1986 76.6454 52.3652 76.6454 54.5 75.5C53.2643 74.6433 51.931 73.9766 50.5 73.5C49.6143 72.675 49.281 71.675 49.5 70.5C49.8333 70.5 50.1667 70.5 50.5 70.5C50.5 71.1667 50.8333 71.5 51.5 71.5C55.0187 72.8077 58.6853 72.8077 62.5 71.5C64.0521 69.0654 63.7188 67.0654 61.5 65.5C61.1667 64.8333 60.8333 64.1667 60.5 63.5C62.0174 63.4894 63.1841 62.8228 64 61.5C66.5052 57.2113 68.6718 52.878 70.5 48.5C71.4849 44.3656 71.8182 40.0323 71.5 35.5Z" fill="#D89C23"/>
<path fill-rule="evenodd" clip-rule="evenodd" d="M28.5 69.5C35.3771 71.7357 42.3771 72.069 49.5 70.5C49.281 71.675 49.6143 72.675 50.5 73.5C51.931 73.9766 53.2643 74.6433 54.5 75.5C52.3652 76.6454 50.1986 76.6454 48 75.5C46.3008 77.533 44.3008 79.1996 42 80.5C40.6293 79.4188 39.1293 78.5855 37.5 78C39.4812 77.3946 39.8146 76.3946 38.5 75C41.1667 74.3333 43.8333 73.6667 46.5 73C40.8042 72.8299 35.1376 72.3299 29.5 71.5C29.1373 70.8165 28.8039 70.1499 28.5 69.5Z" fill="#E2A92E"/>
<path fill-rule="evenodd" clip-rule="evenodd" d="M68.5 9.49997C70.371 9.8588 71.871 10.8588 73 12.5C77.8539 18.5444 81.3539 25.2111 83.5 32.5C83.5 38.5 83.5 44.5 83.5 50.5C78.8333 67.8333 67.8333 78.8333 50.5 83.5C44.5 83.5 38.5 83.5 32.5 83.5C31.1667 82.8333 29.8333 82.1667 28.5 81.5C27.537 80.6365 27.537 79.9698 28.5 79.5C42.1687 83.1996 54.8354 81.033 66.5 73C77.501 63.0907 82.1677 51.2573 80.5 37.5C80.7947 35.2646 80.4614 33.2646 79.5 31.5C78.969 28.763 78.1356 26.0964 77 23.5C76.3292 22.7476 75.4959 22.4142 74.5 22.5C74.5858 21.5041 74.2524 20.6708 73.5 20C68.0562 20.9361 64.7228 18.7694 63.5 13.5C62.3112 12.5713 60.9778 12.238 59.5 12.5C60.6413 10.9124 62.1413 9.57904 64 8.49997C65.3877 8.21436 66.8877 8.5477 68.5 9.49997Z" fill="#C48718"/>
</g>
<defs>
<clipPath id="clip0_2_585">
<rect width="84" height="84" fill="white"/>
</clipPath>
</defs>
</svg>
