<svg width="84" height="84" viewBox="0 0 84 84" fill="none" xmlns="http://www.w3.org/2000/svg">
<g clip-path="url(#clip0_2_321)">
<path fill-rule="evenodd" clip-rule="evenodd" d="M48.5 -0.5C49.1667 -0.5 49.8333 -0.5 50.5 -0.5C50.5 0.166667 50.8333 0.5 51.5 0.5C51.4142 1.4959 51.7476 2.32924 52.5 3C76.5095 12.3637 85.3428 29.5304 79 54.5C77.4082 58.0211 75.5749 61.3544 73.5 64.5C70.0983 65.4602 66.765 65.4602 63.5 64.5C63.5 63.1667 62.8333 62.5 61.5 62.5C61.5 62.1667 61.5 61.8333 61.5 61.5C62.4959 61.5858 63.3292 61.2524 64 60.5C66.3928 57.0478 68.2261 53.3811 69.5 49.5C70.3007 47.9582 70.634 46.2915 70.5 44.5C72.198 30.971 66.698 21.3043 54 15.5C53.2352 15.5699 52.7352 15.9033 52.5 16.5C50.228 15.277 49.0614 13.277 49 10.5C46.0052 7.73524 42.5052 6.90191 38.5 8C37.6198 9.35613 37.2865 10.8561 37.5 12.5C37.7373 13.791 37.404 14.791 36.5 15.5C36.5 14.5 36.5 13.5 36.5 12.5C33.3084 12.4045 30.3084 13.0712 27.5 14.5C27.1667 14.5 26.8333 14.5 26.5 14.5C25.8333 14.1667 25.1667 13.8333 24.5 13.5C23.4324 12.5655 22.099 12.2322 20.5 12.5C21.3984 11.8423 22.3984 11.1757 23.5 10.5C20.8742 9.55075 18.2075 9.55075 15.5 10.5C25.4434 3.00931 36.7768 -0.157361 49.5 1C48.944 0.617425 48.6107 0.117425 48.5 -0.5Z" fill="#BF5107"/>
<path fill-rule="evenodd" clip-rule="evenodd" d="M24.5 13.5C25.1667 13.8333 25.8333 14.1667 26.5 14.5C26.5 15.8333 25.8333 16.5 24.5 16.5C22.8212 16.2852 21.8212 16.9519 21.5 18.5C21.6309 19.3764 21.2975 20.0431 20.5 20.5C18.2887 15.8682 19.622 13.5349 24.5 13.5Z" fill="#591A15"/>
<path fill-rule="evenodd" clip-rule="evenodd" d="M36.5 15.4999C36.1667 15.4999 35.8333 15.4999 35.5 15.4999C32.994 16.7495 30.3274 17.4161 27.5 17.4999C27.5 16.4999 27.5 15.4999 27.5 14.4999C30.3084 13.0711 33.3084 12.4044 36.5 12.4999C36.5 13.4999 36.5 14.4999 36.5 15.4999Z" fill="#ED9444"/>
<path fill-rule="evenodd" clip-rule="evenodd" d="M49.5 17.5C49.5 18.8333 49.5 20.1667 49.5 21.5C50.5 21.5 51.5 21.5 52.5 21.5C55.192 23.8623 57.8587 26.1956 60.5 28.5C60.427 30.0269 61.0937 31.0269 62.5 31.5C62.5 34.5 62.5 37.5 62.5 40.5C61.8333 40.5 61.5 40.8333 61.5 41.5C61.0276 43.5313 60.0276 45.1979 58.5 46.5C57.0937 46.0269 56.427 45.0269 56.5 43.5C56.5 41.8333 56.5 40.1667 56.5 38.5C60.0132 38.1309 60.3465 36.7975 57.5 34.5C57.6085 32.4862 56.9418 30.8195 55.5 29.5C55.1164 27.7074 53.9497 26.7074 52 26.5C50.9701 26.8361 50.4701 27.5028 50.5 28.5C49.1542 32.3993 49.4875 36.0659 51.5 39.5C51.5 40.1667 51.5 40.8333 51.5 41.5C51.3455 44.716 52.3455 47.3826 54.5 49.5C54.5 49.8333 54.5 50.1667 54.5 50.5C54.9423 53.3426 55.9423 56.0093 57.5 58.5C57.9569 59.2975 58.6236 59.6309 59.5 59.5C60.0482 61.6264 60.7148 63.6264 61.5 65.5C61.5 66.8333 61.5 68.1667 61.5 69.5C59.8333 69.5 58.1667 69.5 56.5 69.5C56.5 68.1667 56.5 66.8333 56.5 65.5C54.5853 65.2155 52.9187 65.5489 51.5 66.5C46.5 66.5 41.5 66.5 36.5 66.5C34.7354 65.5386 32.7354 65.2053 30.5 65.5C30.5 66.8333 30.5 68.1667 30.5 69.5C28.2188 69.9227 26.5521 69.256 25.5 67.5C25.5 67.1667 25.5 66.8333 25.5 66.5C26.1239 66.0831 26.4573 65.4164 26.5 64.5C26.2528 63.2867 25.5862 62.62 24.5 62.5C23.391 62.4431 22.391 62.1098 21.5 61.5C19.6316 60.7368 17.9649 59.7368 16.5 58.5C15.8902 57.609 15.5569 56.609 15.5 55.5C15.8333 54.5 16.5 53.8333 17.5 53.5C20.1667 51.5 22.5 49.1667 24.5 46.5C27.0892 45.5806 29.0892 43.914 30.5 41.5C33.4002 38.7643 35.7335 35.5976 37.5 32C37.1667 31.1667 36.8333 30.3333 36.5 29.5C34.7774 32.6938 32.1107 34.3605 28.5 34.5C27.1667 34.1667 25.8333 33.8333 24.5 33.5C24.3359 30.8127 24.5026 28.146 25 25.5C25.2004 27.3197 26.0337 28.653 27.5 29.5C28.552 29.6495 29.552 29.4828 30.5 29C32.4524 26.5744 34.119 24.0744 35.5 21.5C36.8333 21.5 38.1667 21.5 39.5 21.5C39.5 19.8333 39.5 18.1667 39.5 16.5C39.062 10.6867 41.562 9.02 47 11.5C47.2365 13.8452 48.0698 15.8452 49.5 17.5Z" fill="#F9F8C5"/>
<path fill-rule="evenodd" clip-rule="evenodd" d="M20.5 12.5C18.6198 13.0782 17.6198 14.4115 17.5 16.5C17.8396 18.5122 18.1729 20.5122 18.5 22.5C11.8838 29.9096 9.71713 38.5763 12 48.5C12.2004 50.3197 13.0337 51.653 14.5 52.5C14.1667 53.1667 13.8333 53.8333 13.5 54.5C12.8333 54.5 12.5 54.8333 12.5 55.5C11.8365 57.0419 11.1698 58.7086 10.5 60.5C9.80762 59.9747 9.30762 59.3081 9 58.5C7.98873 59.3366 6.82207 59.67 5.5 59.5C5.10746 57.7162 4.4408 56.0495 3.5 54.5C-1.85812 37.2647 2.14188 22.598 15.5 10.5C18.2075 9.55077 20.8742 9.55077 23.5 10.5C22.3984 11.1757 21.3984 11.8423 20.5 12.5Z" fill="#C05205"/>
<path fill-rule="evenodd" clip-rule="evenodd" d="M38.5 16.5C38.8333 16.5 39.1667 16.5 39.5 16.5C39.5 18.1667 39.5 19.8333 39.5 21.5C38.1667 21.5 36.8333 21.5 35.5 21.5C36.209 20.596 37.209 20.2627 38.5 20.5C38.5 19.1667 38.5 17.8333 38.5 16.5Z" fill="#AE876E"/>
<path fill-rule="evenodd" clip-rule="evenodd" d="M53.5 18.5C58.5 20.8333 62.1667 24.5 64.5 29.5C64.815 33.3714 64.4816 37.0381 63.5 40.5C63.6655 36.4862 63.4988 32.4862 63 28.5C59.6291 25.2975 56.4625 21.9641 53.5 18.5Z" fill="#AB4419"/>
<path fill-rule="evenodd" clip-rule="evenodd" d="M52.5 16.5C53.3382 16.8417 53.6716 17.5084 53.5 18.5C56.4625 21.9641 59.6291 25.2975 63 28.5C63.4988 32.4862 63.6655 36.4862 63.5 40.5C63.1667 40.5 62.8333 40.5 62.5 40.5C62.5 37.5 62.5 34.5 62.5 31.5C62.573 29.9731 61.9063 28.9731 60.5 28.5C57.8587 26.1956 55.192 23.8623 52.5 21.5C51.3412 20.2597 50.3412 18.9264 49.5 17.5C48.0698 15.8452 47.2365 13.8452 47 11.5C41.562 9.02001 39.062 10.6867 39.5 16.5C39.1667 16.5 38.8333 16.5 38.5 16.5C38.7678 14.901 38.4345 13.5676 37.5 12.5C37.2865 10.8561 37.6198 9.3561 38.5 7.99997C42.5052 6.90188 46.0052 7.73521 49 10.5C49.0614 13.277 50.228 15.277 52.5 16.5Z" fill="#712C1C"/>
<path fill-rule="evenodd" clip-rule="evenodd" d="M49.5 17.5C50.3412 18.9264 51.3412 20.2597 52.5 21.5C51.5 21.5 50.5 21.5 49.5 21.5C49.5 20.1667 49.5 18.8333 49.5 17.5Z" fill="#AF8A6C"/>
<path fill-rule="evenodd" clip-rule="evenodd" d="M20.5 12.5C22.099 12.2322 23.4324 12.5655 24.5 13.5C19.622 13.5349 18.2887 15.8682 20.5 20.5C21.2975 20.0431 21.6309 19.3764 21.5 18.5C22.4345 19.5676 22.7678 20.901 22.5 22.5C21.5206 25.6248 21.1872 28.9581 21.5 32.5C20.5318 30.3926 20.1984 28.0593 20.5 25.5C20.7148 23.8212 20.0481 22.8212 18.5 22.5C18.1729 20.5122 17.8396 18.5122 17.5 16.5C17.6198 14.4115 18.6198 13.0782 20.5 12.5Z" fill="#9B4019"/>
<path fill-rule="evenodd" clip-rule="evenodd" d="M24.5 16.4999C25.119 20.9296 26.119 25.2629 27.5 29.4999C26.0337 28.6529 25.2004 27.3196 25 25.4999C24.5026 28.1459 24.3359 30.8127 24.5 33.5C23.8333 29.8333 23.1667 26.1666 22.5 22.4999C22.7678 20.9009 22.4345 19.5675 21.5 18.4999C21.8212 16.9518 22.8212 16.2851 24.5 16.4999Z" fill="#C9AF8B"/>
<path fill-rule="evenodd" clip-rule="evenodd" d="M37.5 12.5C38.4345 13.5676 38.7678 14.901 38.5 16.5C38.5 17.8333 38.5 19.1667 38.5 20.5C37.209 20.2627 36.209 20.596 35.5 21.5C34.119 24.0744 32.4524 26.5744 30.5 29C29.552 29.4828 28.552 29.6495 27.5 29.5C26.119 25.263 25.119 20.9297 24.5 16.5C25.8333 16.5 26.5 15.8333 26.5 14.5C26.8333 14.5 27.1667 14.5 27.5 14.5C27.5 15.5 27.5 16.5 27.5 17.5C28.0729 20.1466 28.7396 22.8133 29.5 25.5C31.5457 22.0547 33.5457 18.7214 35.5 15.5C35.8333 15.5 36.1667 15.5 36.5 15.5C37.404 14.791 37.7373 13.791 37.5 12.5Z" fill="#802614"/>
<path fill-rule="evenodd" clip-rule="evenodd" d="M35.5 15.5C33.5457 18.7214 31.5457 22.0547 29.5 25.5C28.7396 22.8133 28.0729 20.1466 27.5 17.5C30.3274 17.4162 32.994 16.7496 35.5 15.5Z" fill="#D06219"/>
<path fill-rule="evenodd" clip-rule="evenodd" d="M55.5 29.5C54.2921 28.7659 52.9587 28.4326 51.5 28.5C51.1667 28.5 50.8333 28.5 50.5 28.5C50.4701 27.5028 50.9701 26.8361 52 26.5C53.9497 26.7074 55.1164 27.7074 55.5 29.5Z" fill="#D9C59A"/>
<path fill-rule="evenodd" clip-rule="evenodd" d="M51.5 0.5C68.5326 4.86587 79.1992 15.5325 83.5 32.5C83.5 38.5 83.5 44.5 83.5 50.5C81.5073 57.4833 78.1739 63.8166 73.5 69.5C71.9557 69.7031 70.6223 70.3698 69.5 71.5C69.1667 71.1667 68.8333 70.8333 68.5 70.5C70.1897 68.4807 71.8564 66.4807 73.5 64.5C75.5749 61.3544 77.4082 58.0211 79 54.5C85.3428 29.5304 76.5095 12.3637 52.5 3C51.7476 2.32924 51.4142 1.4959 51.5 0.5Z" fill="#A83807"/>
<path fill-rule="evenodd" clip-rule="evenodd" d="M52.5 16.5C52.7352 15.9033 53.2352 15.5699 54 15.5C66.698 21.3043 72.198 30.971 70.5 44.5C70.4993 39.9968 69.666 35.6635 68 31.5C67.5172 32.448 67.3505 33.448 67.5 34.5C66.9348 32.58 65.9348 30.9133 64.5 29.5C62.1667 24.5 58.5 20.8333 53.5 18.5C53.6716 17.5084 53.3382 16.8417 52.5 16.5Z" fill="#EB9341"/>
<path fill-rule="evenodd" clip-rule="evenodd" d="M60.5 28.5C61.9063 28.9731 62.573 29.9731 62.5 31.5C61.0937 31.0269 60.427 30.0269 60.5 28.5Z" fill="#A68772"/>
<path fill-rule="evenodd" clip-rule="evenodd" d="M20.5 25.5C20.1984 28.0593 20.5318 30.3926 21.5 32.5C23.0555 35.0568 24.0555 37.8901 24.5 41C22.0118 44.3212 19.3451 47.4879 16.5 50.5C16.1667 50.5 15.8333 50.5 15.5 50.5C13.4154 42.0529 14.4154 34.0529 18.5 26.5C18.9569 25.7025 19.6236 25.3691 20.5 25.5Z" fill="#DA6E22"/>
<path fill-rule="evenodd" clip-rule="evenodd" d="M18.5 22.5C20.0481 22.8212 20.7148 23.8212 20.5 25.5C19.6236 25.3691 18.9569 25.7025 18.5 26.5C14.4154 34.0529 13.4154 42.0529 15.5 50.5C15.6716 51.4916 15.3382 52.1583 14.5 52.5C13.0337 51.653 12.2004 50.3197 12 48.5C9.71714 38.5763 11.8838 29.9096 18.5 22.5Z" fill="#EE9B4A"/>
<path fill-rule="evenodd" clip-rule="evenodd" d="M53.5 31.5C53.5 32.8333 53.5 34.1667 53.5 35.5C52.4138 35.38 51.7472 34.7133 51.5 33.5C51.7472 32.2867 52.4138 31.62 53.5 31.5Z" fill="#E38540"/>
<path fill-rule="evenodd" clip-rule="evenodd" d="M50.5 28.5C50.8333 28.5 51.1667 28.5 51.5 28.5C51.7822 29.7777 52.4489 30.7777 53.5 31.5C52.4138 31.62 51.7472 32.2867 51.5 33.5C51.7472 34.7133 52.4138 35.38 53.5 35.5C52.1938 36.4674 51.5271 37.8007 51.5 39.5C49.4875 36.0659 49.1542 32.3993 50.5 28.5Z" fill="#9A4D20"/>
<path fill-rule="evenodd" clip-rule="evenodd" d="M24.5 33.5C25.8333 33.8333 27.1667 34.1667 28.5 34.5C28.9227 36.7812 28.256 38.4479 26.5 39.5C26.7475 37.1417 26.0808 35.1417 24.5 33.5Z" fill="#C29D76"/>
<path fill-rule="evenodd" clip-rule="evenodd" d="M57.5 34.5C60.3465 36.7975 60.0132 38.1309 56.5 38.5C56.5 40.1667 56.5 41.8333 56.5 43.5C55.3349 42.5039 54.6682 41.1705 54.5 39.5C55.2665 37.6425 56.2665 35.9758 57.5 34.5Z" fill="#CFB285"/>
<path fill-rule="evenodd" clip-rule="evenodd" d="M30.5 41.5C29.8333 41.5 29.1667 41.5 28.5 41.5C27.8333 40.8333 27.1667 40.1667 26.5 39.5C28.256 38.4479 28.9227 36.7812 28.5 34.5C32.1107 34.3605 34.7774 32.6938 36.5 29.5C36.8333 30.3333 37.1667 31.1667 37.5 32C35.7335 35.5976 33.4002 38.7643 30.5 41.5Z" fill="#8E3F23"/>
<path fill-rule="evenodd" clip-rule="evenodd" d="M22.5 22.5C23.1667 26.1667 23.8333 29.8333 24.5 33.5C26.0808 35.1417 26.7475 37.1417 26.5 39.5C27.1667 40.1667 27.8333 40.8333 28.5 41.5C27.1667 43.1667 25.8333 44.8333 24.5 46.5C21.5726 47.7573 19.2393 49.7573 17.5 52.5C16.6618 52.1583 16.3284 51.4916 16.5 50.5C19.3451 47.4879 22.0118 44.3212 24.5 41C24.0555 37.8901 23.0555 35.0568 21.5 32.5C21.1872 28.9581 21.5206 25.6248 22.5 22.5Z" fill="#862917"/>
<path fill-rule="evenodd" clip-rule="evenodd" d="M70.5 44.5C70.634 46.2915 70.3007 47.9582 69.5 49.5C68.7784 49.9175 68.2784 50.5842 68 51.5C67.51 50.2068 67.3433 48.8734 67.5 47.5C68.8333 43.1667 68.8333 38.8333 67.5 34.5C67.3505 33.448 67.5172 32.448 68 31.5C69.666 35.6635 70.4993 39.9968 70.5 44.5Z" fill="#F6AD59"/>
<path fill-rule="evenodd" clip-rule="evenodd" d="M28.5 41.5C29.1667 41.5 29.8333 41.5 30.5 41.5C29.0892 43.914 27.0892 45.5806 24.5 46.5C25.8333 44.8333 27.1667 43.1667 28.5 41.5Z" fill="#E4CDA5"/>
<path fill-rule="evenodd" clip-rule="evenodd" d="M51.5 41.5C52.871 43.936 53.871 46.6027 54.5 49.5C52.3455 47.3826 51.3455 44.716 51.5 41.5Z" fill="#BC9764"/>
<path fill-rule="evenodd" clip-rule="evenodd" d="M51.5 28.5C52.9587 28.4326 54.2921 28.7659 55.5 29.5C56.9418 30.8195 57.6085 32.4862 57.5 34.5C56.2665 35.9758 55.2665 37.6425 54.5 39.5C54.6682 41.1705 55.3349 42.5039 56.5 43.5C56.427 45.0269 57.0937 46.0269 58.5 46.5C59.209 47.404 60.209 47.7373 61.5 47.5C61.5 45.5 61.5 43.5 61.5 41.5C61.5 40.8333 61.8333 40.5 62.5 40.5C62.8333 40.5 63.1667 40.5 63.5 40.5C63.6641 43.1873 63.4974 45.854 63 48.5C61.197 49.3134 59.697 50.4801 58.5 52C59.9056 53.978 60.9056 56.1447 61.5 58.5C61.5 59.5 61.5 60.5 61.5 61.5C61.5 61.8333 61.5 62.1667 61.5 62.5C61.5 63.5 61.5 64.5 61.5 65.5C60.7148 63.6264 60.0482 61.6264 59.5 59.5C58.5903 56.0078 56.9236 53.0078 54.5 50.5C54.5 50.1667 54.5 49.8333 54.5 49.5C53.871 46.6027 52.871 43.936 51.5 41.5C51.5 40.8333 51.5 40.1667 51.5 39.5C51.5271 37.8007 52.1938 36.4674 53.5 35.5C53.5 34.1667 53.5 32.8333 53.5 31.5C52.4489 30.7777 51.7822 29.7777 51.5 28.5Z" fill="#8A3316"/>
<path fill-rule="evenodd" clip-rule="evenodd" d="M61.5 41.5C61.5 43.5 61.5 45.5 61.5 47.5C60.209 47.7373 59.209 47.404 58.5 46.5C60.0276 45.1979 61.0276 43.5313 61.5 41.5Z" fill="#C8A881"/>
<path opacity="0.635" fill-rule="evenodd" clip-rule="evenodd" d="M32.5 -0.5C37.8333 -0.5 43.1667 -0.5 48.5 -0.5C48.6107 0.117425 48.944 0.617425 49.5 1C36.7768 -0.157361 25.4434 3.00931 15.5 10.5C2.14188 22.598 -1.85812 37.2647 3.5 54.5C2.59603 55.209 2.26269 56.209 2.5 57.5C1.3485 55.2209 0.348502 52.8876 -0.5 50.5C-0.5 44.5 -0.5 38.5 -0.5 32.5C4.16667 15.1667 15.1667 4.16667 32.5 -0.5Z" fill="#A73608"/>
<path fill-rule="evenodd" clip-rule="evenodd" d="M64.5 29.5C65.9348 30.9133 66.9348 32.58 67.5 34.5C68.8333 38.8333 68.8333 43.1667 67.5 47.5C66.826 51.8452 64.826 55.5118 61.5 58.5C60.9056 56.1447 59.9056 53.978 58.5 52C59.697 50.4801 61.197 49.3134 63 48.5C63.4974 45.854 63.6641 43.1873 63.5 40.5C64.4816 37.0381 64.815 33.3714 64.5 29.5Z" fill="#E07626"/>
<path fill-rule="evenodd" clip-rule="evenodd" d="M24.5 46.5C22.5 49.1667 20.1667 51.5 17.5 53.5C17.5 53.1667 17.5 52.8333 17.5 52.5C19.2393 49.7573 21.5726 47.7573 24.5 46.5Z" fill="#D2B393"/>
<path fill-rule="evenodd" clip-rule="evenodd" d="M67.5 47.5C67.3433 48.8734 67.51 50.2068 68 51.5C68.2784 50.5842 68.7784 49.9175 69.5 49.5C68.2261 53.3811 66.3928 57.0478 64 60.5C63.3292 61.2524 62.4959 61.5858 61.5 61.5C61.5 60.5 61.5 59.5 61.5 58.5C64.826 55.5118 66.826 51.8452 67.5 47.5Z" fill="#ED9949"/>
<path fill-rule="evenodd" clip-rule="evenodd" d="M15.5 50.5C15.8333 50.5 16.1667 50.5 16.5 50.5C16.3284 51.4916 16.6618 52.1583 17.5 52.5C17.5 52.8333 17.5 53.1667 17.5 53.5C16.5 53.8333 15.8333 54.5 15.5 55.5C15.1667 55.5 14.8333 55.5 14.5 55.5C14.5 54.8333 14.1667 54.5 13.5 54.5C13.8333 53.8333 14.1667 53.1667 14.5 52.5C15.3382 52.1583 15.6716 51.4916 15.5 50.5Z" fill="#8B4F22"/>
<path fill-rule="evenodd" clip-rule="evenodd" d="M54.5 50.5C56.9236 53.0078 58.5903 56.0078 59.5 59.5C58.6236 59.6309 57.9569 59.2975 57.5 58.5C55.9423 56.0093 54.9423 53.3426 54.5 50.5Z" fill="#D4BC9D"/>
<path fill-rule="evenodd" clip-rule="evenodd" d="M14.5 55.5C14.8333 55.5 15.1667 55.5 15.5 55.5C15.5569 56.609 15.8902 57.609 16.5 58.5C14.9519 58.1788 14.2852 57.1788 14.5 55.5Z" fill="#A3836B"/>
<path fill-rule="evenodd" clip-rule="evenodd" d="M13.5 54.5C14.1667 54.5 14.5 54.8333 14.5 55.5C14.2852 57.1788 14.9519 58.1788 16.5 58.5C17.9649 59.7368 19.6316 60.7368 21.5 61.5C21.5 62.1667 21.5 62.8333 21.5 63.5C18.8602 63.046 16.5268 61.8793 14.5 60C12.9632 58.8904 12.2965 57.3904 12.5 55.5C12.5 54.8333 12.8333 54.5 13.5 54.5Z" fill="#722513"/>
<path fill-rule="evenodd" clip-rule="evenodd" d="M21.5 61.5C22.391 62.1098 23.391 62.4431 24.5 62.5C25.1098 63.391 25.4431 64.391 25.5 65.5C24.391 65.5569 23.391 65.8902 22.5 66.5C22.4431 65.391 22.1098 64.391 21.5 63.5C21.5 62.8333 21.5 62.1667 21.5 61.5Z" fill="#943E10"/>
<path fill-rule="evenodd" clip-rule="evenodd" d="M24.5 62.5C25.5862 62.62 26.2528 63.2867 26.5 64.5C26.4573 65.4164 26.1239 66.0831 25.5 66.5C25.5 66.1667 25.5 65.8333 25.5 65.5C25.4431 64.391 25.1098 63.391 24.5 62.5Z" fill="#C2A577"/>
<path fill-rule="evenodd" clip-rule="evenodd" d="M12.5 55.5C12.2965 57.3904 12.9632 58.8904 14.5 60C16.5268 61.8793 18.8602 63.046 21.5 63.5C22.1098 64.391 22.4431 65.391 22.5 66.5C22.5 68.1667 22.5 69.8333 22.5 71.5C24.134 72.1611 25.9674 72.4944 28 72.5C30.2953 72.4535 32.1286 71.7868 33.5 70.5C33.8333 70.5 34.1667 70.5 34.5 70.5C36.134 71.1611 37.9674 71.4944 40 71.5C42.2953 71.4535 44.1286 70.7868 45.5 69.5C47.5 69.5 49.5 69.5 51.5 69.5C52.1667 70.1667 52.8333 70.8333 53.5 71.5C56.6399 72.6408 59.9733 72.8075 63.5 72C64.6489 69.5408 64.6489 67.0408 63.5 64.5C66.765 65.4602 70.0983 65.4602 73.5 64.5C71.8564 66.4807 70.1897 68.4807 68.5 70.5C68.8333 70.8333 69.1667 71.1667 69.5 71.5C70.6223 70.3698 71.9557 69.7031 73.5 69.5C71.0515 72.5558 68.0515 74.8892 64.5 76.5C65.2899 75.2058 66.2899 74.0391 67.5 73C67.1667 72.8333 66.8333 72.6667 66.5 72.5C49.3367 83.3011 32.3367 83.1345 15.5 72C11.3169 68.4413 7.98353 64.2747 5.5 59.5C6.82207 59.67 7.98873 59.3366 9 58.5C9.30762 59.3081 9.80762 59.9747 10.5 60.5C11.1698 58.7086 11.8365 57.0419 12.5 55.5Z" fill="#B64805"/>
<path fill-rule="evenodd" clip-rule="evenodd" d="M25.5 65.5C25.5 65.8333 25.5 66.1667 25.5 66.5C25.5 66.8333 25.5 67.1667 25.5 67.5C24.596 68.209 24.2627 69.209 24.5 70.5C27.0593 70.8016 29.3926 70.4682 31.5 69.5C31.8333 69.5 32.1667 69.5 32.5 69.5C29.6627 71.4023 26.3293 72.069 22.5 71.5C22.5 69.8333 22.5 68.1667 22.5 66.5C23.391 65.8902 24.391 65.5569 25.5 65.5Z" fill="#4B1511"/>
<path fill-rule="evenodd" clip-rule="evenodd" d="M51.5 66.5C52.9187 65.5489 54.5853 65.2155 56.5 65.5C56.5 66.8333 56.5 68.1667 56.5 69.5C58.1667 69.5 59.8333 69.5 61.5 69.5C61.5 68.1667 61.5 66.8333 61.5 65.5C62.4511 66.9187 62.7845 68.5853 62.5 70.5C60.1667 70.5 57.8333 70.5 55.5 70.5C55.5 69.1667 55.5 67.8333 55.5 66.5C54.1667 66.5 52.8333 66.5 51.5 66.5Z" fill="#AE9779"/>
<path fill-rule="evenodd" clip-rule="evenodd" d="M25.5 67.5C26.5521 69.256 28.2188 69.9227 30.5 69.5C30.8333 69.5 31.1667 69.5 31.5 69.5C29.3926 70.4682 27.0593 70.8016 24.5 70.5C24.2627 69.209 24.596 68.209 25.5 67.5Z" fill="#9B866C"/>
<path fill-rule="evenodd" clip-rule="evenodd" d="M51.5 66.5C52.8333 66.5 54.1667 66.5 55.5 66.5C55.5 67.8333 55.5 69.1667 55.5 70.5C54.0335 67.7417 53.3668 68.075 53.5 71.5C52.8333 70.8333 52.1667 70.1667 51.5 69.5C48.6862 68.8353 45.6862 68.502 42.5 68.5C39.0866 68.517 36.0866 69.1836 33.5 70.5C32.1286 71.7868 30.2953 72.4535 28 72.5C25.9674 72.4944 24.134 72.1611 22.5 71.5C26.3293 72.069 29.6627 71.4023 32.5 69.5C38.6014 67.8511 44.9347 66.8511 51.5 66.5Z" fill="#6F2410"/>
<path fill-rule="evenodd" clip-rule="evenodd" d="M45.5 69.5C44.1286 70.7868 42.2953 71.4535 40 71.5C37.9674 71.4944 36.134 71.1611 34.5 70.5C37.9619 69.5184 41.6286 69.185 45.5 69.5Z" fill="#DA7530"/>
<path fill-rule="evenodd" clip-rule="evenodd" d="M51.5 69.5C49.5 69.5 47.5 69.5 45.5 69.5C41.6286 69.185 37.9619 69.5184 34.5 70.5C34.1667 70.5 33.8333 70.5 33.5 70.5C36.0866 69.1836 39.0866 68.517 42.5 68.5C45.6862 68.502 48.6862 68.8353 51.5 69.5Z" fill="#993F19"/>
<path fill-rule="evenodd" clip-rule="evenodd" d="M36.5 66.5C41.5 66.5 46.5 66.5 51.5 66.5C44.9347 66.8511 38.6014 67.8511 32.5 69.5C32.1667 69.5 31.8333 69.5 31.5 69.5C31.5 68.5 31.5 67.5 31.5 66.5C33.1667 66.5 34.8333 66.5 36.5 66.5Z" fill="#966C53"/>
<path fill-rule="evenodd" clip-rule="evenodd" d="M36.5 66.5C34.8333 66.5 33.1667 66.5 31.5 66.5C31.5 67.5 31.5 68.5 31.5 69.5C31.1667 69.5 30.8333 69.5 30.5 69.5C30.5 68.1667 30.5 66.8333 30.5 65.5C32.7354 65.2053 34.7354 65.5386 36.5 66.5Z" fill="#CAB48E"/>
<path fill-rule="evenodd" clip-rule="evenodd" d="M61.5 62.5C62.8333 62.5 63.5 63.1667 63.5 64.5C64.6489 67.0408 64.6489 69.5408 63.5 72C59.9733 72.8075 56.6399 72.6408 53.5 71.5C53.3668 68.075 54.0335 67.7417 55.5 70.5C57.8333 70.5 60.1667 70.5 62.5 70.5C62.7845 68.5853 62.4511 66.9187 61.5 65.5C61.5 64.5 61.5 63.5 61.5 62.5Z" fill="#5C1810"/>
<path fill-rule="evenodd" clip-rule="evenodd" d="M3.50001 54.5C4.44081 56.0495 5.10747 57.7162 5.50001 59.5C7.98354 64.2747 11.3169 68.4413 15.5 72C32.3367 83.1345 49.3367 83.3011 66.5 72.5C66.8333 72.6667 67.1667 72.8333 67.5 73C66.2899 74.0391 65.2899 75.2058 64.5 76.5C54.4859 81.7022 43.8192 83.7022 32.5 82.5C20.4999 80.2513 11.3332 73.9179 5.00001 63.5C3.87804 61.5932 3.0447 59.5932 2.50001 57.5C2.2627 56.209 2.59604 55.209 3.50001 54.5Z" fill="#9C2B06"/>
<path opacity="0.927" fill-rule="evenodd" clip-rule="evenodd" d="M64.5 76.5C60.3493 79.9087 55.6827 82.242 50.5 83.5C44.5 83.5 38.5 83.5 32.5 83.5C32.5 83.1667 32.5 82.8333 32.5 82.5C43.8192 83.7022 54.4859 81.7022 64.5 76.5Z" fill="#AD3F08"/>
</g>
<defs>
<clipPath id="clip0_2_321">
<rect width="84" height="84" fill="white"/>
</clipPath>
</defs>
</svg>
