<svg width="84" height="84" viewBox="0 0 84 84" fill="none" xmlns="http://www.w3.org/2000/svg">
<g clip-path="url(#clip0_2_194)">
<path fill-rule="evenodd" clip-rule="evenodd" d="M32.5 -0.5C38.5 -0.5 44.5 -0.5 50.5 -0.5C67.8333 4.16667 78.8333 15.1667 83.5 32.5C83.5 38.5 83.5 44.5 83.5 50.5C78.8333 67.8333 67.8333 78.8333 50.5 83.5C44.5 83.5 38.5 83.5 32.5 83.5C15.1667 78.8333 4.16667 67.8333 -0.5 50.5C-0.5 44.5 -0.5 38.5 -0.5 32.5C4.16667 15.1667 15.1667 4.16667 32.5 -0.5Z" fill="#891608"/>
<path fill-rule="evenodd" clip-rule="evenodd" d="M53.5 24.5C54.5 24.8333 55.1667 25.5 55.5 26.5C55.6332 29.925 54.9665 30.2583 53.5 27.5C53.1667 26.8333 52.8333 26.1667 52.5 25.5C52.5 24.8333 52.8333 24.5 53.5 24.5Z" fill="#373327"/>
<path fill-rule="evenodd" clip-rule="evenodd" d="M30.5 16.5C31.4884 17.795 32.4884 19.1283 33.5 20.5C34.1098 21.391 34.4431 22.391 34.5 23.5C32.6921 24.9179 32.0254 26.9179 32.5 29.5C31.8826 29.3893 31.3826 29.056 31 28.5C30.5012 24.5138 30.3345 20.5138 30.5 16.5Z" fill="#652B21"/>
<path fill-rule="evenodd" clip-rule="evenodd" d="M24.5 17.5C20.8169 20.1849 17.8169 23.5182 15.5 27.5C14.596 28.209 14.2627 29.209 14.5 30.5C13.5 30.5 12.5 30.5 11.5 30.5C11.5 32.5 11.5 34.5 11.5 36.5C11.5 38.8333 11.5 41.1667 11.5 43.5C9.1998 41.7982 6.53313 41.1315 3.5 41.5C3.95401 38.8602 5.12067 36.5268 7 34.5C7.98653 31.3033 7.48653 28.4699 5.5 26C5.95735 25.586 6.29069 25.086 6.5 24.5C9.27808 22.9745 12.2781 21.9745 15.5 21.5C16.3333 20.5 17.1667 19.5 18 18.5C18.3333 18.8333 18.6667 19.1667 19 19.5C20.4007 17.8078 22.2341 17.1412 24.5 17.5Z" fill="#AE3213"/>
<path fill-rule="evenodd" clip-rule="evenodd" d="M66.5 21.5001C67.9778 21.2381 69.3112 21.5714 70.5 22.5001C69.4756 23.8519 68.4756 25.1852 67.5 26.5001C67.1667 26.5001 66.8333 26.5001 66.5 26.5001C66.5 24.8334 66.5 23.1668 66.5 21.5001Z" fill="#D2BE8B"/>
<path fill-rule="evenodd" clip-rule="evenodd" d="M63.5 18.5C63.5 20.5 64.5 21.5 66.5 21.5C66.5 23.1667 66.5 24.8333 66.5 26.5C63.1599 31.702 59.8266 31.702 56.5 26.5C56.1667 26.5 55.8333 26.5 55.5 26.5C55.1667 25.5 54.5 24.8333 53.5 24.5C53.3893 23.8826 53.056 23.3826 52.5 23C53.4158 22.7216 54.0825 22.2216 54.5 21.5C56.3797 21.7709 57.713 21.1042 58.5 19.5C58.5 19.1667 58.5 18.8333 58.5 18.5C58.8333 18.5 59.1667 18.5 59.5 18.5C60.8333 17.1667 62.1667 17.1667 63.5 18.5Z" fill="#F7E9A6"/>
<path fill-rule="evenodd" clip-rule="evenodd" d="M26.5 17.5C27.4584 17.9528 28.2917 18.6195 29 19.5C29.0489 24.0222 29.8822 28.3556 31.5 32.5C27.7611 34.118 24.4278 33.618 21.5 31C19.1902 30.5034 16.8568 30.3367 14.5 30.5C14.2627 29.209 14.596 28.209 15.5 27.5C15.5173 29.0281 16.184 29.5281 17.5 29C20.7385 25.2724 23.7385 21.4391 26.5 17.5Z" fill="#C44C2E"/>
<path fill-rule="evenodd" clip-rule="evenodd" d="M49.5 18.5C50.1667 18.8333 50.8333 19.1667 51.5 19.5C51.9731 20.9063 52.9731 21.573 54.5 21.5C54.0825 22.2216 53.4158 22.7216 52.5 23C53.056 23.3826 53.3893 23.8826 53.5 24.5C52.8333 24.5 52.5 24.8333 52.5 25.5C49.9078 23.9639 48.9078 21.6305 49.5 18.5Z" fill="#8C8A5D"/>
<path fill-rule="evenodd" clip-rule="evenodd" d="M24.5 17.5C25.1667 17.5 25.8333 17.5 26.5 17.5C23.7385 21.4391 20.7385 25.2724 17.5 29C16.184 29.5281 15.5173 29.0281 15.5 27.5C17.8169 23.5182 20.8169 20.1849 24.5 17.5Z" fill="#ED7E5C"/>
<path fill-rule="evenodd" clip-rule="evenodd" d="M33.5 20.5C35.5518 21.0527 35.8852 22.0527 34.5 23.5C34.4431 22.391 34.1098 21.391 33.5 20.5Z" fill="#B1A07A"/>
<path fill-rule="evenodd" clip-rule="evenodd" d="M73.5 24.5C71.9826 24.5106 70.8159 25.1772 70 26.5C69.6667 28.5 69.3333 30.5 69 32.5C68.7216 31.5842 68.2216 30.9175 67.5 30.5C67.5 29.1667 67.5 27.8333 67.5 26.5C68.4756 25.1851 69.4756 23.8518 70.5 22.5C69.3112 21.5713 67.9778 21.238 66.5 21.5C64.5 21.5 63.5 20.5 63.5 18.5C62.1667 14.5 60.8333 14.5 59.5 18.5C59.1667 18.5 58.8333 18.5 58.5 18.5C58.1241 15.3807 59.2908 13.0474 62 11.5C62.772 11.6448 63.4387 11.9781 64 12.5C64.7487 18.0792 67.9154 20.4125 73.5 19.5C73.5 21.1667 73.5 22.8333 73.5 24.5Z" fill="#3F1310"/>
<path fill-rule="evenodd" clip-rule="evenodd" d="M54.5 21.5C52.9731 21.573 51.9731 20.9063 51.5 19.5C53.3318 18.2819 54.3318 18.9486 54.5 21.5Z" fill="#281410"/>
<path fill-rule="evenodd" clip-rule="evenodd" d="M63.5 18.5C62.1667 17.1667 60.8333 17.1667 59.5 18.5C60.8333 14.5 62.1667 14.5 63.5 18.5Z" fill="#AC9D82"/>
<path fill-rule="evenodd" clip-rule="evenodd" d="M42.5 15.5C42.8333 15.5 43.1667 15.5 43.5 15.5C43.8333 15.5 44.1667 15.5 44.5 15.5C48.4031 15.6908 52.0698 16.6908 55.5 18.5C55.8417 19.3382 56.5084 19.6716 57.5 19.5C57.8333 19.5 58.1667 19.5 58.5 19.5C57.713 21.1042 56.3797 21.7709 54.5 21.5C54.3318 18.9486 53.3318 18.2819 51.5 19.5C50.8333 19.1667 50.1667 18.8333 49.5 18.5C48.1667 18.5 46.8333 18.5 45.5 18.5C44.5 18.5 43.5 18.5 42.5 18.5C42.5 17.5 42.5 16.5 42.5 15.5Z" fill="#64261D"/>
<path fill-rule="evenodd" clip-rule="evenodd" d="M39.5 10.5C39.427 12.0269 40.0937 13.0269 41.5 13.5C41.5 15.5 41.5 17.5 41.5 19.5C43.099 19.7678 44.4324 19.4345 45.5 18.5C46.8333 18.5 48.1667 18.5 49.5 18.5C48.9078 21.6305 49.9078 23.9639 52.5 25.5C52.8333 26.1667 53.1667 26.8333 53.5 27.5C53.5 30.5 53.5 33.5 53.5 36.5C51.2699 38.5351 50.9365 40.8684 52.5 43.5C52.5 44.8333 52.5 46.1667 52.5 47.5C56.1667 47.5 59.8333 47.5 63.5 47.5C65.1667 48.1667 66.8333 48.8333 68.5 49.5C69.1667 49.5 69.5 49.8333 69.5 50.5C69.5 53.1667 69.5 55.8333 69.5 58.5C68.2921 59.2341 66.9587 59.5674 65.5 59.5C65.7135 57.8561 65.3802 56.3561 64.5 55C60.0341 52.4108 55.3675 51.9108 50.5 53.5C49.1015 51.1266 47.7682 48.6266 46.5 46C44.8659 45.5065 43.1992 45.3398 41.5 45.5C40.448 45.6495 39.448 45.4828 38.5 45C37.4677 43.3732 36.1344 42.2066 34.5 41.5C33.1667 41.5 31.8333 41.5 30.5 41.5C27.0897 41.6162 25.7564 39.9496 26.5 36.5C28.7354 36.7947 30.7354 36.4614 32.5 35.5C35.0186 33.6409 35.0186 31.6409 32.5 29.5C32.0254 26.9179 32.6921 24.9179 34.5 23.5C35.8852 22.0527 35.5518 21.0527 33.5 20.5C32.4884 19.1283 31.4884 17.795 30.5 16.5C30.5 16.1667 30.5 15.8333 30.5 15.5C31.1667 14.1667 31.8333 12.8333 32.5 11.5C34.7638 10.7814 37.0971 10.448 39.5 10.5Z" fill="#F7F5C3"/>
<path fill-rule="evenodd" clip-rule="evenodd" d="M56.5 26.5C59.8266 31.702 63.1599 31.702 66.5 26.5C66.9746 29.0821 66.3079 31.0821 64.5 32.5C61.7837 30.9139 59.4503 31.2472 57.5 33.5C57.1667 33.5 56.8333 33.5 56.5 33.5C55.8968 31.3743 55.8968 29.0409 56.5 26.5Z" fill="#E2C88B"/>
<path fill-rule="evenodd" clip-rule="evenodd" d="M66.5 26.5C66.8333 26.5 67.1667 26.5 67.5 26.5C67.5 27.8333 67.5 29.1667 67.5 30.5C67.7148 32.1788 67.0481 33.1788 65.5 33.5C64.8333 33.5 64.5 33.1667 64.5 32.5C66.3079 31.0821 66.9746 29.0821 66.5 26.5Z" fill="#A67350"/>
<path fill-rule="evenodd" clip-rule="evenodd" d="M55.5 26.5C55.8333 26.5 56.1667 26.5 56.5 26.5C55.8968 29.0409 55.8968 31.3743 56.5 33.5C55.4489 34.2223 54.7822 35.2223 54.5 36.5C54.1667 36.5 53.8333 36.5 53.5 36.5C53.5 33.5 53.5 30.5 53.5 27.5C54.9665 30.2583 55.6332 29.925 55.5 26.5Z" fill="#89835B"/>
<path fill-rule="evenodd" clip-rule="evenodd" d="M64.5 32.5C64.5 33.1667 64.8333 33.5 65.5 33.5C68.2583 34.9665 67.925 35.6332 64.5 35.5C63.8333 35.5 63.5 35.1667 63.5 34.5C62.0813 33.5489 60.4147 33.2155 58.5 33.5C58.1667 33.5 57.8333 33.5 57.5 33.5C59.4503 31.2472 61.7837 30.9139 64.5 32.5Z" fill="#551D16"/>
<path fill-rule="evenodd" clip-rule="evenodd" d="M26.5 13.5C26.8041 15.7957 27.8041 16.129 29.5 14.5C29.5 15.1667 29.8333 15.5 30.5 15.5C30.5 15.8333 30.5 16.1667 30.5 16.5C30.3345 20.5138 30.5012 24.5138 31 28.5C31.3826 29.056 31.8826 29.3893 32.5 29.5C35.0186 31.6409 35.0186 33.6409 32.5 35.5C28.2576 35.9208 24.2576 35.2541 20.5 33.5C19.0813 32.5489 17.4147 32.2155 15.5 32.5C14.5655 33.5676 14.2322 34.901 14.5 36.5C13.5 36.5 12.5 36.5 11.5 36.5C11.5 34.5 11.5 32.5 11.5 30.5C12.5 30.5 13.5 30.5 14.5 30.5C16.8568 30.3367 19.1902 30.5034 21.5 31C24.4278 33.618 27.7611 34.118 31.5 32.5C29.8822 28.3556 29.0489 24.0222 29 19.5C28.2917 18.6195 27.4584 17.9528 26.5 17.5C25.3143 16.0387 25.3143 14.7054 26.5 13.5Z" fill="#782317"/>
<path fill-rule="evenodd" clip-rule="evenodd" d="M15.5 32.5C17.4147 32.2155 19.0813 32.5489 20.5 33.5C19.1266 33.3433 17.7932 33.51 16.5 34C17.056 34.3826 17.3893 34.8826 17.5 35.5C15.9519 35.1788 15.2852 34.1788 15.5 32.5Z" fill="#BC9B7E"/>
<path fill-rule="evenodd" clip-rule="evenodd" d="M56.5 33.5C56.8333 33.5 57.1667 33.5 57.5 33.5C57.8333 33.5 58.1667 33.5 58.5 33.5C58.573 35.0269 57.9063 36.0269 56.5 36.5C55.8333 36.5 55.1667 36.5 54.5 36.5C54.7822 35.2223 55.4489 34.2223 56.5 33.5Z" fill="#2C1710"/>
<path fill-rule="evenodd" clip-rule="evenodd" d="M73.5 24.5C72.8783 25.6266 72.045 26.6266 71 27.5C70.9434 30.8112 70.1101 33.8112 68.5 36.5C66.901 36.7678 65.5676 36.4345 64.5 35.5C67.925 35.6332 68.2583 34.9665 65.5 33.5C67.0481 33.1788 67.7148 32.1788 67.5 30.5C68.2216 30.9175 68.7216 31.5842 69 32.5C69.3333 30.5 69.6667 28.5 70 26.5C70.8159 25.1772 71.9826 24.5106 73.5 24.5Z" fill="#721911"/>
<path fill-rule="evenodd" clip-rule="evenodd" d="M15.5 32.5C15.2852 34.1788 15.9519 35.1788 17.5 35.5C18.4363 36.9744 19.7697 37.9744 21.5 38.5C22.5 39.1667 23.5 39.8333 24.5 40.5C21.8915 40.5997 19.5582 39.9331 17.5 38.5C16.391 38.4431 15.391 38.1098 14.5 37.5C14.5 37.1667 14.5 36.8333 14.5 36.5C14.2322 34.901 14.5655 33.5676 15.5 32.5Z" fill="#621C15"/>
<path fill-rule="evenodd" clip-rule="evenodd" d="M20.5 33.5001C24.2576 35.2542 28.2576 35.9209 32.5 35.5001C30.7354 36.4615 28.7354 36.7948 26.5 36.5001C25.7564 39.9497 27.0897 41.6163 30.5 41.5001C28.5453 42.9303 26.8786 42.597 25.5 40.5001C24.8166 38.8236 23.4832 38.1569 21.5 38.5001C19.7697 37.9745 18.4363 36.9745 17.5 35.5001C17.3893 34.8827 17.056 34.3827 16.5 34.0001C17.7932 33.5101 19.1266 33.3434 20.5 33.5001Z" fill="#E0D0A6"/>
<path fill-rule="evenodd" clip-rule="evenodd" d="M58.5 33.5C60.4147 33.2155 62.0813 33.5489 63.5 34.5C61.901 34.2322 60.5676 34.5655 59.5 35.5C58.4154 37.5869 56.7488 38.9202 54.5 39.5C54.7822 38.2223 55.4489 37.2223 56.5 36.5C57.9063 36.0269 58.573 35.0269 58.5 33.5Z" fill="#8C2B21"/>
<path fill-rule="evenodd" clip-rule="evenodd" d="M21.5 38.4999C23.4832 38.1567 24.8166 38.8234 25.5 40.4999C25.1667 40.4999 24.8333 40.4999 24.5 40.4999C23.5 39.8332 22.5 39.1666 21.5 38.4999Z" fill="#8D5F4A"/>
<path fill-rule="evenodd" clip-rule="evenodd" d="M59.5 35.5C60.5 35.5 61.5 35.5 62.5 35.5C63.0916 38.1272 63.4249 40.7938 63.5 43.5C60.8333 43.5 58.1667 43.5 55.5 43.5C54.7659 42.2921 54.4326 40.9587 54.5 39.5C56.7488 38.9202 58.4154 37.5869 59.5 35.5Z" fill="#C84C2C"/>
<path fill-rule="evenodd" clip-rule="evenodd" d="M57.5 19.5C56.5084 19.6716 55.8417 19.3382 55.5 18.5C56.0431 18.44 56.3764 18.1067 56.5 17.5C53.559 15.261 50.2257 13.9277 46.5 13.5C45.2867 13.7472 44.62 14.4138 44.5 15.5C44.1667 15.5 43.8333 15.5 43.5 15.5C43.6621 13.4727 43.4955 11.4727 43 9.49998C42.1841 8.17721 41.0174 7.51054 39.5 7.49998C37.1432 7.33667 34.8098 7.50333 32.5 7.99998C30.3039 9.69932 28.3039 11.5327 26.5 13.5C25.3143 14.7054 25.3143 16.0387 26.5 17.5C25.8333 17.5 25.1667 17.5 24.5 17.5C22.2341 17.1412 20.4007 17.8078 19 19.5C18.6667 19.1667 18.3333 18.8333 18 18.5C17.1667 19.5 16.3333 20.5 15.5 21.5C12.2781 21.9745 9.27805 22.9745 6.49997 24.5C6.29066 25.086 5.95732 25.586 5.49997 26C7.4865 28.4699 7.9865 31.3033 6.99997 34.5C5.12064 36.5268 3.95398 38.8602 3.49997 41.5C6.5331 41.1315 9.19977 41.7982 11.5 43.5C11.8357 50.8474 14.5024 57.1808 19.5 62.5C18.5041 62.4142 17.6708 62.7476 17 63.5C16.235 65.0657 16.4017 66.3991 17.5 67.5C18.2899 68.7942 19.2899 69.9609 20.5 71C24.1135 71.9358 27.7802 72.4358 31.5 72.5C26.8982 73.2458 22.2315 73.5792 17.5 73.5C12.4959 70.6618 8.66254 66.6618 5.99997 61.5C-3.95651 37.2724 2.21016 18.439 24.5 4.99998C34.0303 2.3848 43.697 1.8848 53.5 3.49998C56.9405 6.04335 60.6072 8.21002 64.5 9.99998C58.9574 10.7184 56.624 13.8851 57.5 19.5Z" fill="#A02608"/>
<path fill-rule="evenodd" clip-rule="evenodd" d="M41.5 13.5C41.8333 13.5 42.1667 13.5 42.5 13.5C42.5 14.1667 42.5 14.8333 42.5 15.5C42.5 16.5 42.5 17.5 42.5 18.5C43.5 18.5 44.5 18.5 45.5 18.5C44.4324 19.4345 43.099 19.7678 41.5 19.5C41.5 17.5 41.5 15.5 41.5 13.5Z" fill="#9F7E65"/>
<path fill-rule="evenodd" clip-rule="evenodd" d="M55.5 18.5C52.0698 16.6908 48.4031 15.6908 44.5 15.5C44.62 14.4138 45.2867 13.7472 46.5 13.5C50.2257 13.9277 53.559 15.261 56.5 17.5C56.3764 18.1067 56.0431 18.44 55.5 18.5Z" fill="#DE6B51"/>
<path fill-rule="evenodd" clip-rule="evenodd" d="M32.5 11.5C31.8333 12.8333 31.1667 14.1667 30.5 15.5C29.8333 15.5 29.5 15.1667 29.5 14.5C29.8564 12.8102 30.8564 11.8102 32.5 11.5Z" fill="#B1A688"/>
<path fill-rule="evenodd" clip-rule="evenodd" d="M39.5 7.5C41.0174 7.51056 42.1841 8.17723 43 9.5C43.4955 11.4727 43.6621 13.4727 43.5 15.5C43.1667 15.5 42.8333 15.5 42.5 15.5C42.5 14.8333 42.5 14.1667 42.5 13.5C42.385 11.0532 41.385 9.05322 39.5 7.5Z" fill="#78190C"/>
<path fill-rule="evenodd" clip-rule="evenodd" d="M39.5 7.49995C41.385 9.05317 42.385 11.0532 42.5 13.5C42.1667 13.5 41.8333 13.5 41.5 13.5C41.573 11.9731 40.9063 10.9731 39.5 10.5C38.7261 9.85282 37.7261 9.51949 36.5 9.49995C34.6455 9.34019 33.3121 10.0069 32.5 11.5C30.8564 11.8102 29.8564 12.8102 29.5 14.5C27.8041 16.129 26.8041 15.7957 26.5 13.5C28.3039 11.5327 30.3039 9.69929 32.5 7.99995C34.8098 7.5033 37.1432 7.33664 39.5 7.49995Z" fill="#3C100E"/>
<path fill-rule="evenodd" clip-rule="evenodd" d="M39.5 10.5C40.9063 10.9731 41.573 11.9731 41.5 13.5C40.0937 13.0269 39.427 12.0269 39.5 10.5Z" fill="#9B876D"/>
<path fill-rule="evenodd" clip-rule="evenodd" d="M39.5 10.5C37.0971 10.448 34.7638 10.7814 32.5 11.5C33.3121 10.0069 34.6455 9.34021 36.5 9.49997C37.7261 9.51951 38.7261 9.85284 39.5 10.5Z" fill="#84735E"/>
<path fill-rule="evenodd" clip-rule="evenodd" d="M59.5 35.5C60.5676 34.5655 61.901 34.2322 63.5 34.5C63.5 35.1667 63.8333 35.5 64.5 35.5C65.5676 36.4345 66.901 36.7678 68.5 36.5C68.5 39.8333 68.5 43.1667 68.5 46.5C68.1667 46.5 67.8333 46.5 67.5 46.5C63.7675 44.8693 59.7675 43.8693 55.5 43.5C58.1667 43.5 60.8333 43.5 63.5 43.5C63.4249 40.7938 63.0916 38.1272 62.5 35.5C61.5 35.5 60.5 35.5 59.5 35.5Z" fill="#B0371A"/>
<path fill-rule="evenodd" clip-rule="evenodd" d="M68.5 36.5C69.7773 37.6936 70.4439 39.3603 70.5 41.5C70.4439 43.6397 69.7773 45.3064 68.5 46.5C68.5 43.1667 68.5 39.8333 68.5 36.5Z" fill="#E97050"/>
<path fill-rule="evenodd" clip-rule="evenodd" d="M53.5 36.5C53.8333 36.5 54.1667 36.5 54.5 36.5C55.1667 36.5 55.8333 36.5 56.5 36.5C55.4489 37.2223 54.7822 38.2223 54.5 39.5C54.4326 40.9587 54.7659 42.2921 55.5 43.5C59.7675 43.8693 63.7675 44.8693 67.5 46.5C63.7316 45.2134 60.0649 45.2134 56.5 46.5C55.5 46.5 54.5 46.5 53.5 46.5C53.7373 45.209 53.404 44.209 52.5 43.5C50.9365 40.8684 51.2699 38.5351 53.5 36.5Z" fill="#701E14"/>
<path fill-rule="evenodd" clip-rule="evenodd" d="M17.5 38.5C19.5582 39.9331 21.8915 40.5997 24.5 40.5C24.8333 40.5 25.1667 40.5 25.5 40.5C26.8786 42.5969 28.5453 42.9302 30.5 41.5C31.8333 41.5 33.1667 41.5 34.5 41.5C32.8783 44.7817 30.8783 47.7817 28.5 50.5C27.5 51.1667 26.5 51.8333 25.5 52.5C25.5677 49.915 26.0677 47.5817 27 45.5C23.4987 43.5116 20.332 41.1783 17.5 38.5Z" fill="#7B1D14"/>
<path fill-rule="evenodd" clip-rule="evenodd" d="M52.5 43.5C53.404 44.209 53.7373 45.209 53.5 46.5C54.5 46.5 55.5 46.5 56.5 46.5C59.0593 46.1984 61.3926 46.5318 63.5 47.5C59.8333 47.5 56.1667 47.5 52.5 47.5C52.5 46.1667 52.5 44.8333 52.5 43.5Z" fill="#BEA485"/>
<path fill-rule="evenodd" clip-rule="evenodd" d="M56.5 46.5C60.0649 45.2134 63.7316 45.2134 67.5 46.5C67.5569 47.609 67.8902 48.609 68.5 49.5C66.8333 48.8333 65.1667 48.1667 63.5 47.5C61.3926 46.5318 59.0593 46.1984 56.5 46.5Z" fill="#5F2D23"/>
<path fill-rule="evenodd" clip-rule="evenodd" d="M11.5 36.5C12.5 36.5 13.5 36.5 14.5 36.5C14.5 36.8333 14.5 37.1667 14.5 37.5C14.3399 42.5658 14.8399 47.5658 16 52.5C18.1118 55.7271 19.9451 59.0604 21.5 62.5C20.8333 62.5 20.1667 62.5 19.5 62.5C14.5024 57.1808 11.8357 50.8474 11.5 43.5C11.5 41.1667 11.5 38.8333 11.5 36.5Z" fill="#E26B4B"/>
<path fill-rule="evenodd" clip-rule="evenodd" d="M67.5 46.5C67.8333 46.5 68.1667 46.5 68.5 46.5C70.2785 47.6697 71.2785 49.3364 71.5 51.5C70.8333 51.1667 70.1667 50.8333 69.5 50.5C69.5 49.8333 69.1667 49.5 68.5 49.5C67.8902 48.609 67.5569 47.609 67.5 46.5Z" fill="#6C150E"/>
<path fill-rule="evenodd" clip-rule="evenodd" d="M41.5 45.5C43.1992 45.3398 44.8659 45.5065 46.5 46C47.7682 48.6266 49.1015 51.1266 50.5 53.5C52.8333 54.1667 55.1667 54.8333 57.5 55.5C54.8333 55.5 52.1667 55.5 49.5 55.5C48.2719 54.6935 47.2719 53.6935 46.5 52.5C45.5655 51.4324 45.2322 50.099 45.5 48.5C41.4254 48.911 38.4254 50.911 36.5 54.5C35.8908 59.1564 34.8908 63.8231 33.5 68.5C32.596 69.209 32.2627 70.209 32.5 71.5C32.5 72.1667 32.1667 72.5 31.5 72.5C31.7373 71.209 31.404 70.209 30.5 69.5C30.5 68.8333 30.5 68.1667 30.5 67.5C31.9418 66.1805 32.6085 64.5138 32.5 62.5C33.3382 62.1583 33.6716 61.4916 33.5 60.5C34.3438 57.6553 35.0104 54.6553 35.5 51.5C37.8061 49.8606 39.8061 47.8606 41.5 45.5Z" fill="#771D14"/>
<path fill-rule="evenodd" clip-rule="evenodd" d="M14.5 37.5C15.391 38.1098 16.391 38.4431 17.5 38.5C20.332 41.1783 23.4987 43.5116 27 45.5C26.0677 47.5817 25.5677 49.915 25.5 52.5C25.4403 55.3408 24.7736 58.0075 23.5 60.5C22.8333 61.1667 22.1667 61.8333 21.5 62.5C19.9451 59.0604 18.1118 55.7271 16 52.5C14.8399 47.5658 14.3399 42.5658 14.5 37.5Z" fill="#BC4223"/>
<path fill-rule="evenodd" clip-rule="evenodd" d="M65.5 59.5C65.1667 59.5 64.8333 59.5 64.5 59.5C64.5 58.1667 63.8333 57.5 62.5 57.5C60.9891 56.4975 59.3224 55.8308 57.5 55.5C55.1667 54.8333 52.8333 54.1667 50.5 53.5C55.3675 51.9108 60.0341 52.4108 64.5 55C65.3802 56.3561 65.7135 57.8561 65.5 59.5Z" fill="#632D22"/>
<path fill-rule="evenodd" clip-rule="evenodd" d="M69.5 50.5C70.1667 50.8333 70.8333 51.1667 71.5 51.5C71.5 51.8333 71.5 52.1667 71.5 52.5C73.3292 59.0459 70.9959 62.3792 64.5 62.5C64.5 61.5 64.5 60.5 64.5 59.5C64.8333 59.5 65.1667 59.5 65.5 59.5C65.9169 60.1239 66.5836 60.4573 67.5 60.5C68.7133 60.2528 69.38 59.5862 69.5 58.5C69.5 55.8333 69.5 53.1667 69.5 50.5Z" fill="#3D1713"/>
<path fill-rule="evenodd" clip-rule="evenodd" d="M71.5 52.5C71.5 52.1667 71.5 51.8333 71.5 51.5C71.2785 49.3364 70.2785 47.6697 68.5 46.5C69.7773 45.3064 70.4439 43.6397 70.5 41.5C70.4439 39.3603 69.7773 37.6936 68.5 36.5C70.1101 33.8112 70.9434 30.8112 71 27.5C72.045 26.6266 72.8783 25.6266 73.5 24.5C74.4959 24.5858 75.3292 24.2524 76 23.5C80.2367 30.925 81.5701 38.925 80 47.5C80.0522 53.867 77.8855 59.2003 73.5 63.5C72.5455 60.8876 72.5455 58.221 73.5 55.5C73.3601 53.9704 72.6935 52.9704 71.5 52.5Z" fill="#A12607"/>
<path fill-rule="evenodd" clip-rule="evenodd" d="M28.5 50.5C28.408 55.3655 27.0747 59.6988 24.5 63.5C23.596 62.791 23.2627 61.791 23.5 60.5C24.7736 58.0075 25.4403 55.3408 25.5 52.5C26.5 51.8333 27.5 51.1667 28.5 50.5Z" fill="#631D15"/>
<path fill-rule="evenodd" clip-rule="evenodd" d="M46.5 52.5C47.9785 57.8684 45.9785 61.5351 40.5 63.5C39.6143 62.675 39.281 61.675 39.5 60.5C38.5 60.5 37.5 60.5 36.5 60.5C36.5 58.5 36.5 56.5 36.5 54.5C38.4254 50.911 41.4254 48.911 45.5 48.5C45.2322 50.099 45.5655 51.4324 46.5 52.5Z" fill="#DE6242"/>
<path fill-rule="evenodd" clip-rule="evenodd" d="M34.5 41.5C36.1344 42.2066 37.4677 43.3732 38.5 45C39.448 45.4828 40.448 45.6495 41.5 45.5C39.8061 47.8606 37.8061 49.8606 35.5 51.5C35.1667 51.5 34.8333 51.5 34.5 51.5C34.3059 49.0882 32.9726 48.0882 30.5 48.5C30.2605 52.8422 29.9272 57.1756 29.5 61.5C28.5 61.5 27.5 61.5 26.5 61.5C26.7148 63.1788 26.0481 64.1788 24.5 64.5C24.5 64.1667 24.5 63.8333 24.5 63.5C27.0747 59.6988 28.408 55.3655 28.5 50.5C30.8783 47.7817 32.8783 44.7817 34.5 41.5Z" fill="#E9DFB3"/>
<path fill-rule="evenodd" clip-rule="evenodd" d="M34.5 51.5C34.8333 51.5 35.1667 51.5 35.5 51.5C35.0104 54.6553 34.3438 57.6553 33.5 60.5C33.2641 57.3915 33.5975 54.3915 34.5 51.5Z" fill="#945D4C"/>
<path fill-rule="evenodd" clip-rule="evenodd" d="M46.5 52.5C47.2719 53.6935 48.2719 54.6935 49.5 55.5C50.6085 56.29 51.9419 56.79 53.5 57C51.272 58.8063 49.272 60.8063 47.5 63C48.9928 64.1562 48.8261 64.9896 47 65.5C44.5615 66.9656 42.3949 66.6323 40.5 64.5C39.5224 64.9767 38.6891 65.6433 38 66.5C36.6814 64.7505 36.1814 62.7505 36.5 60.5C37.5 60.5 38.5 60.5 39.5 60.5C39.281 61.675 39.6143 62.675 40.5 63.5C45.9785 61.5351 47.9785 57.8684 46.5 52.5Z" fill="#CD5132"/>
<path fill-rule="evenodd" clip-rule="evenodd" d="M69.5 58.5C69.38 59.5862 68.7133 60.2528 67.5 60.5C66.5836 60.4573 65.9169 60.1239 65.5 59.5C66.9587 59.5674 68.2921 59.2341 69.5 58.5Z" fill="#65503F"/>
<path fill-rule="evenodd" clip-rule="evenodd" d="M36.5 54.5C36.5 56.5 36.5 58.5 36.5 60.5C36.1814 62.7505 36.6814 64.7505 38 66.5C38.6891 65.6433 39.5224 64.9767 40.5 64.5C42.3949 66.6323 44.5615 66.9656 47 65.5C48.8261 64.9896 48.9928 64.1562 47.5 63C49.272 60.8063 51.272 58.8063 53.5 57C51.9419 56.79 50.6085 56.29 49.5 55.5C52.1667 55.5 54.8333 55.5 57.5 55.5C59.3224 55.8308 60.9891 56.4975 62.5 57.5C63.1098 58.391 63.4431 59.391 63.5 60.5C62.8826 60.3893 62.3826 60.056 62 59.5C54.1994 67.599 44.6994 70.599 33.5 68.5C34.8908 63.8231 35.8908 59.1564 36.5 54.5Z" fill="#B63C1D"/>
<path fill-rule="evenodd" clip-rule="evenodd" d="M23.5 60.5C23.2627 61.791 23.596 62.791 24.5 63.5C24.5 63.8333 24.5 64.1667 24.5 64.5C23.1667 64.5 21.8333 64.5 20.5 64.5C18.183 63.4655 17.183 64.4655 17.5 67.5C16.4017 66.3991 16.235 65.0657 17 63.5C17.6708 62.7476 18.5041 62.4142 19.5 62.5C20.1667 62.5 20.8333 62.5 21.5 62.5C22.1667 61.8333 22.8333 61.1667 23.5 60.5Z" fill="#812E1A"/>
<path fill-rule="evenodd" clip-rule="evenodd" d="M34.5 51.5C33.5975 54.3915 33.2641 57.3915 33.5 60.5C33.6716 61.4916 33.3382 62.1583 32.5 62.5C31.4664 63.6871 30.133 64.5204 28.5 65C29.8333 65.6667 29.8333 66.3333 28.5 67C27.2068 67.49 25.8734 67.6567 24.5 67.5C24.5 66.5 24.5 65.5 24.5 64.5C26.0481 64.1788 26.7148 63.1788 26.5 61.5C27.5 61.5 28.5 61.5 29.5 61.5C29.9272 57.1756 30.2605 52.8422 30.5 48.5C32.9726 48.0882 34.3059 49.0882 34.5 51.5Z" fill="#F5F5C2"/>
<path fill-rule="evenodd" clip-rule="evenodd" d="M32.5 62.5C32.6085 64.5138 31.9418 66.1805 30.5 67.5C29.7777 68.5511 28.7777 69.2178 27.5 69.5C23.1486 70.467 20.8153 68.8004 20.5 64.5C21.8333 64.5 23.1667 64.5 24.5 64.5C24.5 65.5 24.5 66.5 24.5 67.5C25.8734 67.6567 27.2068 67.49 28.5 67C29.8333 66.3333 29.8333 65.6667 28.5 65C30.133 64.5204 31.4664 63.6871 32.5 62.5Z" fill="#DFD6AE"/>
<path fill-rule="evenodd" clip-rule="evenodd" d="M20.5 64.5C20.8153 68.8004 23.1486 70.467 27.5 69.5C28.5 70.8333 29.5 70.8333 30.5 69.5C31.404 70.209 31.7373 71.209 31.5 72.5C27.7802 72.4358 24.1135 71.9358 20.5 71C19.2899 69.9609 18.2899 68.7942 17.5 67.5C17.183 64.4655 18.183 63.4655 20.5 64.5Z" fill="#3B1411"/>
<path fill-rule="evenodd" clip-rule="evenodd" d="M63.5 60.5C63.5 61.1667 63.5 61.8333 63.5 62.5C54.4394 70.0604 44.106 73.0604 32.5 71.5C32.2627 70.209 32.596 69.209 33.5 68.5C44.6994 70.599 54.1994 67.599 62 59.5C62.3826 60.056 62.8826 60.3893 63.5 60.5Z" fill="#E6704E"/>
<path fill-rule="evenodd" clip-rule="evenodd" d="M30.5 67.5C30.5 68.1667 30.5 68.8333 30.5 69.5C29.5 70.8333 28.5 70.8333 27.5 69.5C28.7777 69.2178 29.7777 68.5511 30.5 67.5Z" fill="#8C6F60"/>
<path fill-rule="evenodd" clip-rule="evenodd" d="M63.5 62.5C63.9623 63.8799 64.9623 64.5466 66.5 64.5C68.1347 63.9537 69.8014 63.6204 71.5 63.5C70.4957 67.028 68.829 70.1946 66.5 73C50.1798 84.0914 33.8465 84.2581 17.5 73.5C22.2315 73.5792 26.8982 73.2458 31.5 72.5C32.1667 72.5 32.5 72.1667 32.5 71.5C44.106 73.0604 54.4394 70.0604 63.5 62.5Z" fill="#A32909"/>
</g>
<defs>
<clipPath id="clip0_2_194">
<rect width="84" height="84" fill="white"/>
</clipPath>
</defs>
</svg>
