<?xml version="1.0" encoding="UTF-8"?>
<!DOCTYPE svg PUBLIC "-//W3C//DTD SVG 1.1//EN" "http://www.w3.org/Graphics/SVG/1.1/DTD/svg11.dtd">
<svg xmlns="http://www.w3.org/2000/svg" version="1.1" width="102px" height="102px" style="shape-rendering:geometricPrecision; text-rendering:geometricPrecision; image-rendering:optimizeQuality; fill-rule:evenodd; clip-rule:evenodd" xmlns:xlink="http://www.w3.org/1999/xlink">
<g><path style="opacity:1" fill="#fae28e" d="M 60.5,12.5 C 59.8333,12.1667 59.1667,11.8333 58.5,11.5C 54.827,9.99975 51.4937,7.99975 48.5,5.5C 50.9267,5.47696 53.26,4.97696 55.5,4C 55.4242,0.99917 56.5909,0.832504 59,3.5C 59.696,6.47805 60.196,9.47805 60.5,12.5 Z"/></g>
<g><path style="opacity:0.984" fill="#e7b966" d="M 40.5,0.5 C 41.2389,0.368989 41.9056,0.535656 42.5,1C 41.1218,2.71337 39.4552,4.0467 37.5,5C 37.8333,5.33333 38.1667,5.66667 38.5,6C 36.2922,6.19088 34.2922,6.69088 32.5,7.5C 31.3473,6.68677 31.3473,5.68677 32.5,4.5C 32.0431,3.70245 31.3764,3.36912 30.5,3.5C 33.5046,1.7234 36.8379,0.723405 40.5,0.5 Z"/></g>
<g><path style="opacity:1" fill="#fae894" d="M 43.5,-0.5 C 49.1667,-0.5 54.8333,-0.5 60.5,-0.5C 61.8333,0.166667 63.1667,0.833333 64.5,1.5C 64.2627,2.79105 64.596,3.79105 65.5,4.5C 67.3795,6.92564 68.7128,9.59231 69.5,12.5C 66.5,12.5 63.5,12.5 60.5,12.5C 60.196,9.47805 59.696,6.47805 59,3.5C 56.5909,0.832504 55.4242,0.99917 55.5,4C 53.26,4.97696 50.9267,5.47696 48.5,5.5C 48.1667,5.5 47.8333,5.5 47.5,5.5C 45.7484,3.75405 44.4151,1.75405 43.5,-0.5 Z"/></g>
<g><path style="opacity:1" fill="#f1c371" d="M 40.5,0.5 C 40.5,0.166667 40.5,-0.166667 40.5,-0.5C 41.5,-0.5 42.5,-0.5 43.5,-0.5C 44.4151,1.75405 45.7484,3.75405 47.5,5.5C 45.8235,6.18342 45.1568,7.51676 45.5,9.5C 43.7085,9.63404 42.0418,9.30071 40.5,8.5C 39.1667,8.5 37.8333,8.5 36.5,8.5C 35.2921,7.76589 33.9587,7.43255 32.5,7.5C 34.2922,6.69088 36.2922,6.19088 38.5,6C 38.1667,5.66667 37.8333,5.33333 37.5,5C 39.4552,4.0467 41.1218,2.71337 42.5,1C 41.9056,0.535656 41.2389,0.368989 40.5,0.5 Z"/></g>
<g><path style="opacity:1" fill="#deae5d" d="M 30.5,3.5 C 31.3764,3.36912 32.0431,3.70245 32.5,4.5C 31.3473,5.68677 31.3473,6.68677 32.5,7.5C 31.3646,9.21321 29.698,9.87988 27.5,9.5C 25.1523,9.59225 23.4856,10.5923 22.5,12.5C 20.5,12.5 18.5,12.5 16.5,12.5C 20.1381,8.00759 24.8048,5.00759 30.5,3.5 Z"/></g>
<g><path style="opacity:1" fill="#f1c472" d="M 65.5,4.5 C 69.5852,3.65884 72.5852,4.99217 74.5,8.5C 73.9747,9.19238 73.3081,9.69238 72.5,10C 73.3567,10.6891 74.0233,11.5224 74.5,12.5C 73.1468,13.5237 72.4802,14.857 72.5,16.5C 70.6834,14.49 68.6834,14.1566 66.5,15.5C 65.391,15.5569 64.391,15.8902 63.5,16.5C 58.2063,16.3178 58.2063,15.8178 63.5,15C 61.8251,14.0147 60.1585,13.1814 58.5,12.5C 58.5,12.1667 58.5,11.8333 58.5,11.5C 59.1667,11.8333 59.8333,12.1667 60.5,12.5C 63.5,12.5 66.5,12.5 69.5,12.5C 68.7128,9.59231 67.3795,6.92564 65.5,4.5 Z"/></g>
<g><path style="opacity:1" fill="#ebbc6a" d="M 47.5,5.5 C 47.8333,5.5 48.1667,5.5 48.5,5.5C 51.4937,7.99975 54.827,9.99975 58.5,11.5C 58.5,11.8333 58.5,12.1667 58.5,12.5C 55.821,12.5246 54.4877,13.858 54.5,16.5C 53.1667,16.5 51.8333,16.5 50.5,16.5C 49.1232,12.478 46.4565,11.478 42.5,13.5C 40.9969,14.6816 39.3302,15.1816 37.5,15C 39.9193,13.4912 40.9193,11.3245 40.5,8.5C 42.0418,9.30071 43.7085,9.63404 45.5,9.5C 45.1568,7.51676 45.8235,6.18342 47.5,5.5 Z"/></g>
<g><path style="opacity:1" fill="#eebf6d" d="M 64.5,1.5 C 72.3857,3.1063 79.0523,6.77296 84.5,12.5C 81.8333,12.5 79.1667,12.5 76.5,12.5C 76.8499,15.0408 76.8499,17.3742 76.5,19.5C 75.8386,18.2825 75.1719,16.9492 74.5,15.5C 73.8165,15.8627 73.1499,16.1961 72.5,16.5C 72.4802,14.857 73.1468,13.5237 74.5,12.5C 74.0233,11.5224 73.3567,10.6891 72.5,10C 73.3081,9.69238 73.9747,9.19238 74.5,8.5C 72.5852,4.99217 69.5852,3.65884 65.5,4.5C 64.596,3.79105 64.2627,2.79105 64.5,1.5 Z"/></g>
<g><path style="opacity:1" fill="#e9bb69" d="M 32.5,7.5 C 33.9587,7.43255 35.2921,7.76589 36.5,8.5C 35.2825,9.16145 33.9492,9.82811 32.5,10.5C 34.4731,11.3311 36.4731,11.4978 38.5,11C 37.1225,13.4494 35.2892,13.9494 33,12.5C 31.282,13.0311 31.1153,13.6977 32.5,14.5C 30.7857,15.7384 28.7857,16.405 26.5,16.5C 27.2899,15.2058 28.2899,14.0391 29.5,13C 27.0614,12.4666 26.3948,11.3 27.5,9.5C 29.698,9.87988 31.3646,9.21321 32.5,7.5 Z"/></g>
<g><path style="opacity:1" fill="#f0c16f" d="M 58.5,12.5 C 60.1585,13.1814 61.8251,14.0147 63.5,15C 58.2063,15.8178 58.2063,16.3178 63.5,16.5C 62.3947,18.2231 60.7281,19.2231 58.5,19.5C 57.0825,21.7082 55.0825,22.5415 52.5,22C 53.056,21.6174 53.3893,21.1174 53.5,20.5C 51.1036,20.628 48.1036,20.628 44.5,20.5C 45.4131,17.6999 47.4131,16.3666 50.5,16.5C 51.8333,16.5 53.1667,16.5 54.5,16.5C 54.4877,13.858 55.821,12.5246 58.5,12.5 Z"/></g>
<g><path style="opacity:1" fill="#eebf6d" d="M 16.5,12.5 C 18.5,12.5 20.5,12.5 22.5,12.5C 23.9778,12.238 25.3112,12.5713 26.5,13.5C 24.7118,14.2826 23.7118,15.6159 23.5,17.5C 19.6871,18.8716 16.0204,18.5383 12.5,16.5C 13.5,14.8333 14.8333,13.5 16.5,12.5 Z"/></g>
<g><path style="opacity:1" fill="#f3c472" d="M 84.5,12.5 C 85.8333,13.1667 86.8333,14.1667 87.5,15.5C 87.44,16.0431 87.1067,16.3764 86.5,16.5C 84.8333,15.8333 83.1667,15.1667 81.5,14.5C 80.6143,15.325 80.281,16.325 80.5,17.5C 81.552,17.3505 82.552,17.5172 83.5,18C 84.4129,20.3326 85.9129,22.1659 88,23.5C 87.5241,25.3201 87.6907,26.9867 88.5,28.5C 88.3691,29.3764 88.7025,30.0431 89.5,30.5C 91.5159,29.2941 93.5159,29.2941 95.5,30.5C 94.3881,31.2652 93.7214,32.2652 93.5,33.5C 89.6433,32.9224 86.9766,30.9224 85.5,27.5C 85.0825,26.7784 84.4158,26.2784 83.5,26C 84.3081,25.6924 84.9747,25.1924 85.5,24.5C 83.1394,22.8061 81.1394,20.8061 79.5,18.5C 78.8333,19.5 78.1667,20.5 77.5,21.5C 76.8933,21.3764 76.56,21.0431 76.5,20.5C 76.5,20.1667 76.5,19.8333 76.5,19.5C 76.8499,17.3742 76.8499,15.0408 76.5,12.5C 79.1667,12.5 81.8333,12.5 84.5,12.5 Z"/></g>
<g><path style="opacity:1" fill="#dbac5a" d="M 36.5,8.5 C 37.8333,8.5 39.1667,8.5 40.5,8.5C 40.9193,11.3245 39.9193,13.4912 37.5,15C 39.3302,15.1816 40.9969,14.6816 42.5,13.5C 43.3984,14.1577 44.3984,14.8243 45.5,15.5C 42.4524,16.4628 39.7857,17.7961 37.5,19.5C 35.5,19.8333 33.5,20.1667 31.5,20.5C 31.5,19.1667 31.5,17.8333 31.5,16.5C 34.8531,16.6547 35.1864,15.9881 32.5,14.5C 31.1153,13.6977 31.282,13.0311 33,12.5C 35.2892,13.9494 37.1225,13.4494 38.5,11C 36.4731,11.4978 34.4731,11.3311 32.5,10.5C 33.9492,9.82811 35.2825,9.16145 36.5,8.5 Z"/></g>
<g><path style="opacity:1" fill="#e1b260" d="M 66.5,15.5 C 68.6834,14.1566 70.6834,14.49 72.5,16.5C 73.1499,16.1961 73.8165,15.8627 74.5,15.5C 75.1719,16.9492 75.8386,18.2825 76.5,19.5C 76.5,19.8333 76.5,20.1667 76.5,20.5C 73.4785,21.7085 73.1451,23.0418 75.5,24.5C 74.609,25.1098 73.609,25.4431 72.5,25.5C 71.4019,24.603 71.4019,23.7697 72.5,23C 69.2577,22.7167 68.9244,21.8834 71.5,20.5C 71.0576,19.2613 70.3909,18.2613 69.5,17.5C 69.0269,16.0937 68.0269,15.427 66.5,15.5 Z"/></g>
<g><path style="opacity:1" fill="#e2b261" d="M 87.5,15.5 C 91.3871,18.2724 94.0538,21.9391 95.5,26.5C 95.3893,27.1174 95.056,27.6174 94.5,28C 92.5273,28.4955 90.5273,28.6621 88.5,28.5C 87.6907,26.9867 87.5241,25.3201 88,23.5C 85.9129,22.1659 84.4129,20.3326 83.5,18C 82.552,17.5172 81.552,17.3505 80.5,17.5C 80.281,16.325 80.6143,15.325 81.5,14.5C 83.1667,15.1667 84.8333,15.8333 86.5,16.5C 87.1067,16.3764 87.44,16.0431 87.5,15.5 Z"/></g>
<g><path style="opacity:1" fill="#e1b260" d="M 27.5,9.5 C 26.3948,11.3 27.0614,12.4666 29.5,13C 28.2899,14.0391 27.2899,15.2058 26.5,16.5C 25.8592,17.4822 25.1925,18.4822 24.5,19.5C 25.325,20.3857 26.325,20.719 27.5,20.5C 28.6899,23.906 28.0233,24.2393 25.5,21.5C 23.3298,22.768 21.1632,22.768 19,21.5C 18.7188,19.0953 19.3854,19.0953 21,21.5C 22.7058,20.6921 23.5391,19.3588 23.5,17.5C 23.7118,15.6159 24.7118,14.2826 26.5,13.5C 25.3112,12.5713 23.9778,12.238 22.5,12.5C 23.4856,10.5923 25.1523,9.59225 27.5,9.5 Z"/></g>
<g><path style="opacity:1" fill="#d8a957" d="M 66.5,15.5 C 68.0269,15.427 69.0269,16.0937 69.5,17.5C 67.7089,19.4133 65.7089,21.08 63.5,22.5C 60.9664,22.7409 59.2998,21.7409 58.5,19.5C 60.7281,19.2231 62.3947,18.2231 63.5,16.5C 64.391,15.8902 65.391,15.5569 66.5,15.5 Z"/></g>
<g><path style="opacity:1" fill="#dfb05f" d="M 50.5,16.5 C 47.4131,16.3666 45.4131,17.6999 44.5,20.5C 43.7109,20.7828 43.0442,21.2828 42.5,22C 43.5981,22.7697 43.5981,23.603 42.5,24.5C 40.8958,23.713 40.2291,22.3797 40.5,20.5C 41.8847,19.6977 41.718,19.0311 40,18.5C 39.0979,18.7432 38.2646,19.0766 37.5,19.5C 39.7857,17.7961 42.4524,16.4628 45.5,15.5C 44.3984,14.8243 43.3984,14.1577 42.5,13.5C 46.4565,11.478 49.1232,12.478 50.5,16.5 Z"/></g>
<g><path style="opacity:1" fill="#e3b462" d="M 12.5,16.5 C 16.0204,18.5383 19.6871,18.8716 23.5,17.5C 23.5391,19.3588 22.7058,20.6921 21,21.5C 19.3854,19.0953 18.7188,19.0953 19,21.5C 21.1632,22.768 23.3298,22.768 25.5,21.5C 24.7328,24.7347 22.7328,26.9013 19.5,28C 17.5273,28.4955 15.5273,28.6621 13.5,28.5C 11.6207,25.9082 10.2873,22.9082 9.5,19.5C 10.1667,18.1667 11.1667,17.1667 12.5,16.5 Z"/></g>
<g><path style="opacity:1" fill="#e4b563" d="M 32.5,14.5 C 35.1864,15.9881 34.8531,16.6547 31.5,16.5C 31.5,17.8333 31.5,19.1667 31.5,20.5C 33.5,20.1667 35.5,19.8333 37.5,19.5C 38.2646,19.0766 39.0979,18.7432 40,18.5C 41.718,19.0311 41.8847,19.6977 40.5,20.5C 37.2302,22.1604 33.8969,22.4938 30.5,21.5C 29.609,20.8902 28.609,20.5569 27.5,20.5C 26.325,20.719 25.325,20.3857 24.5,19.5C 25.1925,18.4822 25.8592,17.4822 26.5,16.5C 28.7857,16.405 30.7857,15.7384 32.5,14.5 Z"/></g>
<g><path style="opacity:1" fill="#ebbc6a" d="M 85.5,27.5 C 84.5655,28.5676 84.2322,29.901 84.5,31.5C 80.9259,29.9912 79.9259,30.9912 81.5,34.5C 80.0072,33.5549 78.5072,32.5549 77,31.5C 76.0979,31.7432 75.2646,32.0766 74.5,32.5C 74.5774,31.2502 75.244,30.4169 76.5,30C 75.6919,29.6924 75.0253,29.1924 74.5,28.5C 76.5096,27.9347 78.1763,26.9347 79.5,25.5C 78.5629,23.3576 77.2296,23.0243 75.5,24.5C 73.1451,23.0418 73.4785,21.7085 76.5,20.5C 76.56,21.0431 76.8933,21.3764 77.5,21.5C 78.1667,20.5 78.8333,19.5 79.5,18.5C 81.1394,20.8061 83.1394,22.8061 85.5,24.5C 84.9747,25.1924 84.3081,25.6924 83.5,26C 84.4158,26.2784 85.0825,26.7784 85.5,27.5 Z"/></g>
<g><path style="opacity:1" fill="#dfb05e" d="M 40.5,20.5 C 40.2291,22.3797 40.8958,23.713 42.5,24.5C 40.1567,25.937 39.99,27.6037 42,29.5C 42.3076,28.6919 42.8076,28.0253 43.5,27.5C 44.548,28.548 45.548,29.548 46.5,30.5C 45.5,31.1667 44.5,31.8333 43.5,32.5C 41.4275,29.6484 38.7608,28.9818 35.5,30.5C 34.4777,30.1445 33.811,29.4778 33.5,28.5C 35.8888,27.9463 37.5555,26.4463 38.5,24C 38.1667,23.8333 37.8333,23.6667 37.5,23.5C 33.6773,26.8976 29.3439,29.5643 24.5,31.5C 23.6618,31.1583 23.3284,30.4916 23.5,29.5C 26.5061,27.4893 28.8394,24.8227 30.5,21.5C 33.8969,22.4938 37.2302,22.1604 40.5,20.5 Z"/></g>
<g><path style="opacity:1" fill="#e6b966" d="M 53.5,20.5 C 50.9681,21.6798 48.3014,22.6798 45.5,23.5C 46.5,24.8333 47.5,26.1667 48.5,27.5C 49.5223,27.1445 50.189,26.4778 50.5,25.5C 51.7652,27.3569 51.4318,29.0236 49.5,30.5C 48.5,30.5 47.5,30.5 46.5,30.5C 45.548,29.548 44.548,28.548 43.5,27.5C 42.8076,28.0253 42.3076,28.6919 42,29.5C 39.99,27.6037 40.1567,25.937 42.5,24.5C 43.5981,23.603 43.5981,22.7697 42.5,22C 43.0442,21.2828 43.7109,20.7828 44.5,20.5C 48.1036,20.628 51.1036,20.628 53.5,20.5 Z"/></g>
<g><path style="opacity:1" fill="#e7b866" d="M 69.5,17.5 C 70.3909,18.2613 71.0576,19.2613 71.5,20.5C 68.9244,21.8834 69.2577,22.7167 72.5,23C 71.4019,23.7697 71.4019,24.603 72.5,25.5C 71.0689,25.8807 70.2355,26.8807 70,28.5C 69,27.1667 68,25.8333 67,24.5C 66.6258,25.4162 66.1258,26.2496 65.5,27C 67.497,28.1531 67.8304,29.6531 66.5,31.5C 65.1502,30.0499 63.4835,29.3832 61.5,29.5C 61.5,30.5 61.5,31.5 61.5,32.5C 60.7095,33.4013 59.7095,34.0679 58.5,34.5C 58.7148,32.8212 58.0481,31.8212 56.5,31.5C 55.8333,31.5 55.5,31.1667 55.5,30.5C 59.2243,30.1031 62.2243,28.4365 64.5,25.5C 64.3764,24.8933 64.0431,24.56 63.5,24.5C 63.5,23.8333 63.5,23.1667 63.5,22.5C 65.7089,21.08 67.7089,19.4133 69.5,17.5 Z"/></g>
<g><path style="opacity:1" fill="#dcae5c" d="M 58.5,19.5 C 59.2998,21.7409 60.9664,22.7409 63.5,22.5C 63.5,23.1667 63.5,23.8333 63.5,24.5C 60.2719,24.7006 57.1052,24.3672 54,23.5C 52.5405,23.8082 51.3739,24.4749 50.5,25.5C 50.189,26.4778 49.5223,27.1445 48.5,27.5C 47.5,26.1667 46.5,24.8333 45.5,23.5C 48.3014,22.6798 50.9681,21.6798 53.5,20.5C 53.3893,21.1174 53.056,21.6174 52.5,22C 55.0825,22.5415 57.0825,21.7082 58.5,19.5 Z"/></g>
<g><path style="opacity:1" fill="#ebbe6c" d="M 63.5,24.5 C 64.0431,24.56 64.3764,24.8933 64.5,25.5C 62.2243,28.4365 59.2243,30.1031 55.5,30.5C 53.5,30.5 51.5,30.5 49.5,30.5C 51.4318,29.0236 51.7652,27.3569 50.5,25.5C 51.3739,24.4749 52.5405,23.8082 54,23.5C 57.1052,24.3672 60.2719,24.7006 63.5,24.5 Z"/></g>
<g><path style="opacity:1" fill="#edbe6c" d="M 27.5,20.5 C 28.609,20.5569 29.609,20.8902 30.5,21.5C 28.8394,24.8227 26.5061,27.4893 23.5,29.5C 22.391,29.5569 21.391,29.8902 20.5,30.5C 18.6431,29.2463 16.6431,29.2463 14.5,30.5C 13.7025,30.0431 13.3691,29.3764 13.5,28.5C 15.5273,28.6621 17.5273,28.4955 19.5,28C 22.7328,26.9013 24.7328,24.7347 25.5,21.5C 28.0233,24.2393 28.6899,23.906 27.5,20.5 Z"/></g>
<g><path style="opacity:1" fill="#eabb69" d="M 7.5,22.5 C 8.20895,23.404 9.20895,23.7373 10.5,23.5C 10.5,26.5 10.5,29.5 10.5,32.5C 9.19322,31.8466 7.85989,31.1799 6.5,30.5C 5.83333,31.8333 5.16667,33.1667 4.5,34.5C 3.81815,33.7573 3.15149,33.0906 2.5,32.5C 3.65893,28.8487 5.3256,25.5154 7.5,22.5 Z"/></g>
<g><path style="opacity:1" fill="#e4b764" d="M 33.5,28.5 C 33.811,29.4778 34.4777,30.1445 35.5,30.5C 38.7608,28.9818 41.4275,29.6484 43.5,32.5C 43.1667,32.5 42.8333,32.5 42.5,32.5C 39.2914,32.5893 36.1248,32.256 33,31.5C 31.0962,33.0508 28.9296,34.2174 26.5,35C 28.9856,35.7051 28.9856,36.5384 26.5,37.5C 24.8102,37.1436 23.8102,36.1436 23.5,34.5C 25.1789,34.1077 26.8455,33.6077 28.5,33C 29.8333,32.3333 29.8333,31.6667 28.5,31C 30.5029,30.6655 32.1696,29.8321 33.5,28.5 Z"/></g>
<g><path style="opacity:1" fill="#edbe6c" d="M 74.5,32.5 C 73.8423,31.6016 73.1757,30.6016 72.5,29.5C 71.269,30.6507 71.269,31.8173 72.5,33C 71.8333,34 71.1667,35 70.5,36C 73.3892,35.6183 76.2226,35.4516 79,35.5C 79.4828,36.448 79.6495,37.448 79.5,38.5C 77.1155,38.5567 74.7822,38.2234 72.5,37.5C 71.2613,37.9424 70.2613,38.6091 69.5,39.5C 69.6567,38.1266 69.49,36.7932 69,35.5C 68.6667,35.8333 68.3333,36.1667 68,36.5C 67.4494,33.4435 65.7828,33.1101 63,35.5C 62.7679,34.2625 62.2679,33.2625 61.5,32.5C 61.5,31.5 61.5,30.5 61.5,29.5C 63.4835,29.3832 65.1502,30.0499 66.5,31.5C 67.8304,29.6531 67.497,28.1531 65.5,27C 66.1258,26.2496 66.6258,25.4162 67,24.5C 68,25.8333 69,27.1667 70,28.5C 70.2355,26.8807 71.0689,25.8807 72.5,25.5C 73.609,25.4431 74.609,25.1098 75.5,24.5C 77.2296,23.0243 78.5629,23.3576 79.5,25.5C 78.1763,26.9347 76.5096,27.9347 74.5,28.5C 75.0253,29.1924 75.6919,29.6924 76.5,30C 75.244,30.4169 74.5774,31.2502 74.5,32.5 Z"/></g>
<g><path style="opacity:1" fill="#f2c572" d="M 9.5,19.5 C 10.2873,22.9082 11.6207,25.9082 13.5,28.5C 13.3691,29.3764 13.7025,30.0431 14.5,30.5C 16.6431,29.2463 18.6431,29.2463 20.5,30.5C 19.5305,31.6293 18.3638,32.6293 17,33.5C 14.0847,31.9203 13.2514,32.5869 14.5,35.5C 12.6534,38.2016 11.4867,41.2016 11,44.5C 9.64387,43.6198 8.14387,43.2865 6.5,43.5C 6.41423,42.5041 6.74756,41.6708 7.5,41C 5.19018,40.5034 2.85684,40.3367 0.5,40.5C 0.5,40.1667 0.5,39.8333 0.5,39.5C 4.27399,39.9797 7.94066,39.3131 11.5,37.5C 11.3713,35.7839 11.038,34.1172 10.5,32.5C 10.5,29.5 10.5,26.5 10.5,23.5C 9.20895,23.7373 8.20895,23.404 7.5,22.5C 7.93205,21.2905 8.59872,20.2905 9.5,19.5 Z"/></g>
<g><path style="opacity:1" fill="#f2c371" d="M 84.5,31.5 C 84.3287,34.7973 84.9954,35.1306 86.5,32.5C 89.4291,33.6486 89.9291,35.3153 88,37.5C 87.6924,36.6919 87.1924,36.0253 86.5,35.5C 85.5,36.8333 84.5,36.8333 83.5,35.5C 83.1667,35.8333 82.8333,36.1667 82.5,36.5C 83.9492,37.1719 85.2825,37.8386 86.5,38.5C 84.5,38.5 82.5,38.5 80.5,38.5C 80.4326,37.0413 80.7659,35.7079 81.5,34.5C 79.9259,30.9912 80.9259,29.9912 84.5,31.5 Z"/></g>
<g><path style="opacity:0.99" fill="#eebf6d" d="M 95.5,26.5 C 98.0871,30.9319 100.087,35.5985 101.5,40.5C 101.5,41.1667 101.5,41.8333 101.5,42.5C 100.036,41.5946 98.7024,41.5946 97.5,42.5C 97.4142,41.5041 97.7476,40.6708 98.5,40C 95.8579,38.5315 94.1912,36.3648 93.5,33.5C 93.7214,32.2652 94.3881,31.2652 95.5,30.5C 93.5159,29.2941 91.5159,29.2941 89.5,30.5C 88.7025,30.0431 88.3691,29.3764 88.5,28.5C 90.5273,28.6621 92.5273,28.4955 94.5,28C 95.056,27.6174 95.3893,27.1174 95.5,26.5 Z"/></g>
<g><path style="opacity:1" fill="#f1c472" d="M 74.5,32.5 C 75.2646,32.0766 76.0979,31.7432 77,31.5C 78.5072,32.5549 80.0072,33.5549 81.5,34.5C 80.7659,35.7079 80.4326,37.0413 80.5,38.5C 82.5,38.5 84.5,38.5 86.5,38.5C 87.3764,38.3691 88.0431,38.7025 88.5,39.5C 87.9851,41.2251 87.3184,42.8917 86.5,44.5C 85.8933,44.3764 85.56,44.0431 85.5,43.5C 85.4606,42.4168 85.1272,41.4168 84.5,40.5C 80.3507,39.1905 76.3507,39.1905 72.5,40.5C 71.5,40.5 70.5,40.5 69.5,40.5C 69.5,40.1667 69.5,39.8333 69.5,39.5C 70.2613,38.6091 71.2613,37.9424 72.5,37.5C 74.7822,38.2234 77.1155,38.5567 79.5,38.5C 79.6495,37.448 79.4828,36.448 79,35.5C 76.2226,35.4516 73.3892,35.6183 70.5,36C 71.1667,35 71.8333,34 72.5,33C 71.269,31.8173 71.269,30.6507 72.5,29.5C 73.1757,30.6016 73.8423,31.6016 74.5,32.5 Z"/></g>
<g><path style="opacity:1" fill="#f0c16f" d="M 10.5,32.5 C 11.038,34.1172 11.3713,35.7839 11.5,37.5C 7.94066,39.3131 4.27399,39.9797 0.5,39.5C 0.766965,37.0347 1.43363,34.7014 2.5,32.5C 3.15149,33.0906 3.81815,33.7573 4.5,34.5C 5.16667,33.1667 5.83333,31.8333 6.5,30.5C 7.85989,31.1799 9.19322,31.8466 10.5,32.5 Z"/></g>
<g><path style="opacity:1" fill="#e6b866" d="M 23.5,29.5 C 23.3284,30.4916 23.6618,31.1583 24.5,31.5C 22.9581,32.1635 21.2914,32.8302 19.5,33.5C 18.6371,34.7264 18.6371,36.0597 19.5,37.5C 20.5063,38.3957 20.5063,39.0623 19.5,39.5C 17.179,41.0897 16.179,43.4231 16.5,46.5C 14.2646,46.2053 12.2646,46.5386 10.5,47.5C 10.1667,47.5 9.83333,47.5 9.5,47.5C 8.51163,46.205 7.51163,44.8717 6.5,43.5C 8.14387,43.2865 9.64387,43.6198 11,44.5C 11.4867,41.2016 12.6534,38.2016 14.5,35.5C 13.2514,32.5869 14.0847,31.9203 17,33.5C 18.3638,32.6293 19.5305,31.6293 20.5,30.5C 21.391,29.8902 22.391,29.5569 23.5,29.5 Z"/></g>
<g><path style="opacity:1" fill="#eebf6d" d="M 33.5,28.5 C 32.1696,29.8321 30.5029,30.6655 28.5,31C 29.8333,31.6667 29.8333,32.3333 28.5,33C 26.8455,33.6077 25.1789,34.1077 23.5,34.5C 22.7638,36.2294 21.4305,37.2294 19.5,37.5C 18.6371,36.0597 18.6371,34.7264 19.5,33.5C 21.2914,32.8302 22.9581,32.1635 24.5,31.5C 29.3439,29.5643 33.6773,26.8976 37.5,23.5C 37.8333,23.6667 38.1667,23.8333 38.5,24C 37.5555,26.4463 35.8888,27.9463 33.5,28.5 Z"/></g>
<g><path style="opacity:1" fill="#f1c471" d="M 42.5,32.5 C 42.5,34.5 42.5,36.5 42.5,38.5C 40.9397,38.5191 39.4397,38.8524 38,39.5C 36.9231,38.5705 35.7564,37.9038 34.5,37.5C 31.6097,37.278 28.943,37.9447 26.5,39.5C 25.537,39.0302 25.537,38.3635 26.5,37.5C 28.9856,36.5384 28.9856,35.7051 26.5,35C 28.9296,34.2174 31.0962,33.0508 33,31.5C 36.1248,32.256 39.2914,32.5893 42.5,32.5 Z"/></g>
<g><path style="opacity:1" fill="#e6b967" d="M 61.5,32.5 C 62.2679,33.2625 62.7679,34.2625 63,35.5C 65.7828,33.1101 67.4494,33.4435 68,36.5C 68.3333,36.1667 68.6667,35.8333 69,35.5C 69.49,36.7932 69.6567,38.1266 69.5,39.5C 69.5,39.8333 69.5,40.1667 69.5,40.5C 68.5,40.5 67.5,40.5 66.5,40.5C 64.8297,40.7512 63.3297,41.4178 62,42.5C 60.7748,47.0853 60.2748,51.752 60.5,56.5C 60.8432,58.4832 60.1765,59.8166 58.5,60.5C 58.5,51.8333 58.5,43.1667 58.5,34.5C 59.7095,34.0679 60.7095,33.4013 61.5,32.5 Z"/></g>
<g><path style="opacity:1" fill="#ebbd6b" d="M 23.5,34.5 C 23.8102,36.1436 24.8102,37.1436 26.5,37.5C 25.537,38.3635 25.537,39.0302 26.5,39.5C 28.943,37.9447 31.6097,37.278 34.5,37.5C 34.5394,38.5832 34.8728,39.5832 35.5,40.5C 34.675,41.3857 33.675,41.719 32.5,41.5C 31.8333,41.8333 31.1667,42.1667 30.5,42.5C 27.7109,42.3594 24.8776,42.3594 22,42.5C 20.2509,42.2517 19.4176,41.2517 19.5,39.5C 20.5063,39.0623 20.5063,38.3957 19.5,37.5C 21.4305,37.2294 22.7638,36.2294 23.5,34.5 Z"/></g>
<g><path style="opacity:1" fill="#baa96f" d="M 54.5,60.5 C 54.8016,63.0593 54.4682,65.3926 53.5,67.5C 53.5,56.5 53.5,45.5 53.5,34.5C 51.1667,34.5 48.8333,34.5 46.5,34.5C 46.3253,36.6208 46.6586,38.6208 47.5,40.5C 45.6565,38.7211 44.9898,36.3878 45.5,33.5C 48.5,33.5 51.5,33.5 54.5,33.5C 54.5,42.5 54.5,51.5 54.5,60.5 Z"/></g>
<g><path style="opacity:1" fill="#fafac3" d="M 53.5,67.5 C 51.8333,67.5 50.1667,67.5 48.5,67.5C 48.8266,58.3178 48.4933,49.3178 47.5,40.5C 46.6586,38.6208 46.3253,36.6208 46.5,34.5C 48.8333,34.5 51.1667,34.5 53.5,34.5C 53.5,45.5 53.5,56.5 53.5,67.5 Z"/></g>
<g><path style="opacity:1" fill="#e1b260" d="M 42.5,32.5 C 42.8333,32.5 43.1667,32.5 43.5,32.5C 43.2529,35.9387 43.5863,39.272 44.5,42.5C 44.5,44.8333 44.5,47.1667 44.5,49.5C 43.2652,49.2786 42.2652,48.6119 41.5,47.5C 40.0815,48.0047 39.4148,49.0047 39.5,50.5C 38.4019,51.397 38.4019,52.2303 39.5,53C 37.1261,53.7432 35.1261,53.2432 33.5,51.5C 33.7678,49.901 33.4345,48.5676 32.5,47.5C 32.4606,46.4168 32.1272,45.4168 31.5,44.5C 34.4188,43.0682 35.7521,44.0682 35.5,47.5C 37.5,47.1667 39.5,46.8333 41.5,46.5C 41.3573,44.7376 41.6906,43.0709 42.5,41.5C 42,41.1667 41.5,40.8333 41,40.5C 38.2445,42.5482 35.4112,42.8816 32.5,41.5C 33.675,41.719 34.675,41.3857 35.5,40.5C 34.8728,39.5832 34.5394,38.5832 34.5,37.5C 35.7564,37.9038 36.9231,38.5705 38,39.5C 39.4397,38.8524 40.9397,38.5191 42.5,38.5C 42.5,36.5 42.5,34.5 42.5,32.5 Z"/></g>
<g><path style="opacity:1" fill="#e7b967" d="M 85.5,27.5 C 86.9766,30.9224 89.6433,32.9224 93.5,33.5C 94.1912,36.3648 95.8579,38.5315 98.5,40C 97.7476,40.6708 97.4142,41.5041 97.5,42.5C 95.6159,42.2882 94.2826,41.2882 93.5,39.5C 92.6919,39.8076 92.0253,40.3076 91.5,41C 92.5536,42.3876 92.7203,43.8876 92,45.5C 90.3775,46.0989 88.8775,46.7656 87.5,47.5C 86.391,47.5569 85.391,47.8902 84.5,48.5C 83.661,47.3588 82.9943,46.0255 82.5,44.5C 83.325,43.6143 84.325,43.281 85.5,43.5C 85.56,44.0431 85.8933,44.3764 86.5,44.5C 87.3184,42.8917 87.9851,41.2251 88.5,39.5C 88.0431,38.7025 87.3764,38.3691 86.5,38.5C 85.2825,37.8386 83.9492,37.1719 82.5,36.5C 82.8333,36.1667 83.1667,35.8333 83.5,35.5C 84.5,36.8333 85.5,36.8333 86.5,35.5C 87.1924,36.0253 87.6924,36.6919 88,37.5C 89.9291,35.3153 89.4291,33.6486 86.5,32.5C 84.9954,35.1306 84.3287,34.7973 84.5,31.5C 84.2322,29.901 84.5655,28.5676 85.5,27.5 Z"/></g>
<g><path style="opacity:1" fill="#795114" d="M 46.5,30.5 C 47.5,30.5 48.5,30.5 49.5,30.5C 51.5,30.5 53.5,30.5 55.5,30.5C 55.5,31.1667 55.8333,31.5 56.5,31.5C 56.5,31.8333 56.5,32.1667 56.5,32.5C 56.8274,42.6806 56.494,52.6806 55.5,62.5C 55.6716,61.5084 55.3382,60.8417 54.5,60.5C 54.5,51.5 54.5,42.5 54.5,33.5C 51.5,33.5 48.5,33.5 45.5,33.5C 44.9898,36.3878 45.6565,38.7211 47.5,40.5C 47.8271,50.3478 47.4938,60.0144 46.5,69.5C 45.8333,60.5 45.1667,51.5 44.5,42.5C 43.5863,39.272 43.2529,35.9387 43.5,32.5C 44.5,31.8333 45.5,31.1667 46.5,30.5 Z"/></g>
<g><path style="opacity:1" fill="#fae38e" d="M -0.5,40.5 C -0.166667,40.5 0.166667,40.5 0.5,40.5C 2.85684,40.3367 5.19018,40.5034 7.5,41C 6.74756,41.6708 6.41423,42.5041 6.5,43.5C 3.94731,45.5968 1.61398,47.9302 -0.5,50.5C -0.5,47.1667 -0.5,43.8333 -0.5,40.5 Z"/></g>
<g><path style="opacity:1" fill="#fae893" d="M 66.5,40.5 C 67.5,40.5 68.5,40.5 69.5,40.5C 70.5,40.5 71.5,40.5 72.5,40.5C 75.8499,40.335 79.1832,40.5017 82.5,41C 81.9152,42.3024 81.2485,43.469 80.5,44.5C 79.2652,44.2786 78.2652,43.6119 77.5,42.5C 73.1022,47.1701 68.1022,47.8368 62.5,44.5C 63.6888,43.5713 65.0222,43.238 66.5,43.5C 66.5,42.5 66.5,41.5 66.5,40.5 Z"/></g>
<g><path style="opacity:1" fill="#f4c775" d="M 97.5,42.5 C 98.7024,41.5946 100.036,41.5946 101.5,42.5C 101.5,43.1667 101.5,43.8333 101.5,44.5C 100.735,44.0766 99.9021,43.7432 99,43.5C 96.9645,45.4357 94.7978,47.1023 92.5,48.5C 91.0413,48.4326 89.7079,48.7659 88.5,49.5C 88.6716,48.5084 88.3382,47.8417 87.5,47.5C 88.8775,46.7656 90.3775,46.0989 92,45.5C 92.7203,43.8876 92.5536,42.3876 91.5,41C 92.0253,40.3076 92.6919,39.8076 93.5,39.5C 94.2826,41.2882 95.6159,42.2882 97.5,42.5 Z"/></g>
<g><path style="opacity:1" fill="#f4c774" d="M 19.5,39.5 C 19.4176,41.2517 20.2509,42.2517 22,42.5C 24.8776,42.3594 27.7109,42.3594 30.5,42.5C 26.6742,43.4796 26.6742,44.3129 30.5,45C 29.8921,45.8699 29.0588,46.3699 28,46.5C 26.0735,43.2252 23.9068,42.8919 21.5,45.5C 18.6223,47.1054 15.6223,48.4388 12.5,49.5C 12.5,48.1667 11.8333,47.5 10.5,47.5C 12.2646,46.5386 14.2646,46.2053 16.5,46.5C 16.179,43.4231 17.179,41.0897 19.5,39.5 Z"/></g>
<g><path style="opacity:1" fill="#ebbc6a" d="M 32.5,47.5 C 29.3033,47.4054 26.3033,48.0721 23.5,49.5C 22.8333,48.1667 22.1667,46.8333 21.5,45.5C 23.9068,42.8919 26.0735,43.2252 28,46.5C 29.0588,46.3699 29.8921,45.8699 30.5,45C 26.6742,44.3129 26.6742,43.4796 30.5,42.5C 31.1667,42.1667 31.8333,41.8333 32.5,41.5C 35.4112,42.8816 38.2445,42.5482 41,40.5C 41.5,40.8333 42,41.1667 42.5,41.5C 41.6906,43.0709 41.3573,44.7376 41.5,46.5C 39.5,46.8333 37.5,47.1667 35.5,47.5C 35.7521,44.0682 34.4188,43.0682 31.5,44.5C 32.1272,45.4168 32.4606,46.4168 32.5,47.5 Z"/></g>
<g><path style="opacity:1" fill="#f7d986" d="M 66.5,40.5 C 66.5,41.5 66.5,42.5 66.5,43.5C 65.0222,43.238 63.6888,43.5713 62.5,44.5C 68.1022,47.8368 73.1022,47.1701 77.5,42.5C 78.2652,43.6119 79.2652,44.2786 80.5,44.5C 79.075,45.922 78.075,47.5887 77.5,49.5C 77.1667,49.5 76.8333,49.5 76.5,49.5C 72.6266,47.0039 68.96,47.3372 65.5,50.5C 64.5326,51.8062 63.1993,52.4729 61.5,52.5C 61.5,53.5 61.5,54.5 61.5,55.5C 63.2624,55.6427 64.9291,55.3094 66.5,54.5C 67.6265,56.2695 67.1265,57.6028 65,58.5C 64.1841,57.1772 63.0174,56.5106 61.5,56.5C 61.1667,56.5 60.8333,56.5 60.5,56.5C 60.2748,51.752 60.7748,47.0853 62,42.5C 63.3297,41.4178 64.8297,40.7512 66.5,40.5 Z"/></g>
<g><path style="opacity:1" fill="#efc574" d="M 6.5,43.5 C 7.51163,44.8717 8.51163,46.205 9.5,47.5C 6.38159,50.6025 3.71492,53.9358 1.5,57.5C 5.17884,57.2756 8.8455,56.9422 12.5,56.5C 12.5,57.1667 12.5,57.8333 12.5,58.5C 11.7784,58.9175 11.2784,59.5842 11,60.5C 9.54213,59.2532 8.04213,59.2532 6.5,60.5C 5.39542,62.6114 3.72876,63.9447 1.5,64.5C 0.833333,63.1667 0.166667,61.8333 -0.5,60.5C -0.5,57.1667 -0.5,53.8333 -0.5,50.5C 1.61398,47.9302 3.94731,45.5968 6.5,43.5 Z"/></g>
<g><path style="opacity:1" fill="#e6b966" d="M 32.5,47.5 C 33.4345,48.5676 33.7678,49.901 33.5,51.5C 32.0638,53.3185 30.3971,53.6518 28.5,52.5C 31.1861,48.8242 30.8528,48.1575 27.5,50.5C 26.0413,50.4326 24.7079,50.7659 23.5,51.5C 22.7611,51.369 22.0944,51.5357 21.5,52C 22.3366,53.0113 22.67,54.1779 22.5,55.5C 21.5,55.5 20.5,55.5 19.5,55.5C 18.6618,55.1583 18.3284,54.4916 18.5,53.5C 18.5,52.5 18.5,51.5 18.5,50.5C 20.4147,50.7845 22.0813,50.4511 23.5,49.5C 26.3033,48.0721 29.3033,47.4054 32.5,47.5 Z"/></g>
<g><path style="opacity:1" fill="#f8d482" d="M 76.5,49.5 C 74.9138,51.6705 73.5804,54.0038 72.5,56.5C 70.4677,55.9522 69.4677,54.6188 69.5,52.5C 67.6203,52.7709 66.287,52.1042 65.5,50.5C 68.96,47.3372 72.6266,47.0039 76.5,49.5 Z"/></g>
<g><path style="opacity:1" fill="#f1c878" d="M 72.5,40.5 C 76.3507,39.1905 80.3507,39.1905 84.5,40.5C 85.1272,41.4168 85.4606,42.4168 85.5,43.5C 84.325,43.281 83.325,43.6143 82.5,44.5C 82.9943,46.0255 83.661,47.3588 84.5,48.5C 83.5,49.5 82.5,50.5 81.5,51.5C 80.3285,50.6554 78.9952,49.9887 77.5,49.5C 78.075,47.5887 79.075,45.922 80.5,44.5C 81.2485,43.469 81.9152,42.3024 82.5,41C 79.1832,40.5017 75.8499,40.335 72.5,40.5 Z"/></g>
<g><path style="opacity:1" fill="#eec06e" d="M 101.5,44.5 C 101.5,45.8333 101.5,47.1667 101.5,48.5C 99.772,49.379 97.9386,50.0457 96,50.5C 94.4498,50.1265 93.2832,49.4599 92.5,48.5C 94.7978,47.1023 96.9645,45.4357 99,43.5C 99.9021,43.7432 100.735,44.0766 101.5,44.5 Z"/></g>
<g><path style="opacity:1" fill="#eec16e" d="M 21.5,45.5 C 22.1667,46.8333 22.8333,48.1667 23.5,49.5C 22.0813,50.4511 20.4147,50.7845 18.5,50.5C 18.5,51.5 18.5,52.5 18.5,53.5C 16.3792,53.3253 14.3792,53.6586 12.5,54.5C 12.5,52.8333 12.5,51.1667 12.5,49.5C 15.6223,48.4388 18.6223,47.1054 21.5,45.5 Z"/></g>
<g><path style="opacity:1" fill="#926424" d="M 56.5,32.5 C 57.4944,42.9869 57.8278,53.6536 57.5,64.5C 56.1667,64.5 55.5,63.8333 55.5,62.5C 56.494,52.6806 56.8274,42.6806 56.5,32.5 Z"/></g>
<g><path style="opacity:1" fill="#e9bd6a" d="M 92.5,48.5 C 93.2832,49.4599 94.4498,50.1265 96,50.5C 97.9386,50.0457 99.772,49.379 101.5,48.5C 101.5,49.1667 101.5,49.8333 101.5,50.5C 97.7504,50.8407 97.0837,52.174 99.5,54.5C 98.6602,55.735 97.6602,56.735 96.5,57.5C 94.3129,56.9515 93.6462,55.7848 94.5,54C 92.5273,53.5045 90.5273,53.3379 88.5,53.5C 88.6747,55.6208 88.3414,57.6208 87.5,59.5C 87.6495,60.552 87.4828,61.552 87,62.5C 85.2495,63.2225 83.7495,64.2225 82.5,65.5C 82.6716,64.5084 82.3382,63.8417 81.5,63.5C 81.8877,59.6945 83.8877,57.3612 87.5,56.5C 87.1984,53.9407 87.5318,51.6074 88.5,49.5C 89.7079,48.7659 91.0413,48.4326 92.5,48.5 Z"/></g>
<g><path style="opacity:1" fill="#ddae5c" d="M 33.5,51.5 C 35.1261,53.2432 37.1261,53.7432 39.5,53C 38.4019,52.2303 38.4019,51.397 39.5,50.5C 40.2389,50.369 40.9056,50.5357 41.5,51C 40.6634,52.0113 40.33,53.1779 40.5,54.5C 39.0413,54.4326 37.7079,54.7659 36.5,55.5C 36.0831,54.8761 35.4164,54.5427 34.5,54.5C 31.8312,55.687 29.1645,56.5203 26.5,57C 26.0426,56.586 25.7093,56.086 25.5,55.5C 26.9501,54.1502 27.6168,52.4835 27.5,50.5C 30.8528,48.1575 31.1861,48.8242 28.5,52.5C 30.3971,53.6518 32.0638,53.3185 33.5,51.5 Z"/></g>
<g><path style="opacity:1" fill="#fae791" d="M 9.5,47.5 C 9.83333,47.5 10.1667,47.5 10.5,47.5C 11.8333,47.5 12.5,48.1667 12.5,49.5C 12.5,51.1667 12.5,52.8333 12.5,54.5C 12.5,55.1667 12.5,55.8333 12.5,56.5C 8.8455,56.9422 5.17884,57.2756 1.5,57.5C 3.71492,53.9358 6.38159,50.6025 9.5,47.5 Z"/></g>
<g><path style="opacity:1" fill="#f9e791" d="M 87.5,47.5 C 88.3382,47.8417 88.6716,48.5084 88.5,49.5C 87.5318,51.6074 87.1984,53.9407 87.5,56.5C 83.8455,56.9422 80.1788,57.2756 76.5,57.5C 76.5,56.5 76.5,55.5 76.5,54.5C 78.3325,53.7515 79.9991,52.7515 81.5,51.5C 82.5,50.5 83.5,49.5 84.5,48.5C 85.391,47.8902 86.391,47.5569 87.5,47.5 Z"/></g>
<g><path style="opacity:1" fill="#d0a156" d="M 56.5,32.5 C 56.5,32.1667 56.5,31.8333 56.5,31.5C 58.0481,31.8212 58.7148,32.8212 58.5,34.5C 58.5,43.1667 58.5,51.8333 58.5,60.5C 58.7678,62.099 58.4345,63.4324 57.5,64.5C 57.8278,53.6536 57.4944,42.9869 56.5,32.5 Z"/></g>
<g><path style="opacity:1" fill="#fbe08b" d="M 65.5,50.5 C 66.287,52.1042 67.6203,52.7709 69.5,52.5C 69.4677,54.6188 70.4677,55.9522 72.5,56.5C 71.3995,57.6049 70.7329,58.9382 70.5,60.5C 69.5655,61.5676 69.2322,62.901 69.5,64.5C 69.1667,64.5 68.8333,64.5 68.5,64.5C 66.5739,63.5139 64.5739,62.5139 62.5,61.5C 62.7678,59.901 62.4345,58.5676 61.5,57.5C 61.5,57.1667 61.5,56.8333 61.5,56.5C 63.0174,56.5106 64.1841,57.1772 65,58.5C 67.1265,57.6028 67.6265,56.2695 66.5,54.5C 64.9291,55.3094 63.2624,55.6427 61.5,55.5C 61.5,54.5 61.5,53.5 61.5,52.5C 63.1993,52.4729 64.5326,51.8062 65.5,50.5 Z"/></g>
<g><path style="opacity:1" fill="#e7bd6a" d="M 76.5,49.5 C 76.8333,49.5 77.1667,49.5 77.5,49.5C 78.9952,49.9887 80.3285,50.6554 81.5,51.5C 79.9991,52.7515 78.3325,53.7515 76.5,54.5C 75.5655,55.5676 75.2322,56.901 75.5,58.5C 76.552,58.3505 77.552,58.5172 78.5,59C 76.054,59.8808 73.7207,61.0475 71.5,62.5C 70.7025,62.0431 70.3691,61.3764 70.5,60.5C 70.7329,58.9382 71.3995,57.6049 72.5,56.5C 73.5804,54.0038 74.9138,51.6705 76.5,49.5 Z"/></g>
<g><path style="opacity:1" fill="#d6a856" d="M 18.5,53.5 C 18.3284,54.4916 18.6618,55.1583 19.5,55.5C 19.7214,56.7348 20.3881,57.7348 21.5,58.5C 20.675,59.3857 19.675,59.719 18.5,59.5C 16.7028,60.7298 14.7028,61.3964 12.5,61.5C 12.5,60.5 12.5,59.5 12.5,58.5C 12.5,57.8333 12.5,57.1667 12.5,56.5C 12.5,55.8333 12.5,55.1667 12.5,54.5C 14.3792,53.6586 16.3792,53.3253 18.5,53.5 Z"/></g>
<g><path style="opacity:1" fill="#d8a957" d="M 27.5,50.5 C 27.6168,52.4835 26.9501,54.1502 25.5,55.5C 25.7093,56.086 26.0426,56.586 26.5,57C 29.1645,56.5203 31.8312,55.687 34.5,54.5C 35.4164,54.5427 36.0831,54.8761 36.5,55.5C 36.5,56.1667 36.1667,56.5 35.5,56.5C 33.289,56.9668 31.289,57.9668 29.5,59.5C 30.9989,60.9038 30.6656,61.5704 28.5,61.5C 27.8333,61.3333 27.1667,61.1667 26.5,61C 26.1164,60.0494 25.7831,59.2161 25.5,58.5C 24.6814,56.2278 24.0147,53.8945 23.5,51.5C 24.7079,50.7659 26.0413,50.4326 27.5,50.5 Z"/></g>
<g><path style="opacity:1" fill="#d6a755" d="M 96.5,57.5 C 94.6125,59.269 92.2792,60.6023 89.5,61.5C 88.8182,60.7573 88.1515,60.0906 87.5,59.5C 88.3414,57.6208 88.6747,55.6208 88.5,53.5C 90.5273,53.3379 92.5273,53.5045 94.5,54C 93.6462,55.7848 94.3129,56.9515 96.5,57.5 Z"/></g>
<g><path style="opacity:1" fill="#dfb561" d="M 23.5,51.5 C 24.0147,53.8945 24.6814,56.2278 25.5,58.5C 24.5489,59.9187 24.2155,61.5853 24.5,63.5C 23.0599,65.3882 21.3932,66.0549 19.5,65.5C 19.6837,63.5851 19.3503,61.5851 18.5,59.5C 19.675,59.719 20.675,59.3857 21.5,58.5C 20.3881,57.7348 19.7214,56.7348 19.5,55.5C 20.5,55.5 21.5,55.5 22.5,55.5C 22.67,54.1779 22.3366,53.0113 21.5,52C 22.0944,51.5357 22.7611,51.369 23.5,51.5 Z"/></g>
<g><path style="opacity:1" fill="#e7b866" d="M 44.5,49.5 C 44.8288,55.2055 44.4954,60.8722 43.5,66.5C 40.9567,64.5221 38.2901,64.1887 35.5,65.5C 35.3387,62.8103 35.3387,59.8103 35.5,56.5C 36.1667,56.5 36.5,56.1667 36.5,55.5C 37.7079,54.7659 39.0413,54.4326 40.5,54.5C 40.33,53.1779 40.6634,52.0113 41.5,51C 40.9056,50.5357 40.2389,50.369 39.5,50.5C 39.4148,49.0047 40.0815,48.0047 41.5,47.5C 42.2652,48.6119 43.2652,49.2786 44.5,49.5 Z"/></g>
<g><path style="opacity:1" fill="#dbae5b" d="M 101.5,50.5 C 101.5,53.1667 101.5,55.8333 101.5,58.5C 99.6614,59.5819 97.6614,60.4153 95.5,61C 93.7286,62.5244 92.0619,64.0244 90.5,65.5C 89.0697,66.5375 87.403,67.2041 85.5,67.5C 84.5,66.8333 83.5,66.1667 82.5,65.5C 83.7495,64.2225 85.2495,63.2225 87,62.5C 87.4828,61.552 87.6495,60.552 87.5,59.5C 88.1515,60.0906 88.8182,60.7573 89.5,61.5C 92.2792,60.6023 94.6125,59.269 96.5,57.5C 97.6602,56.735 98.6602,55.735 99.5,54.5C 97.0837,52.174 97.7504,50.8407 101.5,50.5 Z"/></g>
<g><path style="opacity:1" fill="#efc672" d="M 76.5,54.5 C 76.5,55.5 76.5,56.5 76.5,57.5C 80.1788,57.2756 83.8455,56.9422 87.5,56.5C 83.8877,57.3612 81.8877,59.6945 81.5,63.5C 78.2615,63.8791 74.9282,64.2125 71.5,64.5C 70.8333,64.5 70.1667,64.5 69.5,64.5C 69.2322,62.901 69.5655,61.5676 70.5,60.5C 70.3691,61.3764 70.7025,62.0431 71.5,62.5C 73.7207,61.0475 76.054,59.8808 78.5,59C 77.552,58.5172 76.552,58.3505 75.5,58.5C 75.2322,56.901 75.5655,55.5676 76.5,54.5 Z"/></g>
<g><path style="opacity:1" fill="#fae38d" d="M 62.5,61.5 C 64.5739,62.5139 66.5739,63.5139 68.5,64.5C 67.8333,67.1667 67.1667,69.8333 66.5,72.5C 65.603,73.5981 64.7697,73.5981 64,72.5C 63.4518,68.8296 62.9518,65.1629 62.5,61.5 Z"/></g>
<g><path style="opacity:1" fill="#e3b462" d="M 35.5,56.5 C 35.3387,59.8103 35.3387,62.8103 35.5,65.5C 36.9626,68.0394 37.9626,70.3727 38.5,72.5C 38.5,73.1667 38.1667,73.5 37.5,73.5C 36.5267,74.984 35.1933,75.484 33.5,75C 34.7836,73.7025 34.6169,72.5358 33,71.5C 31.5415,73.8096 29.7081,74.1429 27.5,72.5C 28.3591,70.8941 28.5258,69.2275 28,67.5C 29.0113,68.3366 30.1779,68.67 31.5,68.5C 32.5952,63.6145 30.9285,61.9478 26.5,63.5C 27.0253,64.1924 27.6919,64.6924 28.5,65C 26.8065,66.2499 25.4732,67.7499 24.5,69.5C 24.1193,68.0689 23.1193,67.2355 21.5,67C 22.7659,66.6905 23.9326,66.1905 25,65.5C 25.6917,64.5632 25.525,63.8966 24.5,63.5C 24.2155,61.5853 24.5489,59.9187 25.5,58.5C 25.7831,59.2161 26.1164,60.0494 26.5,61C 27.1667,61.1667 27.8333,61.3333 28.5,61.5C 30.6656,61.5704 30.9989,60.9038 29.5,59.5C 31.289,57.9668 33.289,56.9668 35.5,56.5 Z"/></g>
<g><path style="opacity:1" fill="#ecbd6b" d="M 12.5,58.5 C 12.5,59.5 12.5,60.5 12.5,61.5C 10.2286,62.5518 8.22864,64.0518 6.5,66C 7.62402,66.2492 8.62402,66.7492 9.5,67.5C 8.49367,68.3957 8.49367,69.0623 9.5,69.5C 11.6705,67.9138 14.0038,66.5804 16.5,65.5C 17.7733,66.2565 17.7733,66.9232 16.5,67.5C 15.0992,67.9709 13.7658,68.6376 12.5,69.5C 14.9288,70.8813 14.5954,71.8813 11.5,72.5C 9.73535,71.5386 7.73535,71.2053 5.5,71.5C 5.87946,68.4331 4.87946,67.4331 2.5,68.5C 1.76589,67.2921 1.43255,65.9587 1.5,64.5C 3.72876,63.9447 5.39542,62.6114 6.5,60.5C 8.04213,59.2532 9.54213,59.2532 11,60.5C 11.2784,59.5842 11.7784,58.9175 12.5,58.5 Z"/></g>
<g><path style="opacity:1" fill="#dfb05e" d="M 18.5,59.5 C 19.3503,61.5851 19.6837,63.5851 19.5,65.5C 21.3932,66.0549 23.0599,65.3882 24.5,63.5C 25.525,63.8966 25.6917,64.5632 25,65.5C 23.9326,66.1905 22.7659,66.6905 21.5,67C 23.1193,67.2355 24.1193,68.0689 24.5,69.5C 24.1667,69.5 23.8333,69.5 23.5,69.5C 21.2375,67.8275 18.9042,67.1608 16.5,67.5C 17.7733,66.9232 17.7733,66.2565 16.5,65.5C 14.0038,66.5804 11.6705,67.9138 9.5,69.5C 8.49367,69.0623 8.49367,68.3957 9.5,67.5C 8.62402,66.7492 7.62402,66.2492 6.5,66C 8.22864,64.0518 10.2286,62.5518 12.5,61.5C 14.7028,61.3964 16.7028,60.7298 18.5,59.5 Z"/></g>
<g><path style="opacity:1" fill="#e2b462" d="M 101.5,58.5 C 101.5,59.1667 101.5,59.8333 101.5,60.5C 100.542,62.3024 99.8751,64.3024 99.5,66.5C 97.3674,68.2593 95.034,68.926 92.5,68.5C 91.4937,68.0623 91.4937,67.3957 92.5,66.5C 92.0431,65.7025 91.3764,65.3691 90.5,65.5C 92.0619,64.0244 93.7286,62.5244 95.5,61C 97.6614,60.4153 99.6614,59.5819 101.5,58.5 Z"/></g>
<g><path style="opacity:1" fill="#d5a757" d="M 44.5,42.5 C 45.1667,51.5 45.8333,60.5 46.5,69.5C 46.5,69.8333 46.5,70.1667 46.5,70.5C 43.7334,70.8583 41.0667,71.525 38.5,72.5C 37.9626,70.3727 36.9626,68.0394 35.5,65.5C 38.2901,64.1887 40.9567,64.5221 43.5,66.5C 44.4954,60.8722 44.8288,55.2055 44.5,49.5C 44.5,47.1667 44.5,44.8333 44.5,42.5 Z"/></g>
<g><path style="opacity:1" fill="#957c36" d="M 47.5,40.5 C 48.4933,49.3178 48.8266,58.3178 48.5,67.5C 50.1667,67.5 51.8333,67.5 53.5,67.5C 54.4682,65.3926 54.8016,63.0593 54.5,60.5C 55.3382,60.8417 55.6716,61.5084 55.5,62.5C 55.5,63.8333 56.1667,64.5 57.5,64.5C 57.5,66.1667 57.5,67.8333 57.5,69.5C 56.8333,69.8333 56.1667,70.1667 55.5,70.5C 52.5,70.5 49.5,70.5 46.5,70.5C 46.5,70.1667 46.5,69.8333 46.5,69.5C 47.4938,60.0144 47.8271,50.3478 47.5,40.5 Z"/></g>
<g><path style="opacity:1" fill="#e9be6f" d="M 60.5,56.5 C 60.8333,56.5 61.1667,56.5 61.5,56.5C 61.5,56.8333 61.5,57.1667 61.5,57.5C 61.2408,61.2396 61.5741,64.9062 62.5,68.5C 61.675,69.3857 60.675,69.719 59.5,69.5C 58.8333,69.5 58.1667,69.5 57.5,69.5C 57.5,67.8333 57.5,66.1667 57.5,64.5C 58.4345,63.4324 58.7678,62.099 58.5,60.5C 60.1765,59.8166 60.8432,58.4832 60.5,56.5 Z"/></g>
<g><path style="opacity:1" fill="#e5b664" d="M 90.5,65.5 C 91.3764,65.3691 92.0431,65.7025 92.5,66.5C 91.4937,67.3957 91.4937,68.0623 92.5,68.5C 95.034,68.926 97.3674,68.2593 99.5,66.5C 98.4413,69.6179 97.1079,72.6179 95.5,75.5C 94.448,75.6495 93.448,75.4828 92.5,75C 91.8878,73.6967 91.5545,72.5301 91.5,71.5C 90.5,72.1667 89.5,72.8333 88.5,73.5C 87.8933,73.3764 87.56,73.0431 87.5,72.5C 88.2891,72.2172 88.9558,71.7172 89.5,71C 87.913,70.1376 86.2464,69.4709 84.5,69C 85.056,68.6174 85.3893,68.1174 85.5,67.5C 87.403,67.2041 89.0697,66.5375 90.5,65.5 Z"/></g>
<g><path style="opacity:1" fill="#efc06e" d="M 27.5,72.5 C 26.1667,73.1667 25.1667,74.1667 24.5,75.5C 23.8333,75.5 23.1667,75.5 22.5,75.5C 22.5743,73.5891 23.5743,72.4224 25.5,72C 24.6195,71.2917 23.9528,70.4584 23.5,69.5C 23.8333,69.5 24.1667,69.5 24.5,69.5C 25.4732,67.7499 26.8065,66.2499 28.5,65C 27.6919,64.6924 27.0253,64.1924 26.5,63.5C 30.9285,61.9478 32.5952,63.6145 31.5,68.5C 30.1779,68.67 29.0113,68.3366 28,67.5C 28.5258,69.2275 28.3591,70.8941 27.5,72.5 Z"/></g>
<g><path style="opacity:1" fill="#f1c572" d="M 68.5,64.5 C 68.8333,64.5 69.1667,64.5 69.5,64.5C 70.1667,64.5 70.8333,64.5 71.5,64.5C 72.3479,66.0931 73.6813,67.2597 75.5,68C 73.1253,69.9636 70.4587,71.4636 67.5,72.5C 69.6551,73.0014 71.3218,74.0014 72.5,75.5C 71.5041,75.4142 70.6708,75.7476 70,76.5C 69.2904,75.0267 68.1238,74.3601 66.5,74.5C 66.5,73.8333 66.5,73.1667 66.5,72.5C 67.1667,69.8333 67.8333,67.1667 68.5,64.5 Z"/></g>
<g><path style="opacity:1" fill="#ecbd6b" d="M 81.5,63.5 C 82.3382,63.8417 82.6716,64.5084 82.5,65.5C 83.5,66.1667 84.5,66.8333 85.5,67.5C 85.3893,68.1174 85.056,68.6174 84.5,69C 86.2464,69.4709 87.913,70.1376 89.5,71C 88.9558,71.7172 88.2891,72.2172 87.5,72.5C 85.7354,71.5386 83.7354,71.2053 81.5,71.5C 81.762,70.0222 81.4287,68.6888 80.5,67.5C 78.7826,68.6685 78.1159,70.3352 78.5,72.5C 76.5168,73.4706 74.5168,74.4706 72.5,75.5C 71.3218,74.0014 69.6551,73.0014 67.5,72.5C 70.4587,71.4636 73.1253,69.9636 75.5,68C 73.6813,67.2597 72.3479,66.0931 71.5,64.5C 74.9282,64.2125 78.2615,63.8791 81.5,63.5 Z"/></g>
<g><path style="opacity:1" fill="#f9e18f" d="M 57.5,69.5 C 58.1667,69.5 58.8333,69.5 59.5,69.5C 60.3007,71.0418 60.634,72.7085 60.5,74.5C 57.9159,74.5267 55.2492,74.1933 52.5,73.5C 50.2383,74.4669 47.905,75.1336 45.5,75.5C 45.5,76.5 45.5,77.5 45.5,78.5C 45.1667,78.5 44.8333,78.5 44.5,78.5C 44.178,76.2776 44.8446,74.4443 46.5,73C 49.5787,72.0272 52.5787,71.1939 55.5,70.5C 56.1667,70.1667 56.8333,69.8333 57.5,69.5 Z"/></g>
<g><path style="opacity:0.922" fill="#f4c573" d="M 11.5,72.5 C 11.4921,75.5448 11.1587,78.5448 10.5,81.5C 11.8734,81.3433 13.2068,81.51 14.5,82C 13.436,83.5106 12.1026,83.6772 10.5,82.5C 6.8255,78.4933 4.15884,73.8266 2.5,68.5C 4.87946,67.4331 5.87946,68.4331 5.5,71.5C 7.73535,71.2053 9.73535,71.5386 11.5,72.5 Z"/></g>
<g><path style="opacity:1" fill="#f2ce7a" d="M 61.5,57.5 C 62.4345,58.5676 62.7678,59.901 62.5,61.5C 62.9518,65.1629 63.4518,68.8296 64,72.5C 64.7697,73.5981 65.603,73.5981 66.5,72.5C 66.5,73.1667 66.5,73.8333 66.5,74.5C 64.1546,75.9879 63.8212,77.9879 65.5,80.5C 64.1074,78.2948 62.4408,76.2948 60.5,74.5C 60.634,72.7085 60.3007,71.0418 59.5,69.5C 60.675,69.719 61.675,69.3857 62.5,68.5C 61.5741,64.9062 61.2408,61.2396 61.5,57.5 Z"/></g>
<g><path style="opacity:1" fill="#f2c371" d="M 87.5,72.5 C 86.5269,74.9479 86.1936,77.6146 86.5,80.5C 87.675,80.281 88.675,80.6143 89.5,81.5C 88.0065,82.1411 87.0065,83.1411 86.5,84.5C 84.6214,84.6068 84.2881,84.1068 85.5,83C 83.9873,80.9774 82.6539,81.1441 81.5,83.5C 80.646,82.4783 79.646,81.6449 78.5,81C 80.8333,80.6667 83.1667,80.3333 85.5,80C 83.5188,79.3946 83.1854,78.3946 84.5,77C 84.1667,76.8333 83.8333,76.6667 83.5,76.5C 82.8333,77.5 82.1667,78.5 81.5,79.5C 80.8182,78.7573 80.1515,78.0906 79.5,77.5C 79.5,77.1667 79.5,76.8333 79.5,76.5C 80.0967,76.2648 80.4301,75.7648 80.5,75C 79.9444,73.9889 79.2778,73.1556 78.5,72.5C 78.1159,70.3352 78.7826,68.6685 80.5,67.5C 81.4287,68.6888 81.762,70.0222 81.5,71.5C 83.7354,71.2053 85.7354,71.5386 87.5,72.5 Z"/></g>
<g><path style="opacity:1" fill="#e5b664" d="M 16.5,67.5 C 18.9042,67.1608 21.2375,67.8275 23.5,69.5C 23.9528,70.4584 24.6195,71.2917 25.5,72C 23.5743,72.4224 22.5743,73.5891 22.5,75.5C 18.3275,74.3072 17.9942,73.1406 21.5,72C 20.1821,70.3702 18.8488,70.2035 17.5,71.5C 15.9102,71.6282 14.5769,72.2949 13.5,73.5C 14.7786,75.1461 16.4453,76.3128 18.5,77C 16.5705,77.3501 14.5705,78.0168 12.5,79C 15.4225,80.6029 18.4225,81.7696 21.5,82.5C 19.8008,82.3398 18.1341,82.5065 16.5,83C 17.0485,84.5961 16.3818,85.7627 14.5,86.5C 12.8333,85.5 11.5,84.1667 10.5,82.5C 12.1026,83.6772 13.436,83.5106 14.5,82C 13.2068,81.51 11.8734,81.3433 10.5,81.5C 11.1587,78.5448 11.4921,75.5448 11.5,72.5C 14.5954,71.8813 14.9288,70.8813 12.5,69.5C 13.7658,68.6376 15.0992,67.9709 16.5,67.5 Z"/></g>
<g><path style="opacity:1" fill="#eabb69" d="M 17.5,71.5 C 16.0464,74.3999 17.0464,75.7332 20.5,75.5C 20.1167,78.462 21.1167,79.462 23.5,78.5C 22.4937,77.6043 22.4937,76.9377 23.5,76.5C 24.4252,77.3569 25.0919,78.3569 25.5,79.5C 23.8102,79.8564 22.8102,80.8564 22.5,82.5C 22.1667,82.5 21.8333,82.5 21.5,82.5C 18.4225,81.7696 15.4225,80.6029 12.5,79C 14.5705,78.0168 16.5705,77.3501 18.5,77C 16.4453,76.3128 14.7786,75.1461 13.5,73.5C 14.5769,72.2949 15.9102,71.6282 17.5,71.5 Z"/></g>
<g><path style="opacity:1" fill="#e8bf6c" d="M 46.5,70.5 C 49.5,70.5 52.5,70.5 55.5,70.5C 52.5787,71.1939 49.5787,72.0272 46.5,73C 44.8446,74.4443 44.178,76.2776 44.5,78.5C 44.38,79.5862 43.7133,80.2528 42.5,80.5C 41.5836,80.4573 40.9169,80.1239 40.5,79.5C 40.4142,78.5041 40.7476,77.6708 41.5,77C 40.2506,76.2599 39.2506,76.4265 38.5,77.5C 37.5655,76.4324 37.2322,75.099 37.5,73.5C 38.1667,73.5 38.5,73.1667 38.5,72.5C 41.0667,71.525 43.7334,70.8583 46.5,70.5 Z"/></g>
<g><path style="opacity:1" fill="#e0b15f" d="M 22.5,75.5 C 23.1667,75.5 23.8333,75.5 24.5,75.5C 26.9414,75.7499 28.9414,76.7499 30.5,78.5C 31.463,79.3635 31.463,80.0302 30.5,80.5C 29.2638,79.7542 27.9305,79.4208 26.5,79.5C 26.1667,79.5 25.8333,79.5 25.5,79.5C 25.0919,78.3569 24.4252,77.3569 23.5,76.5C 22.4937,76.9377 22.4937,77.6043 23.5,78.5C 21.1167,79.462 20.1167,78.462 20.5,75.5C 17.0464,75.7332 16.0464,74.3999 17.5,71.5C 18.8488,70.2035 20.1821,70.3702 21.5,72C 17.9942,73.1406 18.3275,74.3072 22.5,75.5 Z"/></g>
<g><path style="opacity:1" fill="#eabb69" d="M 37.5,73.5 C 37.2322,75.099 37.5655,76.4324 38.5,77.5C 36.1279,79.6667 33.4612,80.0001 30.5,78.5C 28.9414,76.7499 26.9414,75.7499 24.5,75.5C 25.1667,74.1667 26.1667,73.1667 27.5,72.5C 29.7081,74.1429 31.5415,73.8096 33,71.5C 34.6169,72.5358 34.7836,73.7025 33.5,75C 35.1933,75.484 36.5267,74.984 37.5,73.5 Z"/></g>
<g><path style="opacity:1" fill="#e9ba68" d="M 78.5,72.5 C 79.2778,73.1556 79.9444,73.9889 80.5,75C 80.4301,75.7648 80.0967,76.2648 79.5,76.5C 76.5097,77.3223 73.5097,78.3223 70.5,79.5C 68.7839,79.6287 67.1172,79.962 65.5,80.5C 63.8212,77.9879 64.1546,75.9879 66.5,74.5C 68.1238,74.3601 69.2904,75.0267 70,76.5C 70.6708,75.7476 71.5041,75.4142 72.5,75.5C 74.5168,74.4706 76.5168,73.4706 78.5,72.5 Z"/></g>
<g><path style="opacity:1" fill="#fae894" d="M 60.5,74.5 C 62.4408,76.2948 64.1074,78.2948 65.5,80.5C 65.8333,81.1667 66.1667,81.8333 66.5,82.5C 63.0573,82.6499 61.0573,80.9832 60.5,77.5C 59.7025,77.9569 59.3691,78.6236 59.5,79.5C 58.5178,78.8592 57.5178,78.1925 56.5,77.5C 56.891,78.7185 56.2244,79.5518 54.5,80C 51.7795,80.6015 49.1128,80.4349 46.5,79.5C 45.8333,79.5 45.5,79.1667 45.5,78.5C 45.5,77.5 45.5,76.5 45.5,75.5C 47.905,75.1336 50.2383,74.4669 52.5,73.5C 55.2492,74.1933 57.9159,74.5267 60.5,74.5 Z"/></g>
<g><path style="opacity:1" fill="#fae38f" d="M 59.5,79.5 C 58.2311,82.7563 59.5645,84.2563 63.5,84C 62.0072,85.1562 62.1739,85.9896 64,86.5C 66.1598,88.119 67.6598,87.7856 68.5,85.5C 69.9063,85.9731 70.573,86.9731 70.5,88.5C 65.5906,88.8796 60.9239,88.213 56.5,86.5C 53.1667,84.5 49.8333,82.5 46.5,80.5C 46.5,80.1667 46.5,79.8333 46.5,79.5C 49.1128,80.4349 51.7795,80.6015 54.5,80C 56.2244,79.5518 56.891,78.7185 56.5,77.5C 57.5178,78.1925 58.5178,78.8592 59.5,79.5 Z"/></g>
<g><path style="opacity:1" fill="#e8b968" d="M 95.5,75.5 C 93.7836,79.6028 91.1169,82.9361 87.5,85.5C 86.8333,85.5 86.5,85.1667 86.5,84.5C 87.0065,83.1411 88.0065,82.1411 89.5,81.5C 88.675,80.6143 87.675,80.281 86.5,80.5C 86.1936,77.6146 86.5269,74.9479 87.5,72.5C 87.56,73.0431 87.8933,73.3764 88.5,73.5C 89.5,72.8333 90.5,72.1667 91.5,71.5C 91.5545,72.5301 91.8878,73.6967 92.5,75C 93.448,75.4828 94.448,75.6495 95.5,75.5 Z"/></g>
<g><path style="opacity:1" fill="#edbe6c" d="M 79.5,76.5 C 79.5,76.8333 79.5,77.1667 79.5,77.5C 78.1999,78.8267 76.8665,80.16 75.5,81.5C 77.1526,83.1214 79.1526,84.2881 81.5,85C 82.6405,85.7412 82.6405,86.5745 81.5,87.5C 81.8555,88.5223 82.5222,89.189 83.5,89.5C 82.8333,90.8333 81.8333,91.8333 80.5,92.5C 79.5029,88.3405 76.8362,86.1739 72.5,86C 73.3279,85.0853 74.3279,84.4186 75.5,84C 73.7605,82.483 72.0938,80.983 70.5,79.5C 73.5097,78.3223 76.5097,77.3223 79.5,76.5 Z"/></g>
<g><path style="opacity:1" fill="#fbec97" d="M 66.5,82.5 C 67.1667,83.5 67.8333,84.5 68.5,85.5C 67.6598,87.7856 66.1598,88.119 64,86.5C 62.1739,85.9896 62.0072,85.1562 63.5,84C 59.5645,84.2563 58.2311,82.7563 59.5,79.5C 59.3691,78.6236 59.7025,77.9569 60.5,77.5C 61.0573,80.9832 63.0573,82.6499 66.5,82.5 Z"/></g>
<g><path style="opacity:1" fill="#f3c472" d="M 44.5,78.5 C 44.8333,78.5 45.1667,78.5 45.5,78.5C 45.5,79.1667 45.8333,79.5 46.5,79.5C 46.5,79.8333 46.5,80.1667 46.5,80.5C 45.9993,82.1285 45.9993,83.6285 46.5,85C 44.735,85.6397 43.0683,85.4731 41.5,84.5C 38.5274,83.9159 35.5274,83.2492 32.5,82.5C 34.3435,82.2448 36.3435,82.0781 38.5,82C 39.0659,81.0053 39.7326,80.172 40.5,79.5C 40.9169,80.1239 41.5836,80.4573 42.5,80.5C 43.7133,80.2528 44.38,79.5862 44.5,78.5 Z"/></g>
<g><path style="opacity:1" fill="#dfb05e" d="M 25.5,79.5 C 25.8333,79.5 26.1667,79.5 26.5,79.5C 28.0938,80.983 29.7605,82.483 31.5,84C 29.8455,84.6077 28.1789,85.1077 26.5,85.5C 24.5695,85.7706 23.2362,86.7706 22.5,88.5C 22.5,86.5 22.5,84.5 22.5,82.5C 22.8102,80.8564 23.8102,79.8564 25.5,79.5 Z"/></g>
<g><path style="opacity:1" fill="#e8b967" d="M 40.5,79.5 C 39.7326,80.172 39.0659,81.0053 38.5,82C 36.3435,82.0781 34.3435,82.2448 32.5,82.5C 35.5274,83.2492 38.5274,83.9159 41.5,84.5C 41.3893,85.1174 41.056,85.6174 40.5,86C 41.7375,86.2321 42.7375,86.7321 43.5,87.5C 41.8864,88.2714 40.3864,89.2714 39,90.5C 38.5,90.3333 38,90.1667 37.5,90C 39.0074,89.1627 39.5074,87.9961 39,86.5C 37.8668,88.2112 36.3668,88.7112 34.5,88C 36.0009,86.7485 37.6675,85.7485 39.5,85C 35.8982,84.489 32.8982,85.6557 30.5,88.5C 30.9569,89.2975 31.6236,89.6309 32.5,89.5C 30.7749,90.905 28.7749,91.405 26.5,91C 29.1078,89.063 29.1078,87.2296 26.5,85.5C 28.1789,85.1077 29.8455,84.6077 31.5,84C 29.7605,82.483 28.0938,80.983 26.5,79.5C 27.9305,79.4208 29.2638,79.7542 30.5,80.5C 31.463,80.0302 31.463,79.3635 30.5,78.5C 33.4612,80.0001 36.1279,79.6667 38.5,77.5C 39.2506,76.4265 40.2506,76.2599 41.5,77C 40.7476,77.6708 40.4142,78.5041 40.5,79.5 Z"/></g>
<g><path style="opacity:1" fill="#f2c573" d="M 70.5,79.5 C 72.0938,80.983 73.7605,82.483 75.5,84C 74.3279,84.4186 73.3279,85.0853 72.5,86C 76.8362,86.1739 79.5029,88.3405 80.5,92.5C 79.5,93.1667 78.5,93.8333 77.5,94.5C 76.8505,92.5648 76.5172,90.5648 76.5,88.5C 74.5,88.5 72.5,88.5 70.5,88.5C 70.573,86.9731 69.9063,85.9731 68.5,85.5C 67.8333,84.5 67.1667,83.5 66.5,82.5C 66.1667,81.8333 65.8333,81.1667 65.5,80.5C 67.1172,79.962 68.7839,79.6287 70.5,79.5 Z"/></g>
<g><path style="opacity:1" fill="#f4c573" d="M 86.5,84.5 C 86.5,85.1667 86.8333,85.5 87.5,85.5C 86.5,87.1667 85.1667,88.5 83.5,89.5C 82.5222,89.189 81.8555,88.5223 81.5,87.5C 82.6405,86.5745 82.6405,85.7412 81.5,85C 79.1526,84.2881 77.1526,83.1214 75.5,81.5C 76.8665,80.16 78.1999,78.8267 79.5,77.5C 80.1515,78.0906 80.8182,78.7573 81.5,79.5C 82.1667,78.5 82.8333,77.5 83.5,76.5C 83.8333,76.6667 84.1667,76.8333 84.5,77C 83.1854,78.3946 83.5188,79.3946 85.5,80C 83.1667,80.3333 80.8333,80.6667 78.5,81C 79.646,81.6449 80.646,82.4783 81.5,83.5C 82.6539,81.1441 83.9873,80.9774 85.5,83C 84.2881,84.1068 84.6214,84.6068 86.5,84.5 Z"/></g>
<g><path style="opacity:1" fill="#eabc6a" d="M 46.5,80.5 C 49.8333,82.5 53.1667,84.5 56.5,86.5C 56.5,86.8333 56.5,87.1667 56.5,87.5C 54.742,87.1231 53.0754,86.4565 51.5,85.5C 50.1451,86.1882 49.1451,87.1882 48.5,88.5C 47.8333,88.5 47.1667,88.5 46.5,88.5C 45.209,88.7373 44.209,88.404 43.5,87.5C 42.7375,86.7321 41.7375,86.2321 40.5,86C 41.056,85.6174 41.3893,85.1174 41.5,84.5C 43.0683,85.4731 44.735,85.6397 46.5,85C 45.9993,83.6285 45.9993,82.1285 46.5,80.5 Z"/></g>
<g><path style="opacity:1" fill="#d9aa58" d="M 21.5,82.5 C 21.8333,82.5 22.1667,82.5 22.5,82.5C 22.5,84.5 22.5,86.5 22.5,88.5C 20.5,88.5 18.5,88.5 16.5,88.5C 15.5,88.1667 14.8333,87.5 14.5,86.5C 16.3818,85.7627 17.0485,84.5961 16.5,83C 18.1341,82.5065 19.8008,82.3398 21.5,82.5 Z"/></g>
<g><path style="opacity:1" fill="#edbd6b" d="M 56.5,87.5 C 57.2389,87.369 57.9056,87.5357 58.5,88C 57.6634,89.0113 57.33,90.1779 57.5,91.5C 59.5,91.5 61.5,91.5 63.5,91.5C 62.3947,93.2231 60.7281,94.2231 58.5,94.5C 57.4928,95.8284 56.1595,96.8284 54.5,97.5C 53.913,96.7666 53.913,95.7666 54.5,94.5C 55.9498,95.6576 56.9498,95.1576 57.5,93C 56.7562,91.9614 55.7562,91.4614 54.5,91.5C 54.5,90.5 54.5,89.5 54.5,88.5C 52.5,88.5 50.5,88.5 48.5,88.5C 49.1451,87.1882 50.1451,86.1882 51.5,85.5C 53.0754,86.4565 54.742,87.1231 56.5,87.5 Z"/></g>
<g><path style="opacity:1" fill="#f0c270" d="M 56.5,87.5 C 56.5,87.1667 56.5,86.8333 56.5,86.5C 60.9239,88.213 65.5906,88.8796 70.5,88.5C 72.5,88.5 74.5,88.5 76.5,88.5C 76.5172,90.5648 76.8505,92.5648 77.5,94.5C 77.1667,94.5 76.8333,94.5 76.5,94.5C 75.8386,93.2825 75.1719,91.9492 74.5,90.5C 72.1204,91.767 69.9538,91.4337 68,89.5C 66.415,90.0439 64.915,90.7106 63.5,91.5C 61.5,91.5 59.5,91.5 57.5,91.5C 57.33,90.1779 57.6634,89.0113 58.5,88C 57.9056,87.5357 57.2389,87.369 56.5,87.5 Z"/></g>
<g><path style="opacity:1" fill="#e1b260" d="M 46.5,88.5 C 47.1667,88.5 47.8333,88.5 48.5,88.5C 50.5,88.5 52.5,88.5 54.5,88.5C 54.5,89.5 54.5,90.5 54.5,91.5C 53.2652,91.2786 52.2652,90.6119 51.5,89.5C 50.1198,90.9756 48.4531,91.9756 46.5,92.5C 45.937,94.7092 44.6036,96.2092 42.5,97C 43.1667,97.3333 43.8333,97.6667 44.5,98C 43.2644,99.0848 41.9311,99.9181 40.5,100.5C 38.4352,100.483 36.4352,100.15 34.5,99.5C 34.4142,98.5041 34.7476,97.6708 35.5,97C 37.7801,96.7674 39.7801,95.934 41.5,94.5C 40.1916,93.3744 38.8583,93.3744 37.5,94.5C 39.6586,92.6598 42.3253,91.4932 45.5,91C 46.2524,90.3292 46.5858,89.4959 46.5,88.5 Z"/></g>
<g><path style="opacity:1" fill="#dbac5a" d="M 43.5,87.5 C 44.209,88.404 45.209,88.7373 46.5,88.5C 46.5858,89.4959 46.2524,90.3292 45.5,91C 42.3253,91.4932 39.6586,92.6598 37.5,94.5C 35.5,94.8333 33.5,95.1667 31.5,95.5C 31.5,94.1667 31.5,92.8333 31.5,91.5C 34.8531,91.6547 35.1864,90.9881 32.5,89.5C 31.6236,89.6309 30.9569,89.2975 30.5,88.5C 32.8982,85.6557 35.8982,84.489 39.5,85C 37.6675,85.7485 36.0009,86.7485 34.5,88C 36.3668,88.7112 37.8668,88.2112 39,86.5C 39.5074,87.9961 39.0074,89.1627 37.5,90C 38,90.1667 38.5,90.3333 39,90.5C 40.3864,89.2714 41.8864,88.2714 43.5,87.5 Z"/></g>
<g><path style="opacity:1" fill="#daab59" d="M 76.5,94.5 C 76.1583,95.3382 75.4916,95.6716 74.5,95.5C 72.0876,95.756 70.4209,94.756 69.5,92.5C 67.7031,94.4491 65.7031,96.1158 63.5,97.5C 61.8333,97.5 60.1667,97.5 58.5,97.5C 58.5,96.5 58.5,95.5 58.5,94.5C 60.7281,94.2231 62.3947,93.2231 63.5,91.5C 64.915,90.7106 66.415,90.0439 68,89.5C 69.9538,91.4337 72.1204,91.767 74.5,90.5C 75.1719,91.9492 75.8386,93.2825 76.5,94.5 Z"/></g>
<g><path style="opacity:1" fill="#eebf6d" d="M 54.5,91.5 C 55.7562,91.4614 56.7562,91.9614 57.5,93C 56.9498,95.1576 55.9498,95.6576 54.5,94.5C 51.3563,95.1721 48.3563,96.1721 45.5,97.5C 45.5271,99.1993 46.1938,100.533 47.5,101.5C 45.1667,101.5 42.8333,101.5 40.5,101.5C 40.5,101.167 40.5,100.833 40.5,100.5C 41.9311,99.9181 43.2644,99.0848 44.5,98C 43.8333,97.6667 43.1667,97.3333 42.5,97C 44.6036,96.2092 45.937,94.7092 46.5,92.5C 48.4531,91.9756 50.1198,90.9756 51.5,89.5C 52.2652,90.6119 53.2652,91.2786 54.5,91.5 Z"/></g>
<g><path style="opacity:1" fill="#e6b665" d="M 26.5,85.5 C 29.1078,87.2296 29.1078,89.063 26.5,91C 28.7749,91.405 30.7749,90.905 32.5,89.5C 35.1864,90.9881 34.8531,91.6547 31.5,91.5C 31.5,92.8333 31.5,94.1667 31.5,95.5C 33.5,95.1667 35.5,94.8333 37.5,94.5C 38.8583,93.3744 40.1916,93.3744 41.5,94.5C 39.7801,95.934 37.7801,96.7674 35.5,97C 34.7476,97.6708 34.4142,98.5041 34.5,99.5C 27.4948,97.3375 21.4948,93.6708 16.5,88.5C 18.5,88.5 20.5,88.5 22.5,88.5C 23.2362,86.7706 24.5695,85.7706 26.5,85.5 Z"/></g>
<g><path style="opacity:1" fill="#e9bb68" d="M 74.5,95.5 C 70.0681,98.0871 65.4015,100.087 60.5,101.5C 57.5,101.5 54.5,101.5 51.5,101.5C 50.4619,99.8916 51.1286,98.8916 53.5,98.5C 54.1667,99.1667 54.8333,99.8333 55.5,100.5C 58.6502,100.234 61.3168,99.2343 63.5,97.5C 65.7031,96.1158 67.7031,94.4491 69.5,92.5C 70.4209,94.756 72.0876,95.756 74.5,95.5 Z"/></g>
<g><path style="opacity:1" fill="#deaf5d" d="M 54.5,94.5 C 53.913,95.7666 53.913,96.7666 54.5,97.5C 56.1595,96.8284 57.4928,95.8284 58.5,94.5C 58.5,95.5 58.5,96.5 58.5,97.5C 60.1667,97.5 61.8333,97.5 63.5,97.5C 61.3168,99.2343 58.6502,100.234 55.5,100.5C 54.8333,99.8333 54.1667,99.1667 53.5,98.5C 51.1286,98.8916 50.4619,99.8916 51.5,101.5C 50.1667,101.5 48.8333,101.5 47.5,101.5C 46.1938,100.533 45.5271,99.1993 45.5,97.5C 48.3563,96.1721 51.3563,95.1721 54.5,94.5 Z"/></g>
</svg>
