<svg width="1025" height="1025" viewBox="0 0 1025 1025" fill="none" xmlns="http://www.w3.org/2000/svg">
<path fill-rule="evenodd" clip-rule="evenodd" d="M512.413 0C795.211 0 1024.82 229.6 1024.82 512.406C1024.82 795.209 795.211 1024.81 512.413 1024.81C229.6 1024.81 0 795.209 0 512.406C0 229.6 229.6 0 512.413 0ZM554.991 360.718C554.991 360.718 595.985 339.473 628.454 294.996C660.905 250.519 658.681 238.333 671.369 238.921C684.04 239.509 721.495 237.506 733.408 264.229C741.007 281.281 873.392 741.086 873.392 741.086C873.392 741.086 796.542 717.455 775.43 707.551C754.234 697.62 626.027 541.314 607.24 525.477C588.453 509.642 561.815 513.61 561.815 513.61L557.889 569.983L614.081 648.243L514.232 785.91L415.293 648.385L467.812 570.317L463.87 512.364C463.87 512.364 433.221 508.921 415.967 525.595C401.645 539.457 268.585 699.814 252.755 705.548C213.481 719.772 151.41 743.192 151.41 743.192C151.41 743.192 277.98 293.102 295.882 267.429C313.793 241.754 358.225 238.365 368.031 241.676C377.837 244.989 368.402 267.607 407.088 313.062C439.607 351.249 475.664 362.142 475.664 362.142C475.664 362.142 490.559 297.744 488.739 281.238C487.425 269.375 458.68 265.607 458.68 265.607C458.68 265.607 475.951 250.812 490.003 249.218C512.295 246.692 537.585 247.017 540.416 262.911C543.196 278.573 554.991 360.718 554.991 360.718Z" fill="#56692D"/>
</svg>
