<svg width="83" height="83" viewBox="0 0 83 83" fill="none" xmlns="http://www.w3.org/2000/svg">
<g clip-path="url(#clip0_2_74)">
<path fill-rule="evenodd" clip-rule="evenodd" d="M35.5 -0.5C40.5 -0.5 45.5 -0.5 50.5 -0.5C54.7476 0.957146 58.7476 2.95715 62.5 5.5C61.8333 5.83333 61.1667 6.16667 60.5 6.5C58.7274 5.10768 56.7274 3.94102 54.5 3C47.8747 1.95523 41.208 1.28857 34.5 1C35.056 0.617425 35.3893 0.117425 35.5 -0.5Z" fill="#374B0A"/>
<path fill-rule="evenodd" clip-rule="evenodd" d="M31.5 -0.5C32.8333 -0.5 34.1667 -0.5 35.5 -0.5C35.3893 0.117425 35.056 0.617425 34.5 1C41.208 1.28857 47.8747 1.95523 54.5 3C56.7274 3.94102 58.7274 5.10768 60.5 6.5C58.0246 9.24111 55.0246 11.2411 51.5 12.5C50.8999 13.9002 49.8999 14.9002 48.5 15.5C50.0781 13.6824 49.5781 12.6824 47 12.5C45.6244 12.6842 44.7911 13.3509 44.5 14.5C43.8333 14.5 43.1667 14.5 42.5 14.5C42.5 13.8333 42.5 13.1667 42.5 12.5C43.6448 11.2073 43.3115 10.0407 41.5 9C36.4278 7.3923 32.7611 8.8923 30.5 13.5C30.6236 14.1067 30.9569 14.44 31.5 14.5C31.5 15.1667 31.5 15.8333 31.5 16.5C31.3893 17.1174 31.056 17.6174 30.5 18C31.9733 18.7096 32.6399 19.8762 32.5 21.5C31.0413 21.4326 29.7079 21.7659 28.5 22.5C28.5 21.1667 28.5 19.8333 28.5 18.5C29.404 17.791 29.7373 16.791 29.5 15.5C29.5603 12.979 28.8936 10.6457 27.5 8.5C29.2206 6.37713 28.7206 5.0438 26 4.5C20.7334 6.61423 16.5668 9.94757 13.5 14.5C13.9391 16.1043 14.6057 17.6043 15.5 19C13.867 21.8667 14.2003 24.3667 16.5 26.5C15.3052 28.7513 14.3052 31.0846 13.5 33.5C12.2502 33.5774 11.4169 34.244 11 35.5C8.88558 34.0467 7.55225 32.0467 7 29.5C6 31.1667 5 32.8333 4 34.5C3.72158 33.5842 3.22158 32.9175 2.5 32.5C4.2545 27.2397 6.58784 22.2397 9.5 17.5C9.15431 16.3044 8.65431 16.3044 8 17.5C4.73817 22.0238 2.5715 27.0238 1.5 32.5C1.51954 33.7261 1.85287 34.7261 2.5 35.5C1.16667 39.5 1.16667 43.5 2.5 47.5C1.86137 48.0968 1.52804 48.9302 1.5 50C2.27548 52.8224 2.94215 55.6557 3.5 58.5C1.97475 55.9209 0.641417 53.2542 -0.5 50.5C-0.5 44.1667 -0.5 37.8333 -0.5 31.5C4.5 15.1667 15.1667 4.5 31.5 -0.5Z" fill="#5A700C"/>
<path fill-rule="evenodd" clip-rule="evenodd" d="M42.5 12.5C38.3125 9.77454 34.6459 10.4412 31.5 14.5C30.9569 14.44 30.6236 14.1067 30.5 13.5C32.7611 8.8923 36.4278 7.3923 41.5 9C43.3115 10.0407 43.6448 11.2073 42.5 12.5Z" fill="#12150A"/>
<path opacity="0.227" fill-rule="evenodd" clip-rule="evenodd" d="M66.5 8.5C71.7976 11.4135 75.4642 15.7468 77.5 21.5C75.031 18.8562 72.6976 16.0228 70.5 13C68.9221 11.9055 67.2554 11.0722 65.5 10.5C65.8333 9.83333 66.1667 9.16667 66.5 8.5Z" fill="#3D5007"/>
<path fill-rule="evenodd" clip-rule="evenodd" d="M62.5 5.5C64.4044 5.73758 65.7377 6.73758 66.5 8.5C66.1667 9.16667 65.8333 9.83333 65.5 10.5C63.3962 12.0987 61.3962 13.932 59.5 16C58.5632 16.6917 57.8966 16.525 57.5 15.5C59.7887 13.552 62.122 11.552 64.5 9.5C64.1667 9.16667 63.8333 8.83333 63.5 8.5C60.9583 11.2651 57.9583 13.2651 54.5 14.5C52.8212 14.7148 51.8212 14.0481 51.5 12.5C55.0246 11.2411 58.0246 9.24111 60.5 6.5C61.1667 6.16667 61.8333 5.83333 62.5 5.5Z" fill="#101209"/>
<path fill-rule="evenodd" clip-rule="evenodd" d="M57.5 15.5C56.5987 16.2905 55.9321 17.2905 55.5 18.5C55.7792 22.4695 55.1125 26.4695 53.5 30.5C51.0504 30.702 48.717 30.3686 46.5 29.5C45.5233 32.2869 45.19 35.2869 45.5 38.5C46.8221 38.33 47.9887 38.6634 49 39.5C49.4414 43.8099 50.6081 48.1433 52.5 52.5C54.1993 52.5271 55.5326 53.1938 56.5 54.5C57.1667 57.1667 57.8333 59.8333 58.5 62.5C58.8333 63.5 59.5 64.1667 60.5 64.5C61.8001 65.8267 63.1335 67.16 64.5 68.5C61.0202 69.8056 57.6868 69.8056 54.5 68.5C54.6716 67.5084 54.3382 66.8417 53.5 66.5C52.6916 63.5498 51.3582 60.8831 49.5 58.5C49.5754 53.0549 47.242 48.8883 42.5 46C38.7949 44.6872 36.4615 45.8539 35.5 49.5C30.7172 53.4778 27.3839 58.4778 25.5 64.5C24.8333 64.5 24.5 64.8333 24.5 65.5C23.596 66.209 23.2627 67.209 23.5 68.5C21.396 68.7989 19.396 68.4656 17.5 67.5C17.7437 65.45 18.077 63.45 18.5 61.5C20.4741 59.572 21.9741 57.2387 23 54.5C27.6517 51.8737 30.3184 47.8737 31 42.5C33.2676 40.8404 34.1009 38.8404 33.5 36.5C31.1667 38.1667 29.1667 40.1667 27.5 42.5C24.8729 40.9161 24.8729 39.2495 27.5 37.5C25.9951 36.1585 25.3285 34.4918 25.5 32.5C26.8245 29.851 28.1578 27.1843 29.5 24.5C33.5577 24.2879 35.0577 22.2879 34 18.5C33.5831 17.244 32.7498 16.5774 31.5 16.5C31.5 15.8333 31.5 15.1667 31.5 14.5C34.6459 10.4412 38.3125 9.77454 42.5 12.5C42.5 13.1667 42.5 13.8333 42.5 14.5C42.6427 16.2624 42.3094 17.9291 41.5 19.5C43.1932 20.2283 44.6932 21.2283 46 22.5C48.6472 19.4314 51.4805 16.7647 54.5 14.5C57.9583 13.2651 60.9583 11.2651 63.5 8.5C63.8333 8.83333 64.1667 9.16667 64.5 9.5C62.122 11.552 59.7887 13.552 57.5 15.5Z" fill="#F2F3C1"/>
<path fill-rule="evenodd" clip-rule="evenodd" d="M48.5 15.5C48.189 16.4778 47.5223 17.1445 46.5 17.5C45.8243 16.3984 45.1577 15.3984 44.5 14.5C44.7911 13.3509 45.6244 12.6842 47 12.5C49.5781 12.6824 50.0781 13.6824 48.5 15.5Z" fill="#91A742"/>
<path fill-rule="evenodd" clip-rule="evenodd" d="M51.5 12.5C51.8212 14.0481 52.8212 14.7148 54.5 14.5C51.4805 16.7647 48.6472 19.4314 46 22.5C44.6932 21.2283 43.1932 20.2283 41.5 19.5C42.3094 17.9291 42.6427 16.2624 42.5 14.5C43.1667 14.5 43.8333 14.5 44.5 14.5C45.1577 15.3984 45.8243 16.3984 46.5 17.5C47.5223 17.1445 48.189 16.4778 48.5 15.5C49.8999 14.9002 50.8999 13.9002 51.5 12.5Z" fill="#1A2311"/>
<path fill-rule="evenodd" clip-rule="evenodd" d="M31.5 16.5C32.7498 16.5774 33.5831 17.244 34 18.5C35.0577 22.2879 33.5577 24.2879 29.5 24.5C28.1578 27.1843 26.8245 29.851 25.5 32.5C24.6618 32.1583 24.3284 31.4916 24.5 30.5C25.2784 27.4605 26.6117 24.7938 28.5 22.5C29.7079 21.7659 31.0413 21.4326 32.5 21.5C32.6399 19.8762 31.9733 18.7096 30.5 18C31.056 17.6174 31.3893 17.1174 31.5 16.5Z" fill="#162210"/>
<path fill-rule="evenodd" clip-rule="evenodd" d="M29.5 15.5C24.256 18.0763 19.9227 21.743 16.5 26.5C14.2003 24.3667 13.867 21.8667 15.5 19C14.6057 17.6043 13.9391 16.1043 13.5 14.5C16.5668 9.94757 20.7334 6.61423 26 4.5C28.7206 5.0438 29.2206 6.37713 27.5 8.5C28.8936 10.6457 29.5603 12.979 29.5 15.5Z" fill="#677E12"/>
<path fill-rule="evenodd" clip-rule="evenodd" d="M50.5 21.5C51.555 23.1117 51.055 24.445 49 25.5C48.5 25.1667 48 24.8333 47.5 24.5C48.3398 23.265 49.3398 22.265 50.5 21.5Z" fill="#333F24"/>
<path fill-rule="evenodd" clip-rule="evenodd" d="M65.5 10.5C67.2554 11.0722 68.9221 11.9055 70.5 13C72.6976 16.0228 75.031 18.8562 77.5 21.5C79.5505 24.6582 81.2172 27.9915 82.5 31.5C82.5 37.8333 82.5 44.1667 82.5 50.5C80.0358 58.0961 76.0358 64.7628 70.5 70.5C69.5041 70.5858 68.6708 70.2524 68 69.5C67.6667 70.1667 67.3333 70.8333 67 71.5C66.8091 69.2922 66.3091 67.2922 65.5 65.5C63.9557 65.2969 62.6223 64.6302 61.5 63.5C60.8933 63.6236 60.56 63.9569 60.5 64.5C59.5 64.1667 58.8333 63.5 58.5 62.5C59.1667 62.5 59.8333 62.5 60.5 62.5C61.552 62.6495 62.552 62.4828 63.5 62C68.4083 56.4469 71.075 49.9469 71.5 42.5C72.5832 42.4606 73.5832 42.1272 74.5 41.5C75.6652 42.4911 76.8319 43.4911 78 44.5C79.3004 45.452 80.467 45.452 81.5 44.5C80.2713 43.7189 78.938 43.2189 77.5 43C78.9928 41.8438 78.8261 41.0104 77 40.5C75.6583 39.6871 74.4917 39.3538 73.5 39.5C75.8275 38.276 78.1608 38.276 80.5 39.5C80.8333 38.5 81.1667 37.5 81.5 36.5C80.8295 33.1539 80.1628 29.8206 79.5 26.5C75.2798 26.6098 71.9464 28.2765 69.5 31.5C67.3705 25.8618 63.8705 21.1951 59 17.5C57.9701 17.8361 57.4701 18.5028 57.5 19.5C56.8333 19.1667 56.1667 18.8333 55.5 18.5C55.9321 17.2905 56.5987 16.2905 57.5 15.5C57.8966 16.525 58.5632 16.6917 59.5 16C61.3962 13.932 63.3962 12.0987 65.5 10.5Z" fill="#5F760D"/>
<path fill-rule="evenodd" clip-rule="evenodd" d="M2.5 32.5C2.5 33.5 2.5 34.5 2.5 35.5C1.85287 34.7261 1.51954 33.7261 1.5 32.5C2.5715 27.0238 4.73817 22.0238 8 17.5C8.65431 16.3044 9.15431 16.3044 9.5 17.5C6.58784 22.2397 4.2545 27.2397 2.5 32.5Z" fill="#344703"/>
<path fill-rule="evenodd" clip-rule="evenodd" d="M55.5 18.5C56.1667 18.8333 56.8333 19.1667 57.5 19.5C57.5 19.8333 57.5 20.1667 57.5 20.5C57.5867 25.0416 56.2534 29.0416 53.5 32.5C51.5 32.5 49.5 32.5 47.5 32.5C47.6495 33.552 47.4828 34.552 47 35.5C46.5045 33.5273 46.3379 31.5273 46.5 29.5C48.717 30.3686 51.0504 30.702 53.5 30.5C55.1125 26.4695 55.7792 22.4695 55.5 18.5Z" fill="#243214"/>
<path fill-rule="evenodd" clip-rule="evenodd" d="M57.5 20.5C65.2227 25.4425 68.8894 32.6092 68.5 42C68.6695 49.4851 66.0028 55.6518 60.5 60.5C59.5014 57.8382 58.5014 55.1716 57.5 52.5C56.7005 50.4265 55.3671 48.7598 53.5 47.5C54.4959 47.4142 55.3292 47.7476 56 48.5C60.5228 44.9332 62.1895 40.2665 61 34.5C60.6121 35.428 59.9454 36.0946 59 36.5C57.5054 34.8368 55.672 33.8368 53.5 33.5C53.5 33.1667 53.5 32.8333 53.5 32.5C56.2534 29.0416 57.5867 25.0416 57.5 20.5Z" fill="#7C9225"/>
<path fill-rule="evenodd" clip-rule="evenodd" d="M71.5 42.5C71.3413 38.7091 70.6746 35.0424 69.5 31.5C71.9464 28.2765 75.2798 26.6098 79.5 26.5C80.1628 29.8206 80.8295 33.1539 81.5 36.5C81.1667 37.5 80.8333 38.5 80.5 39.5C78.1608 38.276 75.8275 38.276 73.5 39.5C74.4917 39.3538 75.6583 39.6871 77 40.5C78.8261 41.0104 78.9928 41.8438 77.5 43C78.938 43.2189 80.2713 43.7189 81.5 44.5C80.467 45.452 79.3004 45.452 78 44.5C76.8319 43.4911 75.6652 42.4911 74.5 41.5C73.5832 42.1272 72.5832 42.4606 71.5 42.5Z" fill="#72881A"/>
<path fill-rule="evenodd" clip-rule="evenodd" d="M13.5 33.5C11.8005 41.0383 12.4672 48.3717 15.5 55.5C13.0272 55.3957 12.3606 54.3957 13.5 52.5C10.9699 46.1741 9.80323 46.5074 10 53.5C7.35548 53.4772 4.85548 52.4772 2.5 50.5C2.5 49.5 2.5 48.5 2.5 47.5C1.16667 43.5 1.16667 39.5 2.5 35.5C2.5 34.5 2.5 33.5 2.5 32.5C3.22158 32.9175 3.72158 33.5842 4 34.5C5 32.8333 6 31.1667 7 29.5C7.55225 32.0467 8.88558 34.0467 11 35.5C11.4169 34.244 12.2502 33.5774 13.5 33.5Z" fill="#6D8316"/>
<path fill-rule="evenodd" clip-rule="evenodd" d="M46.5 29.5C46.3379 31.5273 46.5045 33.5273 47 35.5C47.4828 34.552 47.6495 33.552 47.5 32.5C49.5 32.5 51.5 32.5 53.5 32.5C53.5 32.8333 53.5 33.1667 53.5 33.5C51.8333 33.5 50.1667 33.5 48.5 33.5C51.1078 37.7945 52.7744 42.4612 53.5 47.5C55.3671 48.7598 56.7005 50.4265 57.5 52.5C56.6618 52.8417 56.3284 53.5084 56.5 54.5C55.5326 53.1938 54.1993 52.5271 52.5 52.5C50.6081 48.1433 49.4414 43.8099 49 39.5C47.9887 38.6634 46.8221 38.33 45.5 38.5C45.19 35.2869 45.5233 32.2869 46.5 29.5Z" fill="#3D5019"/>
<path fill-rule="evenodd" clip-rule="evenodd" d="M24.5 30.5C24.3284 31.4916 24.6618 32.1583 25.5 32.5C25.3285 34.4918 25.9951 36.1585 27.5 37.5C24.8729 39.2495 24.8729 40.9161 27.5 42.5C29.1667 40.1667 31.1667 38.1667 33.5 36.5C34.1009 38.8404 33.2676 40.8404 31 42.5C30.3184 47.8737 27.6517 51.8737 23 54.5C21.9741 57.2387 20.4741 59.572 18.5 61.5C18.5 60.8333 18.1667 60.5 17.5 60.5C17.8333 59.8333 18.1667 59.1667 18.5 58.5C20.5386 53.9559 23.5386 50.1226 27.5 47C23.5474 41.9433 22.5474 36.4433 24.5 30.5Z" fill="#2F3F14"/>
<path fill-rule="evenodd" clip-rule="evenodd" d="M29.5 15.5C29.7373 16.791 29.404 17.791 28.5 18.5C17.1909 25.8044 13.0242 36.1377 16 49.5C17.4301 52.3527 18.2634 55.3527 18.5 58.5C17.2719 57.6935 16.2719 56.6935 15.5 55.5C12.4672 48.3717 11.8005 41.0383 13.5 33.5C14.3052 31.0846 15.3052 28.7513 16.5 26.5C19.9227 21.743 24.256 18.0763 29.5 15.5Z" fill="#B0C658"/>
<path fill-rule="evenodd" clip-rule="evenodd" d="M69.5 31.5C70.6746 35.0424 71.3413 38.7091 71.5 42.5C71.075 49.9469 68.4083 56.4469 63.5 62C62.552 62.4828 61.552 62.6495 60.5 62.5C60.5 61.8333 60.5 61.1667 60.5 60.5C66.0028 55.6518 68.6695 49.4851 68.5 42C68.8894 32.6092 65.2227 25.4425 57.5 20.5C57.5 20.1667 57.5 19.8333 57.5 19.5C57.4701 18.5028 57.9701 17.8361 59 17.5C63.8705 21.1951 67.3705 25.8618 69.5 31.5Z" fill="#B3C95B"/>
<path fill-rule="evenodd" clip-rule="evenodd" d="M28.5 18.5C28.5 19.8333 28.5 21.1667 28.5 22.5C26.6117 24.7938 25.2784 27.4605 24.5 30.5C22.5474 36.4433 23.5474 41.9433 27.5 47C23.5386 50.1226 20.5386 53.9559 18.5 58.5C18.2634 55.3527 17.4301 52.3527 16 49.5C13.0242 36.1377 17.1909 25.8044 28.5 18.5Z" fill="#778D23"/>
<path fill-rule="evenodd" clip-rule="evenodd" d="M53.5 33.5C55.672 33.8368 57.5054 34.8368 59 36.5C59.9454 36.0946 60.6121 35.428 61 34.5C62.1895 40.2665 60.5228 44.9332 56 48.5C55.3292 47.7476 54.4959 47.4142 53.5 47.5C52.7744 42.4612 51.1078 37.7945 48.5 33.5C50.1667 33.5 51.8333 33.5 53.5 33.5Z" fill="#9BB144"/>
<path fill-rule="evenodd" clip-rule="evenodd" d="M49.5 58.4999C48.5084 58.3283 47.8417 58.6617 47.5 59.4999C47.1667 59.4999 46.8333 59.4999 46.5 59.4999C46.6621 57.4726 46.4955 55.4726 46 53.4999C44.4708 52.2712 43.3041 50.7712 42.5 48.9999C40.1599 48.2515 38.1599 48.7515 36.5 50.4999C36.5 49.8332 36.1667 49.4999 35.5 49.4999C36.4615 45.8538 38.7949 44.6871 42.5 45.9999C47.242 48.8882 49.5754 53.0548 49.5 58.4999Z" fill="#364914"/>
<path fill-rule="evenodd" clip-rule="evenodd" d="M35.5 49.5C36.1667 49.5 36.5 49.8333 36.5 50.5C35.7515 52.3325 34.7515 53.9991 33.5 55.5C32.6618 55.8417 32.3284 56.5084 32.5 57.5C30.5879 59.6572 28.9213 61.9906 27.5 64.5C26.8333 64.5 26.1667 64.5 25.5 64.5C27.3839 58.4778 30.7172 53.4778 35.5 49.5Z" fill="#213113"/>
<path fill-rule="evenodd" clip-rule="evenodd" d="M15.5 55.5C16.2719 56.6935 17.2719 57.6935 18.5 58.5C18.1667 59.1667 17.8333 59.8333 17.5 60.5C16.8902 61.391 16.5569 62.391 16.5 63.5C15.8386 64.7175 15.1719 66.0508 14.5 67.5C7.47176 64.1142 3.47176 58.4476 2.5 50.5C4.85548 52.4772 7.35548 53.4772 10 53.5C9.80323 46.5074 10.9699 46.1741 13.5 52.5C12.3606 54.3957 13.0272 55.3957 15.5 55.5Z" fill="#597008"/>
<path fill-rule="evenodd" clip-rule="evenodd" d="M46.5 59.4999C45.0335 56.7416 44.3668 57.0749 44.5 60.4999C42.0421 59.3768 39.8754 59.3768 38 60.4999C37.6667 59.4999 37.3333 58.4999 37 57.4999C35.9887 58.3365 34.8221 58.6699 33.5 58.4999C33.5 57.4999 33.5 56.4999 33.5 55.4999C34.7515 53.999 35.7515 52.3324 36.5 50.4999C38.1599 48.7515 40.1599 48.2515 42.5 48.9999C43.3041 50.7712 44.4708 52.2712 46 53.4999C46.4955 55.4726 46.6621 57.4726 46.5 59.4999Z" fill="#94AB3E"/>
<path fill-rule="evenodd" clip-rule="evenodd" d="M57.5 52.5C58.5014 55.1716 59.5014 57.8382 60.5 60.5C60.5 61.1667 60.5 61.8333 60.5 62.5C59.8333 62.5 59.1667 62.5 58.5 62.5C57.8333 59.8333 57.1667 57.1667 56.5 54.5C56.3284 53.5084 56.6618 52.8417 57.5 52.5Z" fill="#202914"/>
<path fill-rule="evenodd" clip-rule="evenodd" d="M33.5 55.5C33.5 56.5 33.5 57.5 33.5 58.5C34.8221 58.67 35.9887 58.3366 37 57.5C37.3333 58.5 37.6667 59.5 38 60.5C39.8754 59.3769 42.0421 59.3769 44.5 60.5C44.3668 57.075 45.0335 56.7417 46.5 59.5C46.8333 59.5 47.1667 59.5 47.5 59.5C48.1098 60.391 48.4431 61.391 48.5 62.5C46.2563 66.3991 43.423 67.0658 40 64.5C37.5459 66.013 35.8793 65.3463 35 62.5C33.9887 63.3366 32.8221 63.67 31.5 63.5C31.5172 61.4352 31.8505 59.4352 32.5 57.5C32.3284 56.5084 32.6618 55.8417 33.5 55.5Z" fill="#778F23"/>
<path fill-rule="evenodd" clip-rule="evenodd" d="M49.5 58.5C51.3582 60.8831 52.6916 63.5498 53.5 66.5C52.8333 66.8333 52.1667 67.1667 51.5 67.5C51.1667 67.5 50.8333 67.5 50.5 67.5C50.8799 65.302 50.2132 63.6354 48.5 62.5C48.4431 61.391 48.1098 60.391 47.5 59.5C47.8417 58.6618 48.5084 58.3284 49.5 58.5Z" fill="#14200E"/>
<path fill-rule="evenodd" clip-rule="evenodd" d="M2.5 47.5C2.5 48.5 2.5 49.5 2.5 50.5C3.47176 58.4476 7.47176 64.1142 14.5 67.5C15.1719 66.0508 15.8386 64.7175 16.5 63.5C16.5 65.8333 16.5 68.1667 16.5 70.5C19.9387 70.7471 23.272 70.4137 26.5 69.5C23.2994 71.2603 19.6327 72.0936 15.5 72C25.707 80.148 37.3737 83.3147 50.5 81.5C50.5 81.8333 50.5 82.1667 50.5 82.5C44.1667 82.5 37.8333 82.5 31.5 82.5C20.9583 79.4682 12.4583 73.4682 6 64.5C4.87803 62.5932 4.04469 60.5932 3.5 58.5C2.94215 55.6557 2.27548 52.8224 1.5 50C1.52804 48.9302 1.86137 48.0968 2.5 47.5Z" fill="#374A07"/>
<path fill-rule="evenodd" clip-rule="evenodd" d="M32.5 57.5C31.8505 59.4352 31.5172 61.4352 31.5 63.5C32.8221 63.67 33.9887 63.3366 35 62.5C35.8793 65.3463 37.5459 66.013 40 64.5C43.423 67.0658 46.2563 66.3991 48.5 62.5C50.2132 63.6354 50.8799 65.302 50.5 67.5C42.6313 69.2198 34.9646 68.5531 27.5 65.5C27.5 65.1667 27.5 64.8333 27.5 64.5C28.9213 61.9906 30.5879 59.6572 32.5 57.5Z" fill="#647B16"/>
<path fill-rule="evenodd" clip-rule="evenodd" d="M17.5 60.5C18.1667 60.5 18.5 60.8333 18.5 61.5C18.077 63.45 17.7437 65.45 17.5 67.5C19.396 68.4656 21.396 68.7989 23.5 68.5C23.2627 67.209 23.596 66.209 24.5 65.5C26.1042 66.287 26.7709 67.6203 26.5 69.5C23.272 70.4137 19.9387 70.7471 16.5 70.5C16.5 68.1667 16.5 65.8333 16.5 63.5C16.5569 62.391 16.8902 61.391 17.5 60.5Z" fill="#0D0F0A"/>
<path fill-rule="evenodd" clip-rule="evenodd" d="M65.5 65.5C65.5 67.5 65.5 69.5 65.5 71.5C61.1667 71.5 56.8333 71.5 52.5 71.5C52.2852 69.8212 52.9519 68.8212 54.5 68.5C57.6868 69.8056 61.0202 69.8056 64.5 68.5C63.1335 67.16 61.8001 65.8267 60.5 64.5C60.56 63.9569 60.8933 63.6236 61.5 63.5C62.6223 64.6302 63.9557 65.2969 65.5 65.5Z" fill="#0C0F08"/>
<path fill-rule="evenodd" clip-rule="evenodd" d="M24.5 65.5C24.5 64.8333 24.8333 64.5 25.5 64.5C26.1667 64.5 26.8333 64.5 27.5 64.5C27.5 64.8333 27.5 65.1667 27.5 65.5C28.2187 67.8881 29.8854 69.3881 32.5 70C38.8017 71.7642 45.135 71.9309 51.5 70.5C51.5 69.5 51.5 68.5 51.5 67.5C52.1667 67.1667 52.8333 66.8333 53.5 66.5C54.3382 66.8417 54.6716 67.5084 54.5 68.5C52.9519 68.8212 52.2852 69.8212 52.5 71.5C56.8333 71.5 61.1667 71.5 65.5 71.5C65.5 69.5 65.5 67.5 65.5 65.5C66.3091 67.2922 66.8091 69.2922 67 71.5C67.3333 70.8333 67.6667 70.1667 68 69.5C68.6708 70.2524 69.5041 70.5858 70.5 70.5C65.0523 76.227 58.3857 79.8937 50.5 81.5C37.3737 83.3147 25.707 80.148 15.5 72C19.6327 72.0936 23.2994 71.2603 26.5 69.5C26.7709 67.6203 26.1042 66.287 24.5 65.5Z" fill="#506607"/>
<path fill-rule="evenodd" clip-rule="evenodd" d="M27.5 65.5C34.9646 68.5531 42.6313 69.2198 50.5 67.5C50.8333 67.5 51.1667 67.5 51.5 67.5C51.5 68.5 51.5 69.5 51.5 70.5C45.135 71.9309 38.8017 71.7642 32.5 70C29.8854 69.3881 28.2187 67.8881 27.5 65.5Z" fill="#A1B84F"/>
</g>
<defs>
<clipPath id="clip0_2_74">
<rect width="83" height="83" fill="white"/>
</clipPath>
</defs>
</svg>
