<svg width="83" height="83" viewBox="0 0 83 83" fill="none" xmlns="http://www.w3.org/2000/svg">
<g clip-path="url(#clip0_2_15)">
<path fill-rule="evenodd" clip-rule="evenodd" d="M31.5 -0.5C37.8333 -0.5 44.1667 -0.5 50.5 -0.5C59.1213 2.1439 66.4546 6.81056 72.5 13.5C70.2108 11.9941 67.8774 10.8274 65.5 10C77.9846 20.6115 83.3179 34.1115 81.5 50.5C79.721 60.4221 74.721 68.0887 66.5 73.5C68.1614 70.4767 67.4947 68.1433 64.5 66.5C64.2671 64.9382 63.6005 63.6049 62.5 62.5C66.8821 59.4368 69.5487 55.1035 70.5 49.5C70.2528 48.2867 69.5862 47.62 68.5 47.5C68.5 47.1667 68.5 46.8333 68.5 46.5C69.9516 45.6981 71.6183 45.1981 73.5 45C76.5427 40.5112 75.2093 38.6779 69.5 39.5C69.1667 39.5 68.8333 39.5 68.5 39.5C68.1667 38.1667 67.8333 36.8333 67.5 35.5C68.5754 36.5624 69.5754 36.5624 70.5 35.5C69.8333 33.8333 69.1667 32.1667 68.5 30.5C68.0431 29.7025 67.3764 29.3691 66.5 29.5C68.9717 28.3579 69.9717 26.3579 69.5 23.5C66.4824 23.7038 63.4824 24.0371 60.5 24.5C60.5191 22.9397 60.8524 21.4397 61.5 20C60.2587 16.2699 58.9254 12.6033 57.5 9C55.2992 8.1751 53.4659 8.6751 52 10.5C51.8138 13.0356 51.3138 15.369 50.5 17.5C50.5 16.5 50.5 15.5 50.5 14.5C47.1667 14.1667 43.8333 13.8333 40.5 13.5C37.592 12.4309 34.592 12.2642 31.5 13C30.1772 13.8159 29.5106 14.9826 29.5 16.5C30.2979 19.1711 30.9646 22.0044 31.5 25C29.6199 27.2583 28.1199 29.7583 27 32.5C26.4257 30.508 25.259 29.008 23.5 28C19.7916 27.4305 16.2916 26.2639 13 24.5C12.0979 24.7432 11.2646 25.0766 10.5 25.5C10.3601 23.8762 11.0267 22.7096 12.5 22C11.8333 21.6667 11.1667 21.3333 10.5 21C12.3949 17.7596 14.3949 14.5929 16.5 11.5C18.8333 10.1667 21.1667 8.83333 23.5 7.5C24.1924 8.02527 24.6924 8.69194 25 9.5C27.1292 5.32327 30.6292 3.1566 35.5 3C33.4325 2.31312 31.4325 2.47978 29.5 3.5C28.7025 3.04311 28.3691 2.37644 28.5 1.5C29.5 0.833333 30.5 0.166667 31.5 -0.5Z" fill="#254778"/>
<path fill-rule="evenodd" clip-rule="evenodd" d="M29.5 16.5C29.6495 17.552 29.4828 18.552 29 19.5C25.9517 21.0964 23.4517 23.2631 21.5 26C20.365 26.7494 19.365 26.5827 18.5 25.5C21.2901 21.3717 24.9568 18.3717 29.5 16.5Z" fill="#6F93C4"/>
<path fill-rule="evenodd" clip-rule="evenodd" d="M66.5 29.4999C65.9569 29.5599 65.6236 29.8932 65.5 30.4999C66.4565 32.0753 67.1231 33.7419 67.5 35.4999C67.8333 36.8332 68.1667 38.1666 68.5 39.4999C64.9663 37.2335 61.2996 35.2335 57.5 33.4999C58.8333 32.8332 60.1667 32.1666 61.5 31.4999C62.5964 29.8967 63.9297 28.3967 65.5 26.9999C62.8806 27.0832 60.214 27.2499 57.5 27.4999C57.5 26.4999 57.5 25.4999 57.5 24.4999C57.5 24.1666 57.5 23.8332 57.5 23.4999C58.1239 23.083 58.4573 22.4163 58.5 21.4999C57.2283 18.1957 56.0617 14.8624 55 11.4999C53.5336 14.6824 52.367 18.0157 51.5 21.4999C52.0047 22.9184 53.0047 23.5851 54.5 23.4999C53.7629 25.3045 52.7629 26.9712 51.5 28.4999C47.9617 26.2314 44.295 24.2314 40.5 22.4999C41.1942 16.874 38.5276 14.5407 32.5 15.4999C32.3802 19.0417 32.7135 22.5417 33.5 25.9999C30.9518 28.6026 29.6185 31.7693 29.5 35.4999C27.5 35.4999 25.5 35.4999 23.5 35.4999C23.5 33.8332 23.5 32.1666 23.5 30.4999C20.3136 29.662 17.1469 28.662 14 27.4999C12.1846 29.2173 12.6846 30.2173 15.5 30.4999C11.5749 31.7658 9.90821 30.0991 10.5 25.4999C11.2646 25.0765 12.0979 24.7431 13 24.4999C16.2916 26.2638 19.7916 27.4304 23.5 27.9999C25.259 29.0079 26.4257 30.5079 27 32.4999C28.1199 29.7582 29.6199 27.2582 31.5 24.9999C30.9646 22.0043 30.2979 19.171 29.5 16.4999C29.5106 14.9825 30.1772 13.8158 31.5 12.9999C34.592 12.2641 37.592 12.4308 40.5 13.4999C41.1667 14.4999 41.8333 15.4999 42.5 16.4999C43.0393 20.0422 45.0393 22.3755 48.5 23.4999C49.7681 21.6956 50.4348 19.6956 50.5 17.4999C51.3138 15.3689 51.8138 13.0355 52 10.4999C53.4659 8.67504 55.2992 8.17504 57.5 8.99994C58.9254 12.6032 60.2587 16.2698 61.5 19.9999C60.8524 21.4396 60.5191 22.9396 60.5 24.4999C63.4824 24.037 66.4824 23.7037 69.5 23.4999C69.9717 26.3578 68.9717 28.3578 66.5 29.4999Z" fill="#111322"/>
<path fill-rule="evenodd" clip-rule="evenodd" d="M42.5 16.4999C45.2372 16.4012 47.9039 16.7346 50.5 17.4999C50.4348 19.6956 49.7681 21.6956 48.5 23.4999C45.0393 22.3755 43.0393 20.0422 42.5 16.4999Z" fill="#2E4F7E"/>
<path fill-rule="evenodd" clip-rule="evenodd" d="M40.5 13.5C43.8333 13.8333 47.1667 14.1667 50.5 14.5C50.5 15.5 50.5 16.5 50.5 17.5C47.9039 16.7347 45.2372 16.4013 42.5 16.5C41.8333 15.5 41.1667 14.5 40.5 13.5Z" fill="#7295C6"/>
<path fill-rule="evenodd" clip-rule="evenodd" d="M57.5 23.5C57.6309 22.6236 57.2975 21.9569 56.5 21.5C55.8182 22.2427 55.1515 22.9094 54.5 23.5C53.0047 23.5852 52.0047 22.9185 51.5 21.5C52.367 18.0158 53.5336 14.6825 55 11.5C56.0617 14.8625 57.2283 18.1958 58.5 21.5C58.4573 22.4164 58.1239 23.0831 57.5 23.5Z" fill="#DBDCB6"/>
<path fill-rule="evenodd" clip-rule="evenodd" d="M54.5 23.5C55.1515 22.9094 55.8182 22.2427 56.5 21.5C57.2975 21.9569 57.6309 22.6236 57.5 23.5C57.5 23.8333 57.5 24.1667 57.5 24.5C56.5655 25.5676 56.2322 26.901 56.5 28.5C58.1667 28.5 59.8333 28.5 61.5 28.5C61.5 29.5 61.5 30.5 61.5 31.5C59.1432 31.3367 56.8098 31.5034 54.5 32C55.5266 32.5133 56.5266 33.0133 57.5 33.5C61.2996 35.2336 64.9663 37.2336 68.5 39.5C68.8333 39.5 69.1667 39.5 69.5 39.5C70.4293 40.3149 71.4293 41.1482 72.5 42C72.1667 42.3333 71.8333 42.6667 71.5 43C68.2889 44.1532 64.9555 44.8198 61.5 45C59.249 45.7475 57.9156 47.2475 57.5 49.5C56.8411 51.1379 56.1744 52.8045 55.5 54.5C57.8852 58.0195 59.8852 61.6862 61.5 65.5C62.4756 66.8149 63.4756 68.1482 64.5 69.5C63.5 69.8333 62.5 70.1667 61.5 70.5C59.6455 70.6598 58.3121 69.9931 57.5 68.5C57.7678 66.901 57.4345 65.5676 56.5 64.5C54.8272 62.1606 52.8272 60.1606 50.5 58.5C47.3872 59.5559 44.3872 60.8892 41.5 62.5C40.2949 61.4231 39.6282 60.0898 39.5 58.5C39.0383 56.2433 38.0383 54.2433 36.5 52.5C35.8182 53.2427 35.1515 53.9094 34.5 54.5C33.6909 56.2922 33.1909 58.2922 33 60.5C30.1113 62.7081 28.7779 65.7081 29 69.5C25.9816 71.4208 22.8149 71.7541 19.5 70.5C21.3936 69.0546 23.0603 67.3879 24.5 65.5C24.5 65.1667 24.5 64.8333 24.5 64.5C25.1174 64.3893 25.6174 64.056 26 63.5C26.3951 60.7934 26.8951 58.1267 27.5 55.5C28.5 55.5 29.5 55.5 30.5 55.5C31.5036 50.0184 33.5036 44.8518 36.5 40C35.6195 39.2917 34.9528 38.4584 34.5 37.5C33.8333 34.8333 33.1667 34.8333 32.5 37.5C30.5717 39.1125 28.2383 40.1125 25.5 40.5C23.7539 38.1459 21.4206 37.1459 18.5 37.5C18.7373 36.209 18.404 35.209 17.5 34.5C17.7709 32.6203 17.1042 31.287 15.5 30.5C12.6846 30.2174 12.1846 29.2174 14 27.5C17.1469 28.6621 20.3136 29.6621 23.5 30.5C23.5 32.1667 23.5 33.8333 23.5 35.5C25.5 35.5 27.5 35.5 29.5 35.5C29.6185 31.7694 30.9518 28.6027 33.5 26C32.7135 22.5418 32.3802 19.0418 32.5 15.5C38.5276 14.5408 41.1942 16.8741 40.5 22.5C44.295 24.2315 47.9617 26.2315 51.5 28.5C52.7629 26.9713 53.7629 25.3046 54.5 23.5Z" fill="#F5F5C6"/>
<path fill-rule="evenodd" clip-rule="evenodd" d="M15.5 73.5C7.27906 68.0887 2.27906 60.4221 0.500006 50.5C-1.45758 36.7109 2.20908 24.7109 11.5 14.5C11.8333 14.8333 12.1667 15.1667 12.5 15.5C-2.66653 35.668 -1.66653 55.0013 15.5 73.5Z" fill="#0A1C4F"/>
<path fill-rule="evenodd" clip-rule="evenodd" d="M57.5 24.5C57.5 25.5 57.5 26.5 57.5 27.5C60.214 27.25 62.8806 27.0833 65.5 27C63.9297 28.3968 62.5964 29.8968 61.5 31.5C61.5 30.5 61.5 29.5 61.5 28.5C59.8333 28.5 58.1667 28.5 56.5 28.5C56.2322 26.901 56.5655 25.5676 57.5 24.5Z" fill="#C1C2AA"/>
<path opacity="0.522" fill-rule="evenodd" clip-rule="evenodd" d="M72.5 13.5C76.8763 18.9191 80.2096 24.9191 82.5 31.5C82.5 37.8333 82.5 44.1667 82.5 50.5C82.1667 50.5 81.8333 50.5 81.5 50.5C83.3179 34.1115 77.9846 20.6115 65.5 10C67.8774 10.8274 70.2108 11.9941 72.5 13.5Z" fill="#0D2154"/>
<path fill-rule="evenodd" clip-rule="evenodd" d="M61.5 31.5001C60.1667 32.1668 58.8333 32.8334 57.5 33.5001C56.5266 33.0134 55.5266 32.5134 54.5 32.0001C56.8098 31.5035 59.1432 31.3368 61.5 31.5001Z" fill="#8A8575"/>
<path fill-rule="evenodd" clip-rule="evenodd" d="M66.5 29.5C67.3764 29.3691 68.0431 29.7025 68.5 30.5C69.1667 32.1667 69.8333 33.8333 70.5 35.5C69.5754 36.5624 68.5754 36.5624 67.5 35.5C67.1231 33.742 66.4565 32.0754 65.5 30.5C65.6236 29.8933 65.9569 29.56 66.5 29.5Z" fill="#698BBB"/>
<path fill-rule="evenodd" clip-rule="evenodd" d="M34.5 37.5C33.8333 37.5 33.1667 37.5 32.5 37.5C33.1667 34.8333 33.8333 34.8333 34.5 37.5Z" fill="#4C4A48"/>
<path fill-rule="evenodd" clip-rule="evenodd" d="M17.5 34.5C18.404 35.209 18.7373 36.209 18.5 37.5C21.4206 37.1459 23.7539 38.1459 25.5 40.5C28.2383 40.1125 30.5717 39.1125 32.5 37.5C33.1667 37.5 33.8333 37.5 34.5 37.5C34.9528 38.4584 35.6195 39.2917 36.5 40C33.5036 44.8518 31.5036 50.0184 30.5 55.5C29.5 55.5 28.5 55.5 27.5 55.5C26.8333 55.5 26.1667 55.5 25.5 55.5C25.5 55.1667 25.5 54.8333 25.5 54.5C26.172 53.7326 27.0053 53.0659 28 52.5C29.2257 49.0482 30.7257 45.7148 32.5 42.5C29.376 42.7802 26.0427 42.4469 22.5 41.5C21.3192 39.9328 19.6526 39.0995 17.5 39C16.6634 37.9887 16.33 36.8221 16.5 35.5C16.5 34.8333 16.8333 34.5 17.5 34.5Z" fill="#181B3C"/>
<path fill-rule="evenodd" clip-rule="evenodd" d="M69.5 39.5C75.2093 38.6779 76.5427 40.5112 73.5 45C71.6183 45.1981 69.9516 45.6981 68.5 46.5C64.2473 45.8075 60.5807 46.8075 57.5 49.5C57.9156 47.2475 59.249 45.7475 61.5 45C64.9555 44.8198 68.2889 44.1532 71.5 43C71.8333 42.6667 72.1667 42.3333 72.5 42C71.4293 41.1482 70.4293 40.3149 69.5 39.5Z" fill="#16181F"/>
<path fill-rule="evenodd" clip-rule="evenodd" d="M28.5 1.5C28.3691 2.37644 28.7025 3.04311 29.5 3.5C31.4325 2.47978 33.4325 2.31312 35.5 3C30.6292 3.1566 27.1292 5.32327 25 9.5C24.6924 8.69194 24.1924 8.02527 23.5 7.5C21.1667 8.83333 18.8333 10.1667 16.5 11.5C14.3949 14.5929 12.3949 17.7596 10.5 21C11.1667 21.3333 11.8333 21.6667 12.5 22C11.0267 22.7096 10.3601 23.8762 10.5 25.5C9.90822 30.0992 11.5749 31.7659 15.5 30.5C17.1042 31.287 17.7709 32.6203 17.5 34.5C16.8333 34.5 16.5 34.8333 16.5 35.5C16.1667 35.5 15.8333 35.5 15.5 35.5C14.4341 34.3079 13.6008 34.6412 13 36.5C11.3889 47.4113 14.3889 56.7447 22 64.5C22.7172 63.9558 23.2172 63.2891 23.5 62.5C23.6715 60.5082 23.0049 58.8415 21.5 57.5C22.6888 56.5713 24.0222 56.238 25.5 56.5C24.612 59.0545 24.2786 61.7212 24.5 64.5C24.5 64.8333 24.5 65.1667 24.5 65.5C18.9976 65.3909 16.6642 68.0576 17.5 73.5C21.5138 73.6655 25.5138 73.4988 29.5 73C30.0989 71.3775 30.7656 69.8775 31.5 68.5C31.5 69.5 31.5 70.5 31.5 71.5C39.4224 73.4074 47.0891 72.7407 54.5 69.5C55.7759 68.3864 55.7759 67.3864 54.5 66.5C54.5 66.1667 54.5 65.8333 54.5 65.5C55.4916 65.6716 56.1583 65.3382 56.5 64.5C57.4345 65.5676 57.7678 66.901 57.5 68.5C56.218 69.7082 56.218 71.0416 57.5 72.5C60.4212 73.4066 63.4212 73.7399 66.5 73.5C66.0472 74.4584 65.3805 75.2917 64.5 76C59.8627 78.4889 55.196 80.6555 50.5 82.5C44.1667 82.5 37.8333 82.5 31.5 82.5C26.804 80.6555 22.1373 78.4889 17.5 76C16.6195 75.2917 15.9528 74.4584 15.5 73.5C-1.66654 55.0013 -2.66654 35.668 12.5 15.5C12.1667 15.1667 11.8333 14.8333 11.5 14.5C2.20907 24.7109 -1.45759 36.7109 0.5 50.5C0.166667 50.5 -0.166667 50.5 -0.5 50.5C-0.5 44.1667 -0.5 37.8333 -0.5 31.5C3.73882 16.2611 13.4055 6.26106 28.5 1.5Z" fill="#1E4071"/>
<path fill-rule="evenodd" clip-rule="evenodd" d="M15.5 35.5C15.8333 35.5 16.1667 35.5 16.5 35.5C16.33 36.8221 16.6634 37.9887 17.5 39C19.6526 39.0995 21.3192 39.9328 22.5 41.5C21.9552 43.0415 20.2885 43.8749 17.5 44C18.8333 44.3333 20.1667 44.6667 21.5 45C20.6433 45.6891 19.9767 46.5224 19.5 47.5C20.9459 49.6179 21.6126 51.9512 21.5 54.5C22.8333 54.5 24.1667 54.5 25.5 54.5C25.5 54.8333 25.5 55.1667 25.5 55.5C25.5 55.8333 25.5 56.1667 25.5 56.5C24.0222 56.238 22.6888 56.5713 21.5 57.5C23.0049 58.8415 23.6715 60.5082 23.5 62.5C16.0923 54.903 13.4256 45.903 15.5 35.5Z" fill="#365A8D"/>
<path fill-rule="evenodd" clip-rule="evenodd" d="M22.5 41.5C26.0427 42.4469 29.376 42.7802 32.5 42.5C30.7257 45.7148 29.2257 49.0482 28 52.5C27.0053 53.0659 26.172 53.7326 25.5 54.5C24.1667 54.5 22.8333 54.5 21.5 54.5C21.6126 51.9512 20.9459 49.6179 19.5 47.5C19.9767 46.5224 20.6433 45.6891 21.5 45C20.1667 44.6667 18.8333 44.3333 17.5 44C20.2885 43.8749 21.9552 43.0415 22.5 41.5Z" fill="#4F73A5"/>
<path fill-rule="evenodd" clip-rule="evenodd" d="M68.5 47.5C67.0675 52.4814 65.0675 57.1481 62.5 61.5C60.2155 57.887 59.3822 53.887 60 49.5C62.4815 47.6863 65.3148 47.0196 68.5 47.5Z" fill="#37598B"/>
<path fill-rule="evenodd" clip-rule="evenodd" d="M68.5 46.5C68.5 46.8333 68.5 47.1667 68.5 47.5C65.3148 47.0196 62.4815 47.6863 60 49.5C59.3822 53.887 60.2155 57.887 62.5 61.5C62.5 61.8333 62.5 62.1667 62.5 62.5C63.6005 63.6049 64.2671 64.9382 64.5 66.5C63.609 65.8902 62.609 65.5569 61.5 65.5C59.8852 61.6862 57.8852 58.0195 55.5 54.5C56.1744 52.8045 56.8411 51.1379 57.5 49.5C60.5807 46.8075 64.2473 45.8075 68.5 46.5Z" fill="#12162E"/>
<path fill-rule="evenodd" clip-rule="evenodd" d="M15.5 35.5C13.4256 45.903 16.0923 54.903 23.5 62.5C23.2172 63.2891 22.7172 63.9558 22 64.5C14.3889 56.7447 11.3889 47.4113 13 36.5C13.6008 34.6412 14.4341 34.3079 15.5 35.5Z" fill="#7196CA"/>
<path fill-rule="evenodd" clip-rule="evenodd" d="M39.5 58.5C38.8333 58.5 38.1667 58.5 37.5 58.5C36.2719 59.3065 35.2719 60.3065 34.5 61.5C34.5 59.1667 34.5 56.8333 34.5 54.5C35.1515 53.9094 35.8182 53.2427 36.5 52.5C38.0383 54.2433 39.0383 56.2433 39.5 58.5Z" fill="#1F315A"/>
<path fill-rule="evenodd" clip-rule="evenodd" d="M68.5 47.5C69.5862 47.62 70.2528 48.2867 70.5 49.5C69.5487 55.1035 66.8821 59.4368 62.5 62.5C62.5 62.1667 62.5 61.8333 62.5 61.5C65.0675 57.1481 67.0675 52.4814 68.5 47.5Z" fill="#7399CC"/>
<path fill-rule="evenodd" clip-rule="evenodd" d="M25.5 55.5C26.1667 55.5 26.8333 55.5 27.5 55.5C26.8951 58.1267 26.3951 60.7934 26 63.5C25.6174 64.056 25.1174 64.3893 24.5 64.5C24.2786 61.7212 24.612 59.0545 25.5 56.5C25.5 56.1667 25.5 55.8333 25.5 55.5Z" fill="#13131A"/>
<path fill-rule="evenodd" clip-rule="evenodd" d="M37.5 58.5C38.1667 58.5 38.8333 58.5 39.5 58.5C39.6282 60.0898 40.2949 61.4231 41.5 62.5C44.3872 60.8892 47.3872 59.5559 50.5 58.5C52.8272 60.1606 54.8272 62.1606 56.5 64.5C56.1583 65.3382 55.4916 65.6716 54.5 65.5C53.4281 63.4286 51.7615 62.0953 49.5 61.5C46.1413 63.5066 42.4747 64.5066 38.5 64.5C38.1667 62.5 37.8333 60.5 37.5 58.5Z" fill="#101126"/>
<path fill-rule="evenodd" clip-rule="evenodd" d="M37.5 58.5C37.8333 60.5 38.1667 62.5 38.5 64.5C42.4747 64.5066 46.1413 63.5066 49.5 61.5C51.7615 62.0953 53.4281 63.4286 54.5 65.5C54.5 65.8333 54.5 66.1667 54.5 66.5C47.2513 70.8063 39.5846 71.473 31.5 68.5C31.3433 67.1266 31.51 65.7932 32 64.5C33.417 63.9221 34.2504 62.9221 34.5 61.5C35.2719 60.3065 36.2719 59.3065 37.5 58.5Z" fill="#3A5C8C"/>
<path fill-rule="evenodd" clip-rule="evenodd" d="M61.5 65.5C62.609 65.5569 63.609 65.8902 64.5 66.5C67.4947 68.1433 68.1614 70.4767 66.5 73.5C63.4212 73.7399 60.4212 73.4066 57.5 72.5C56.218 71.0416 56.218 69.7082 57.5 68.5C58.3121 69.9931 59.6455 70.6598 61.5 70.5C62.5 70.1667 63.5 69.8333 64.5 69.5C63.4756 68.1482 62.4756 66.8149 61.5 65.5Z" fill="#11121A"/>
<path fill-rule="evenodd" clip-rule="evenodd" d="M54.5 66.5C55.7759 67.3864 55.7759 68.3864 54.5 69.5C47.0891 72.7407 39.4224 73.4074 31.5 71.5C31.5 70.5 31.5 69.5 31.5 68.5C39.5846 71.473 47.2513 70.8063 54.5 66.5Z" fill="#769CCB"/>
<path fill-rule="evenodd" clip-rule="evenodd" d="M34.5 54.5C34.5 56.8333 34.5 59.1667 34.5 61.5C34.2504 62.9221 33.417 63.9221 32 64.5C31.51 65.7932 31.3433 67.1266 31.5 68.5C30.7656 69.8775 30.0989 71.3775 29.5 73C25.5138 73.4988 21.5138 73.6655 17.5 73.5C16.6642 68.0576 18.9976 65.3909 24.5 65.5C23.0603 67.3879 21.3936 69.0546 19.5 70.5C22.8149 71.7541 25.9816 71.4208 29 69.5C28.7779 65.7081 30.1113 62.7081 33 60.5C33.1909 58.2922 33.6909 56.2922 34.5 54.5Z" fill="#10111B"/>
</g>
<defs>
<clipPath id="clip0_2_15">
<rect width="83" height="83" fill="white"/>
</clipPath>
</defs>
</svg>
