<svg width="1025" height="1025" viewBox="0 0 1025 1025" fill="none" xmlns="http://www.w3.org/2000/svg">
<path fill-rule="evenodd" clip-rule="evenodd" d="M512.438 0C795.223 0 1024.82 229.603 1024.82 512.405C1024.82 795.206 795.223 1024.81 512.438 1024.81C229.598 1024.81 0 795.206 0 512.405C0 229.603 229.598 0 512.438 0ZM305.25 226.509C305.25 226.509 387.53 336.679 462.902 369.092C562.48 411.905 613.646 482.649 613.646 482.649L624.148 473.77L668.124 501.189C668.124 501.189 656.386 535.578 672.673 544.631C688.961 553.679 743.552 574.859 750.236 669.703C756.414 670.034 766.242 670.298 766.242 670.298L772.533 719.127C772.533 719.127 718.054 774.465 618.476 799.211L614.039 740.593C614.039 740.593 653.634 693.954 650.601 669.512C647.512 645.075 596.01 593.545 596.01 593.545L575.903 600.385L535.971 570.546L555.179 551.804C555.179 551.804 485.592 480.369 435.269 456.482C384.891 432.596 335.522 390.585 317.718 342.273C295.197 281.128 305.25 226.509 305.25 226.509ZM501.486 532.388C489.355 543.862 481.605 551.804 481.605 551.804L500.812 570.546L460.824 600.385L440.717 593.545C440.717 593.545 389.271 645.075 386.182 669.512C383.093 693.954 422.689 740.593 422.689 740.593L418.308 799.211C318.729 774.465 264.194 719.127 264.194 719.127L270.541 670.298C270.541 670.298 280.369 670.034 286.547 669.703C293.174 574.859 347.766 553.679 364.053 544.631C380.341 535.578 368.659 501.189 368.659 501.189L412.579 473.77L423.138 482.649C423.138 482.649 425.609 480.616 427.519 478.246C462.228 498.386 485.423 518.212 501.486 532.388ZM539.903 385.643C550.518 379.836 561.806 374.259 573.825 369.092C649.197 336.679 731.477 226.509 731.477 226.509C731.477 226.509 741.53 281.128 719.008 342.273C702.609 386.766 659.475 425.912 613.421 450.484C585.788 422.02 556.527 398.387 539.903 385.643Z" fill="#C7993D"/>
</svg>
