<svg width="84" height="84" viewBox="0 0 84 84" fill="none" xmlns="http://www.w3.org/2000/svg">
<g clip-path="url(#clip0_2_740)">
<path fill-rule="evenodd" clip-rule="evenodd" d="M37.5 8.49998C42.1923 7.51241 45.859 8.84575 48.5 12.5C47.7978 13.1157 46.7978 13.1157 45.5 12.5C43.5 12.5 41.5 12.5 39.5 12.5C38.5084 12.6716 37.8417 12.3382 37.5 11.5C37.5 10.5 37.5 9.49998 37.5 8.49998Z" fill="#703A18"/>
<path fill-rule="evenodd" clip-rule="evenodd" d="M73.5 14.5C78.4026 19.6394 81.7359 25.6394 83.5 32.5C83.5 36.8333 83.5 41.1667 83.5 45.5C82.8501 45.8039 82.1835 46.1373 81.5 46.5C80.513 43.2317 80.1796 39.8984 80.5 36.5C80.7845 34.5853 80.4511 32.9187 79.5 31.5C72.9338 12.0294 59.2672 2.02938 38.5 1.49998C47.0326 -0.0272467 55.0326 1.47275 62.5 5.99998C66.1967 8.84206 69.8634 11.6754 73.5 14.5Z" fill="#C28416"/>
<path fill-rule="evenodd" clip-rule="evenodd" d="M39.5 12.5C41.5 12.5 43.5 12.5 45.5 12.5C45.8333 13.5 46.5 14.1667 47.5 14.5C47.8333 15.5 48.5 16.1667 49.5 16.5C49.6495 17.552 49.4828 18.552 49 19.5C47.9887 18.6634 46.8221 18.33 45.5 18.5C45.2322 20.099 45.5655 21.4324 46.5 22.5C52.4353 26.7618 58.1019 31.4285 63.5 36.5C62.8333 37.1667 62.1667 37.8333 61.5 38.5C60.5 39.1667 59.5 39.8333 58.5 40.5C57.1148 41.9473 57.4482 42.9473 59.5 43.5C60.5 43.5 61.5 43.5 62.5 43.5C63.791 43.2627 64.791 43.596 65.5 44.5C63.3736 45.0482 61.3736 45.7148 59.5 46.5C58.1667 46.5 56.8333 46.5 55.5 46.5C55.5 45.1667 55.5 43.8333 55.5 42.5C53.901 42.2322 52.5676 42.5655 51.5 43.5C50.8333 43.8333 50.1667 44.1667 49.5 44.5C47.8002 44.3739 46.3002 43.7073 45 42.5C43.2729 42.6465 43.1062 43.3131 44.5 44.5C42.604 45.4656 40.604 45.7989 38.5 45.5C38.7852 43.712 38.4519 42.0453 37.5 40.5C34.7985 42.1586 33.1319 41.4919 32.5 38.5C32.5 37.8333 32.8333 37.5 33.5 37.5C34.6491 37.2089 35.3158 36.3756 35.5 35C35.2272 33.4672 34.8938 31.9672 34.5 30.5C32.31 29.6255 31.31 27.9589 31.5 25.5C34.3852 25.357 36.7185 24.357 38.5 22.5C40.0234 20.4143 39.69 18.7476 37.5 17.5C37.3915 15.4862 38.0582 13.8195 39.5 12.5Z" fill="#F9F8C4"/>
<path fill-rule="evenodd" clip-rule="evenodd" d="M45.5 12.5C46.7978 13.1157 47.7978 13.1157 48.5 12.5C49.9952 12.9887 51.3285 13.6554 52.5 14.5C51.0011 15.494 49.3344 15.494 47.5 14.5C46.5 14.1667 45.8333 13.5 45.5 12.5Z" fill="#825616"/>
<path fill-rule="evenodd" clip-rule="evenodd" d="M37.5 11.5C37.8417 12.3382 38.5084 12.6716 39.5 12.5C38.0582 13.8195 37.3915 15.4862 37.5 17.5C36.0755 15.9689 35.4088 16.3023 35.5 18.5C34.6618 18.1583 34.3284 17.4916 34.5 16.5C34.5 16.1667 34.5 15.8333 34.5 15.5C35.0221 13.7809 36.0221 12.4475 37.5 11.5Z" fill="#8B6419"/>
<path fill-rule="evenodd" clip-rule="evenodd" d="M47.5 14.5C49.3344 15.494 51.0011 15.494 52.5 14.5C53.3382 14.8417 53.6716 15.5084 53.5 16.5C53.5 17.1667 53.5 17.8333 53.5 18.5C52.609 17.8902 51.609 17.5569 50.5 17.5C50.5 16.8333 50.1667 16.5 49.5 16.5C48.5 16.1667 47.8333 15.5 47.5 14.5Z" fill="#987E28"/>
<path fill-rule="evenodd" clip-rule="evenodd" d="M23.5 3.50001C25.099 3.2322 26.4324 3.56553 27.5 4.50001C12.4992 10.4802 3.66584 21.4802 0.999975 37.5C0.506464 35.8659 0.339797 34.1992 0.499975 32.5C1.77938 24.941 4.94604 18.2744 9.99998 12.5C13.8559 8.4674 18.3559 5.46741 23.5 3.50001Z" fill="#BE8015"/>
<path fill-rule="evenodd" clip-rule="evenodd" d="M34.5 16.5C34.3284 17.4916 34.6618 18.1583 35.5 18.5C35.8039 19.1499 36.1373 19.8165 36.5 20.5C33.5936 21.0806 30.927 22.0806 28.5 23.5C28.31 21.0411 29.31 19.3745 31.5 18.5C32.2905 17.5987 33.2905 16.9321 34.5 16.5Z" fill="#D99C2F"/>
<path fill-rule="evenodd" clip-rule="evenodd" d="M49.5 16.5C50.1667 16.5 50.5 16.8333 50.5 17.5C50.7192 21.5274 49.5525 22.1941 47 19.5C46.5172 20.448 46.3505 21.448 46.5 22.5C45.5655 21.4324 45.2322 20.099 45.5 18.5C46.8221 18.33 47.9887 18.6634 49 19.5C49.4828 18.552 49.6495 17.552 49.5 16.5Z" fill="#C5B382"/>
<path fill-rule="evenodd" clip-rule="evenodd" d="M32.5 -0.5C38.5 -0.5 44.5 -0.5 50.5 -0.5C57.7889 1.64612 64.4556 5.14612 70.5 10C72.1412 11.129 73.1412 12.629 73.5 14.5C69.8634 11.6754 66.1967 8.84208 62.5 6C55.0326 1.47277 47.0326 -0.0272276 38.5 1.5C59.2672 2.0294 72.9338 12.0294 79.5 31.5C76.3915 31.2641 73.3915 31.5975 70.5 32.5C70.1667 32.5 69.8333 32.5 69.5 32.5C66.4781 24.8114 61.1447 19.478 53.5 16.5C53.6716 15.5084 53.3382 14.8417 52.5 14.5C51.3285 13.6554 49.9952 12.9887 48.5 12.5C45.859 8.84577 42.1923 7.51243 37.5 8.5C36.9935 7.14108 35.9935 6.14108 34.5 5.5C36.8912 4.19137 36.8912 3.19137 34.5 2.5C32.4229 3.93711 30.0895 4.60378 27.5 4.5C26.4324 3.56552 25.099 3.23219 23.5 3.5C26.3448 1.77567 29.3448 0.442336 32.5 -0.5Z" fill="#D49720"/>
<path fill-rule="evenodd" clip-rule="evenodd" d="M37.5 8.5C37.5 9.5 37.5 10.5 37.5 11.5C36.0221 12.4475 35.0221 13.7809 34.5 15.5C34.5299 14.5028 34.0299 13.8361 33 13.5C15.9158 19.9926 8.91577 32.326 12 50.5C13.7432 53.9096 15.5765 57.2429 17.5 60.5C17.5 60.8333 17.5 61.1667 17.5 61.5C16.8902 62.391 16.5569 63.391 16.5 64.5C15.2237 66.5625 14.3903 68.8958 14 71.5C6.1628 63.4866 1.32946 54.1533 -0.5 43.5C-0.5 39.8333 -0.5 36.1667 -0.5 32.5C-0.166667 32.5 0.166667 32.5 0.5 32.5C0.339822 34.1992 0.506489 35.8659 1 37.5C3.66586 21.4802 12.4992 10.4802 27.5 4.5C30.0895 4.60378 32.4229 3.93711 34.5 2.5C36.8912 3.19137 36.8912 4.19137 34.5 5.5C35.9935 6.14108 36.9935 7.14108 37.5 8.5Z" fill="#DB9F25"/>
<path fill-rule="evenodd" clip-rule="evenodd" d="M34.5 15.5C34.5 15.8333 34.5 16.1667 34.5 16.5C33.2905 16.9321 32.2905 17.5987 31.5 18.5C23.9445 20.3877 18.9445 25.0543 16.5 32.5C15.8902 33.391 15.5569 34.391 15.5 35.5C14.0532 36.1342 13.3866 37.3009 13.5 39C13.7728 40.5328 14.1062 42.0328 14.5 43.5C14.4203 46.7814 15.087 49.7814 16.5 52.5C16.9731 53.9063 17.9731 54.573 19.5 54.5C19.9746 57.0821 19.3079 59.0821 17.5 60.5C15.5765 57.2429 13.7432 53.9096 12 50.5C8.91579 32.326 15.9158 19.9926 33 13.5C34.0299 13.8361 34.5299 14.5028 34.5 15.5Z" fill="#F1DE67"/>
<path fill-rule="evenodd" clip-rule="evenodd" d="M37.5 17.5C39.69 18.7476 40.0234 20.4143 38.5 22.5C35.7939 22.8872 33.4605 23.8872 31.5 25.5C30.8333 26.1667 30.1667 26.8333 29.5 27.5C28.5655 26.4324 28.2322 25.099 28.5 23.5C30.927 22.0806 33.5936 21.0806 36.5 20.5C36.1373 19.8165 35.8039 19.1499 35.5 18.5C35.4088 16.3023 36.0755 15.9689 37.5 17.5Z" fill="#855016"/>
<path fill-rule="evenodd" clip-rule="evenodd" d="M38.5 22.5C36.7185 24.357 34.3852 25.357 31.5 25.5C33.4605 23.8872 35.7939 22.8872 38.5 22.5Z" fill="#D5C68B"/>
<path fill-rule="evenodd" clip-rule="evenodd" d="M53.5 16.5C61.1447 19.478 66.4781 24.8114 69.5 32.5C69.6621 34.5273 69.4955 36.5273 69 38.5C68.7216 37.5842 68.2216 36.9175 67.5 36.5C65.4677 28.4658 60.801 22.4658 53.5 18.5C53.5 17.8333 53.5 17.1667 53.5 16.5Z" fill="#F4DD61"/>
<path fill-rule="evenodd" clip-rule="evenodd" d="M31.5 18.5C29.31 19.3745 28.31 21.0411 28.5 23.5C26.0686 26.1127 23.7353 28.946 21.5 32C19.8659 32.4935 18.1992 32.6602 16.5 32.5C18.9445 25.0543 23.9445 20.3877 31.5 18.5Z" fill="#EAB23E"/>
<path fill-rule="evenodd" clip-rule="evenodd" d="M53.5 18.5C60.801 22.4658 65.4677 28.4658 67.5 36.5C67.1667 36.5 66.8333 36.5 66.5 36.5C61.6528 33.3048 57.4861 29.3048 54 24.5C53.5045 22.5273 53.3379 20.5273 53.5 18.5Z" fill="#DCA12D"/>
<path fill-rule="evenodd" clip-rule="evenodd" d="M34.5 30.5C34.8938 31.9672 35.2272 33.4672 35.5 35C35.3158 36.3756 34.6491 37.2089 33.5 37.5C34.7784 35.4558 34.6117 33.4558 33 31.5C32.3292 32.2524 31.4959 32.5858 30.5 32.5C31.287 30.8958 32.6203 30.2291 34.5 30.5Z" fill="#B0A154"/>
<path fill-rule="evenodd" clip-rule="evenodd" d="M79.5 31.4999C80.4511 32.9186 80.7845 34.5852 80.5 36.4999C77.4552 36.492 74.4552 36.1586 71.5 35.4999C71.5 36.8332 71.5 38.1666 71.5 39.4999C70.5318 37.3925 70.1984 35.0592 70.5 32.4999C73.3915 31.5974 76.3915 31.264 79.5 31.4999Z" fill="#E8AC31"/>
<path fill-rule="evenodd" clip-rule="evenodd" d="M50.5 17.5C51.609 17.5569 52.609 17.8902 53.5 18.5C53.3379 20.5273 53.5045 22.5273 54 24.5C57.4861 29.3048 61.6528 33.3048 66.5 36.5C65.8333 37.1667 65.1667 37.8333 64.5 38.5C64.6716 37.5084 64.3382 36.8417 63.5 36.5C58.1019 31.4285 52.4353 26.7618 46.5 22.5C46.3505 21.448 46.5172 20.448 47 19.5C49.5525 22.1941 50.7192 21.5274 50.5 17.5Z" fill="#834E19"/>
<path fill-rule="evenodd" clip-rule="evenodd" d="M28.5 23.5C28.2322 25.099 28.5655 26.4324 29.5 27.5C27.7706 28.2362 26.7706 29.5695 26.5 31.5C24.1165 33.2467 22.4498 35.58 21.5 38.5C20.8589 37.0065 19.8589 36.0065 18.5 35.5C19.463 34.6365 19.463 33.9698 18.5 33.5C17.4822 34.1925 16.4822 34.8592 15.5 35.5C15.5569 34.391 15.8902 33.391 16.5 32.5C18.1992 32.6602 19.8659 32.4935 21.5 32C23.7353 28.946 26.0686 26.1127 28.5 23.5Z" fill="#92631B"/>
<path fill-rule="evenodd" clip-rule="evenodd" d="M33.5 37.5C32.8333 37.5 32.5 37.8333 32.5 38.5C32.1667 38.5 31.8333 38.5 31.5 38.5C31.6309 37.6236 31.2975 36.9569 30.5 36.5C29.265 37.3398 28.265 38.3398 27.5 39.5C27.1663 36.509 28.1663 34.1757 30.5 32.5C31.4959 32.5858 32.3292 32.2524 33 31.5C34.6117 33.4558 34.7784 35.4558 33.5 37.5Z" fill="#977520"/>
<path fill-rule="evenodd" clip-rule="evenodd" d="M63.5 36.5C64.3382 36.8417 64.6716 37.5084 64.5 38.5C63.5 38.5 62.5 38.5 61.5 38.5C62.1667 37.8333 62.8333 37.1667 63.5 36.5Z" fill="#A68955"/>
<path fill-rule="evenodd" clip-rule="evenodd" d="M26.5 31.5C25.207 35.0625 23.5403 38.3959 21.5 41.5C19.9582 40.6993 18.2915 40.366 16.5 40.5C16.3915 38.4862 17.0582 36.8195 18.5 35.5C19.8589 36.0065 20.8589 37.0065 21.5 38.5C22.4498 35.58 24.1165 33.2467 26.5 31.5Z" fill="#D9CD94"/>
<path fill-rule="evenodd" clip-rule="evenodd" d="M31.5 38.5C31.5 38.8333 31.5 39.1667 31.5 39.5C30.5489 40.9187 30.2155 42.5853 30.5 44.5C29.5 44.5 28.5 44.5 27.5 44.5C26.1667 42.8333 26.1667 41.1667 27.5 39.5C28.265 38.3398 29.265 37.3398 30.5 36.5C31.2975 36.9569 31.6309 37.6236 31.5 38.5Z" fill="#885E14"/>
<path fill-rule="evenodd" clip-rule="evenodd" d="M58.5 40.5C58.5569 41.609 58.8902 42.609 59.5 43.5C57.4482 42.9473 57.1148 41.9473 58.5 40.5Z" fill="#C2AC73"/>
<path fill-rule="evenodd" clip-rule="evenodd" d="M62.5 43.5C63.7082 42.218 65.0416 42.218 66.5 43.5C66.3764 44.1067 66.0431 44.44 65.5 44.5C64.791 43.596 63.791 43.2627 62.5 43.5Z" fill="#B29E6D"/>
<path fill-rule="evenodd" clip-rule="evenodd" d="M69.5 32.5C69.8333 32.5 70.1667 32.5 70.5 32.5C70.1984 35.0593 70.5318 37.3926 71.5 39.5C71.81 42.7131 71.4767 45.7131 70.5 48.5C70.6602 46.8008 70.4935 45.1341 70 43.5C69.6174 44.056 69.1174 44.3893 68.5 44.5C68.4249 41.7938 68.0916 39.1272 67.5 36.5C68.2216 36.9175 68.7216 37.5842 69 38.5C69.4955 36.5273 69.6621 34.5273 69.5 32.5Z" fill="#CFAC3B"/>
<path fill-rule="evenodd" clip-rule="evenodd" d="M18.5 35.5C17.0582 36.8195 16.3915 38.4862 16.5 40.5C18.2915 40.366 19.9582 40.6993 21.5 41.5C22.5817 42.5938 23.2483 43.9271 23.5 45.5C22.0229 47.639 21.0229 49.9723 20.5 52.5C19.8333 51.5 19.1667 50.5 18.5 49.5C19.1495 47.5648 19.4828 45.5648 19.5 43.5C17.8333 43.5 16.1667 43.5 14.5 43.5C14.1062 42.0328 13.7728 40.5328 13.5 39C13.3866 37.3009 14.0532 36.1342 15.5 35.5C16.4822 34.8592 17.4822 34.1925 18.5 33.5C19.463 33.9698 19.463 34.6365 18.5 35.5Z" fill="#8A5516"/>
<path fill-rule="evenodd" clip-rule="evenodd" d="M51.5 43.5C52.5676 42.5655 53.901 42.2322 55.5 42.5C55.5 43.8333 55.5 45.1667 55.5 46.5C56.8333 46.5 58.1667 46.5 59.5 46.5C58.0813 47.4511 56.4147 47.7845 54.5 47.5C54.5 46.1667 54.5 44.8333 54.5 43.5C53.5 43.5 52.5 43.5 51.5 43.5Z" fill="#C6B775"/>
<path fill-rule="evenodd" clip-rule="evenodd" d="M66.5 36.5C66.8333 36.5 67.1667 36.5 67.5 36.5C68.0916 39.1272 68.4249 41.7938 68.5 44.5C68.1667 45.1667 67.8333 45.8333 67.5 46.5C65.2677 47.8689 62.9344 48.8689 60.5 49.5C58.5 49.5 56.5 49.5 54.5 49.5C54.5 48.8333 54.5 48.1667 54.5 47.5C56.4147 47.7845 58.0813 47.4511 59.5 46.5C61.3736 45.7148 63.3736 45.0482 65.5 44.5C66.0431 44.44 66.3764 44.1067 66.5 43.5C65.0416 42.218 63.7082 42.218 62.5 43.5C61.5 43.5 60.5 43.5 59.5 43.5C58.8902 42.609 58.5569 41.609 58.5 40.5C59.5 39.8333 60.5 39.1667 61.5 38.5C62.5 38.5 63.5 38.5 64.5 38.5C65.1667 37.8333 65.8333 37.1667 66.5 36.5Z" fill="#7A4616"/>
<path fill-rule="evenodd" clip-rule="evenodd" d="M80.5 36.5C80.1796 39.8984 80.513 43.2317 81.5 46.5C82.1835 46.1373 82.8501 45.8039 83.5 45.5C83.5 47.1667 83.5 48.8333 83.5 50.5C83.1667 50.5 82.8333 50.5 82.5 50.5C82.631 49.7611 82.4643 49.0944 82 48.5C81.1667 50 80 51.1667 78.5 52C79.7911 53.2917 79.7911 54.4583 78.5 55.5C78.4827 53.9719 77.816 53.4719 76.5 54C75.792 56.5886 74.4587 58.7553 72.5 60.5C71.2054 59.9017 69.8721 59.4017 68.5 59C67.7476 58.3292 67.4142 57.4959 67.5 56.5C68.1084 53.6733 69.1084 51.0067 70.5 48.5C71.4767 45.7131 71.81 42.7131 71.5 39.5C71.5 38.1667 71.5 36.8333 71.5 35.5C74.4552 36.1587 77.4552 36.4921 80.5 36.5Z" fill="#D4991F"/>
<path fill-rule="evenodd" clip-rule="evenodd" d="M14.5 43.5C16.1667 43.5 17.8333 43.5 19.5 43.5C19.4828 45.5648 19.1495 47.5648 18.5 49.5C18.1667 49.5 17.8333 49.5 17.5 49.5C16.596 50.209 16.2627 51.209 16.5 52.5C15.087 49.7814 14.4203 46.7814 14.5 43.5Z" fill="#E5AE3B"/>
<path fill-rule="evenodd" clip-rule="evenodd" d="M51.5 43.5C52.5 43.5 53.5 43.5 54.5 43.5C54.5 44.8333 54.5 46.1667 54.5 47.5C54.5 48.1667 54.5 48.8333 54.5 49.5C53.6618 49.8417 53.3284 50.5084 53.5 51.5C53.5 52.1667 53.5 52.8333 53.5 53.5C51.0257 51.1024 49.6924 48.1024 49.5 44.5C50.1667 44.1667 50.8333 43.8333 51.5 43.5Z" fill="#907624"/>
<path fill-rule="evenodd" clip-rule="evenodd" d="M31.5 25.5C31.31 27.9589 32.31 29.6255 34.5 30.5C32.6203 30.2291 31.287 30.8958 30.5 32.5C28.1663 34.1757 27.1663 36.509 27.5 39.5C26.1667 41.1667 26.1667 42.8333 27.5 44.5C28.7507 46.2199 30.2507 46.5532 32 45.5C32.1805 43.5116 32.0138 41.5116 31.5 39.5C31.5 39.1667 31.5 38.8333 31.5 38.5C31.8333 38.5 32.1667 38.5 32.5 38.5C33.1319 41.4919 34.7985 42.1586 37.5 40.5C38.4519 42.0453 38.7852 43.712 38.5 45.5C40.604 45.7989 42.604 45.4656 44.5 44.5C43.1062 43.3131 43.2729 42.6465 45 42.5C46.3002 43.7073 47.8002 44.3739 49.5 44.5C49.6924 48.1024 51.0257 51.1024 53.5 53.5C54.1098 54.391 54.4431 55.391 54.5 56.5C54.3455 59.716 55.3455 62.3826 57.5 64.5C58.1667 65.1667 58.8333 65.8333 59.5 66.5C60.1098 67.391 60.4431 68.391 60.5 69.5C57.8333 69.5 55.1667 69.5 52.5 69.5C52.7845 67.5853 52.4511 65.9187 51.5 64.5C51.4431 63.391 51.1098 62.391 50.5 61.5C50.5793 58.7294 50.0793 56.0627 49 53.5C46.9604 51.6298 45.1271 49.6298 43.5 47.5C42.5514 46.8476 41.3847 46.5143 40 46.5C38.3189 46.6083 37.1522 47.2749 36.5 48.5C33.8675 50.4554 33.8675 52.4554 36.5 54.5C36.1788 56.0481 35.1788 56.7148 33.5 56.5C32.609 55.8902 31.609 55.5569 30.5 55.5C28.7868 56.6354 28.1201 58.302 28.5 60.5C27.6618 60.8417 27.3284 61.5084 27.5 62.5C26.8826 62.6107 26.3826 62.944 26 63.5C25.5045 65.4727 25.3379 67.4727 25.5 69.5C22.9179 69.9746 20.9179 69.3079 19.5 67.5C19.5 66.1667 19.5 64.8333 19.5 63.5C20.4013 62.7095 21.0679 61.7095 21.5 60.5C22.4411 58.2279 23.7745 56.2279 25.5 54.5C27.6157 52.9119 27.949 50.9119 26.5 48.5C25.3954 50.6114 23.7288 51.9447 21.5 52.5C21.1667 52.5 20.8333 52.5 20.5 52.5C21.0229 49.9723 22.0229 47.639 23.5 45.5C23.2483 43.9271 22.5817 42.5938 21.5 41.5C23.5403 38.3959 25.207 35.0625 26.5 31.5C26.7706 29.5695 27.7706 28.2362 29.5 27.5C30.1667 26.8333 30.8333 26.1667 31.5 25.5Z" fill="#F3F0B9"/>
<path fill-rule="evenodd" clip-rule="evenodd" d="M43.5 47.5C41.0504 47.298 38.717 47.6314 36.5 48.5C37.1522 47.2749 38.3189 46.6083 40 46.5C41.3847 46.5143 42.5514 46.8476 43.5 47.5Z" fill="#D1C584"/>
<path fill-rule="evenodd" clip-rule="evenodd" d="M31.5 39.5C32.0138 41.5116 32.1805 43.5116 32 45.5C30.2507 46.5532 28.7507 46.2199 27.5 44.5C28.5 44.5 29.5 44.5 30.5 44.5C30.2155 42.5853 30.5489 40.9187 31.5 39.5Z" fill="#94752B"/>
<path fill-rule="evenodd" clip-rule="evenodd" d="M43.5 47.5C45.1271 49.6298 46.9604 51.6298 49 53.5C50.0793 56.0627 50.5793 58.7294 50.5 61.5C49.71 60.3915 49.21 59.0581 49 57.5C48.51 58.7932 48.3433 60.1266 48.5 61.5C47.6909 59.7078 47.1909 57.7078 47 55.5C46.2917 54.6195 45.4584 53.9528 44.5 53.5C42.8761 50.5717 40.5428 49.905 37.5 51.5C38.7629 53.0287 39.7629 54.6954 40.5 56.5C40.8333 57.1667 41.1667 57.8333 41.5 58.5C40.8485 59.0906 40.1818 59.7573 39.5 60.5C38.8933 60.3764 38.56 60.0431 38.5 59.5C39.0431 59.44 39.3764 59.1067 39.5 58.5C38.4793 57.0986 37.4793 55.7653 36.5 54.5C33.8675 52.4554 33.8675 50.4554 36.5 48.5C38.717 47.6314 41.0504 47.298 43.5 47.5Z" fill="#9A7627"/>
<path fill-rule="evenodd" clip-rule="evenodd" d="M54.5 49.5C56.5 49.5 58.5 49.5 60.5 49.5C58.5 50.1667 56.5 50.8333 54.5 51.5C54.1667 51.5 53.8333 51.5 53.5 51.5C53.3284 50.5084 53.6618 49.8417 54.5 49.5Z" fill="#B98126"/>
<path fill-rule="evenodd" clip-rule="evenodd" d="M17.5 49.5C17.3915 51.5138 18.0582 53.1805 19.5 54.5C17.9731 54.573 16.9731 53.9063 16.5 52.5C16.2627 51.209 16.596 50.209 17.5 49.5Z" fill="#B77D2C"/>
<path fill-rule="evenodd" clip-rule="evenodd" d="M70.5 48.5C69.1084 51.0067 68.1084 53.6733 67.5 56.5C66.173 59.827 63.8397 62.1604 60.5 63.5C61.2984 60.5114 62.7984 57.8448 65 55.5C65.9931 52.5259 66.8264 49.5259 67.5 46.5C67.8333 45.8333 68.1667 45.1667 68.5 44.5C69.1174 44.3893 69.6174 44.056 70 43.5C70.4935 45.1341 70.6602 46.8008 70.5 48.5Z" fill="#F2D960"/>
<path fill-rule="evenodd" clip-rule="evenodd" d="M25.5 54.5C25.631 53.7611 25.4643 53.0944 25 52.5C23.7083 53.7911 22.5417 53.7911 21.5 52.5C23.7288 51.9447 25.3954 50.6114 26.5 48.5C27.949 50.9119 27.6157 52.9119 25.5 54.5Z" fill="#916C26"/>
<path fill-rule="evenodd" clip-rule="evenodd" d="M44.5 53.5C44.4142 54.4959 44.7476 55.3292 45.5 56C43.8659 56.4935 42.1992 56.6602 40.5 56.5C39.7629 54.6954 38.7629 53.0287 37.5 51.5C40.5428 49.905 42.8761 50.5717 44.5 53.5Z" fill="#F3CA54"/>
<path fill-rule="evenodd" clip-rule="evenodd" d="M17.5 49.5C17.8333 49.5 18.1667 49.5 18.5 49.5C19.1667 50.5 19.8333 51.5 20.5 52.5C20.8333 52.5 21.1667 52.5 21.5 52.5C22.5417 53.7911 23.7083 53.7911 25 52.5C25.4643 53.0944 25.631 53.7611 25.5 54.5C23.7745 56.2279 22.4411 58.2279 21.5 60.5C20.8333 58.5 20.1667 56.5 19.5 54.5C18.0582 53.1805 17.3915 51.5138 17.5 49.5Z" fill="#7F440E"/>
<path fill-rule="evenodd" clip-rule="evenodd" d="M53.5 51.5C53.8333 51.5 54.1667 51.5 54.5 51.5C56.1948 53.8967 57.5282 56.5634 58.5 59.5C58.7678 61.099 58.4345 62.4324 57.5 63.5C56.6772 61.0128 55.6772 58.6794 54.5 56.5C54.4431 55.391 54.1098 54.391 53.5 53.5C53.5 52.8333 53.5 52.1667 53.5 51.5Z" fill="#8A5215"/>
<path fill-rule="evenodd" clip-rule="evenodd" d="M67.5 46.5C66.8264 49.5259 65.9931 52.5259 65 55.5C62.7984 57.8448 61.2984 60.5114 60.5 63.5C59.8333 62.1667 59.1667 60.8333 58.5 59.5C57.5282 56.5634 56.1948 53.8967 54.5 51.5C56.5 50.8333 58.5 50.1667 60.5 49.5C62.9344 48.8689 65.2677 47.8689 67.5 46.5Z" fill="#E2A532"/>
<path fill-rule="evenodd" clip-rule="evenodd" d="M36.5 54.5C37.4793 55.7653 38.4793 57.0986 39.5 58.5C39.3764 59.1067 39.0431 59.44 38.5 59.5C36.8869 58.3077 35.2202 57.3077 33.5 56.5C35.1788 56.7148 36.1788 56.0481 36.5 54.5Z" fill="#C8B877"/>
<path fill-rule="evenodd" clip-rule="evenodd" d="M30.5 55.5C30.2041 57.403 29.5375 59.0697 28.5 60.5C28.1201 58.302 28.7868 56.6354 30.5 55.5Z" fill="#B8A364"/>
<path fill-rule="evenodd" clip-rule="evenodd" d="M30.5 55.5C31.609 55.5569 32.609 55.8902 33.5 56.5C35.2202 57.3077 36.8869 58.3077 38.5 59.5C38.56 60.0431 38.8933 60.3764 39.5 60.5C40.1818 59.7573 40.8485 59.0906 41.5 58.5C42.8284 59.9097 42.4951 61.0764 40.5 62C38.5048 62.6128 36.8381 62.1128 35.5 60.5C34.3588 59.661 33.0255 58.9943 31.5 58.5C30.7025 58.9569 30.3691 59.6236 30.5 60.5C29.8333 62.1667 29.1667 63.8333 28.5 65.5C27.596 64.791 27.2627 63.791 27.5 62.5C27.3284 61.5084 27.6618 60.8417 28.5 60.5C29.5375 59.0697 30.2041 57.403 30.5 55.5Z" fill="#8C5C15"/>
<path fill-rule="evenodd" clip-rule="evenodd" d="M35.5 60.5C33.8333 60.5 32.1667 60.5 30.5 60.5C30.3691 59.6236 30.7025 58.9569 31.5 58.5C33.0255 58.9943 34.3588 59.661 35.5 60.5Z" fill="#C0872A"/>
<path fill-rule="evenodd" clip-rule="evenodd" d="M44.5 53.5C45.4584 53.9528 46.2917 54.6195 47 55.5C47.1909 57.7078 47.6909 59.7078 48.5 61.5C48.595 63.7857 49.2616 65.7857 50.5 67.5C50.5 67.8333 50.5 68.1667 50.5 68.5C42.9068 70.2946 35.5735 69.6279 28.5 66.5C28.5 66.1667 28.5 65.8333 28.5 65.5C29.1667 63.8333 29.8333 62.1667 30.5 60.5C32.1667 60.5 33.8333 60.5 35.5 60.5C36.8381 62.1128 38.5048 62.6128 40.5 62C42.4951 61.0764 42.8284 59.9097 41.5 58.5C41.1667 57.8333 40.8333 57.1667 40.5 56.5C42.1992 56.6602 43.8659 56.4935 45.5 56C44.7476 55.3292 44.4142 54.4959 44.5 53.5Z" fill="#F2B943"/>
<path fill-rule="evenodd" clip-rule="evenodd" d="M54.5 56.5C55.6772 58.6794 56.6772 61.0128 57.5 63.5C57.5 63.8333 57.5 64.1667 57.5 64.5C55.3455 62.3826 54.3455 59.716 54.5 56.5Z" fill="#CBB885"/>
<path fill-rule="evenodd" clip-rule="evenodd" d="M19.5 54.5C20.1667 56.5 20.8333 58.5 21.5 60.5C21.0679 61.7095 20.4013 62.7095 19.5 63.5C19.5 62.1667 18.8333 61.5 17.5 61.5C17.5 61.1667 17.5 60.8333 17.5 60.5C19.3079 59.0821 19.9746 57.0821 19.5 54.5Z" fill="#957822"/>
<path fill-rule="evenodd" clip-rule="evenodd" d="M50.5 61.5C51.1098 62.391 51.4431 63.391 51.5 64.5C51.7373 65.791 51.404 66.791 50.5 67.5C49.2616 65.7857 48.595 63.7857 48.5 61.5C48.3433 60.1266 48.51 58.7932 49 57.5C49.21 59.0581 49.71 60.3915 50.5 61.5Z" fill="#885116"/>
<path fill-rule="evenodd" clip-rule="evenodd" d="M82.5 50.5C81.6023 57.6288 78.6023 63.6288 73.5 68.5C72.9569 68.44 72.6236 68.1067 72.5 67.5C73.1925 66.4822 73.8592 65.4822 74.5 64.5C76.1054 61.6223 77.4388 58.6223 78.5 55.5C79.7911 54.4583 79.7911 53.2917 78.5 52C80 51.1667 81.1667 50 82 48.5C82.4643 49.0944 82.631 49.7611 82.5 50.5Z" fill="#BD7F13"/>
<path fill-rule="evenodd" clip-rule="evenodd" d="M78.5 55.5C77.4388 58.6223 76.1054 61.6223 74.5 64.5C72.4057 63.7578 70.239 63.0911 68 62.5C65.5582 62.4823 63.3915 63.149 61.5 64.5C60.8333 64.5 60.5 64.1667 60.5 63.5C63.8397 62.1604 66.173 59.827 67.5 56.5C67.4142 57.4959 67.7476 58.3292 68.5 59C69.8721 59.4017 71.2054 59.9017 72.5 60.5C74.4587 58.7553 75.792 56.5886 76.5 54C77.816 53.4719 78.4827 53.9719 78.5 55.5Z" fill="#E3A82F"/>
<path fill-rule="evenodd" clip-rule="evenodd" d="M58.5 59.5C59.1667 60.8333 59.8333 62.1667 60.5 63.5C60.5 64.1667 60.8333 64.5 61.5 64.5C61.5 64.8333 61.5 65.1667 61.5 65.5C60.5084 65.3284 59.8417 65.6618 59.5 66.5C58.8333 65.8333 58.1667 65.1667 57.5 64.5C57.5 64.1667 57.5 63.8333 57.5 63.5C58.4345 62.4324 58.7678 61.099 58.5 59.5Z" fill="#947021"/>
<path fill-rule="evenodd" clip-rule="evenodd" d="M74.5 64.5C73.8592 65.4822 73.1925 66.4822 72.5 67.5C72.6236 68.1067 72.9569 68.44 73.5 68.5C72.9202 70.7488 71.5869 72.4154 69.5 73.5C69.631 72.7611 69.4643 72.0944 69 71.5C66.2872 73.7195 63.4539 75.7195 60.5 77.5C60.5 76.1667 60.5 74.8333 60.5 73.5C61.1667 73.5 61.5 73.1667 61.5 72.5C64.0531 70.2955 64.0531 67.9621 61.5 65.5C61.5 65.1667 61.5 64.8333 61.5 64.5C63.3915 63.149 65.5582 62.4823 68 62.5C70.239 63.0911 72.4057 63.7578 74.5 64.5Z" fill="#D39620"/>
<path opacity="0.765" fill-rule="evenodd" clip-rule="evenodd" d="M-0.5 43.5C1.32946 54.1533 6.1628 63.4866 14 71.5C14.3903 68.8958 15.2237 66.5625 16.5 64.5C15.8641 67.1062 15.8641 69.6062 16.5 72C19.4816 72.498 22.4816 72.6646 25.5 72.5C23.0314 73.3171 20.3647 73.8171 17.5 74C20.1337 76.4471 22.8004 78.6137 25.5 80.5C12.1873 74.5501 3.5206 64.5501 -0.5 50.5C-0.5 48.1667 -0.5 45.8333 -0.5 43.5Z" fill="#BE8016"/>
<path fill-rule="evenodd" clip-rule="evenodd" d="M27.5 62.5C27.2627 63.791 27.596 64.791 28.5 65.5C28.5 65.8333 28.5 66.1667 28.5 66.5C27.6618 66.8417 27.3284 67.5084 27.5 68.5C26.8333 68.8333 26.1667 69.1667 25.5 69.5C25.3379 67.4727 25.5045 65.4727 26 63.5C26.3826 62.944 26.8826 62.6107 27.5 62.5Z" fill="#9D883E"/>
<path fill-rule="evenodd" clip-rule="evenodd" d="M17.5 61.5C18.8333 61.5 19.5 62.1667 19.5 63.5C19.5 64.8333 19.5 66.1667 19.5 67.5C18.596 68.209 18.2627 69.209 18.5 70.5C21.0593 70.8016 23.3926 70.4682 25.5 69.5C26.1667 69.1667 26.8333 68.8333 27.5 68.5C27.5 68.8333 27.5 69.1667 27.5 69.5C27.573 71.0269 26.9063 72.0269 25.5 72.5C22.4816 72.6646 19.4816 72.498 16.5 72C15.8641 69.6062 15.8641 67.1062 16.5 64.5C16.5569 63.391 16.8902 62.391 17.5 61.5Z" fill="#6F340F"/>
<path fill-rule="evenodd" clip-rule="evenodd" d="M51.5 64.5C52.4511 65.9187 52.7845 67.5853 52.5 69.5C55.1667 69.5 57.8333 69.5 60.5 69.5C57.7131 70.4767 54.7131 70.81 51.5 70.5C51.1667 70.5 50.8333 70.5 50.5 70.5C50.5 69.8333 50.5 69.1667 50.5 68.5C50.5 68.1667 50.5 67.8333 50.5 67.5C51.404 66.791 51.7373 65.791 51.5 64.5Z" fill="#9C8646"/>
<path fill-rule="evenodd" clip-rule="evenodd" d="M19.5 67.5C20.9179 69.3079 22.9179 69.9746 25.5 69.5C23.3926 70.4682 21.0593 70.8016 18.5 70.5C18.2627 69.209 18.596 68.209 19.5 67.5Z" fill="#A98E68"/>
<path fill-rule="evenodd" clip-rule="evenodd" d="M28.5 66.5C35.5735 69.6279 42.9068 70.2946 50.5 68.5C50.5 69.1667 50.5 69.8333 50.5 70.5C48.6208 71.3414 46.6208 71.6747 44.5 71.5C39.7971 71.5628 35.1304 71.2295 30.5 70.5C29.391 70.4431 28.391 70.1098 27.5 69.5C27.5 69.1667 27.5 68.8333 27.5 68.5C27.3284 67.5084 27.6618 66.8417 28.5 66.5Z" fill="#F6EA73"/>
<path fill-rule="evenodd" clip-rule="evenodd" d="M61.5 65.5C64.0531 67.9621 64.0531 70.2955 61.5 72.5C58.8127 72.6641 56.146 72.4974 53.5 72C52.5842 71.7216 51.9175 71.2216 51.5 70.5C54.7131 70.81 57.7131 70.4767 60.5 69.5C60.4431 68.391 60.1098 67.391 59.5 66.5C59.8417 65.6618 60.5084 65.3284 61.5 65.5Z" fill="#6F350E"/>
<path fill-rule="evenodd" clip-rule="evenodd" d="M50.5 70.5C50.8333 70.5 51.1667 70.5 51.5 70.5C51.9175 71.2216 52.5842 71.7216 53.5 72C56.146 72.4974 58.8127 72.6641 61.5 72.5C61.5 73.1667 61.1667 73.5 60.5 73.5C57.4816 73.6646 54.4816 73.498 51.5 73C50.7476 72.3292 50.4142 71.4959 50.5 70.5Z" fill="#B07120"/>
<path fill-rule="evenodd" clip-rule="evenodd" d="M27.5 69.5C28.391 70.1098 29.391 70.4431 30.5 70.5C33.0169 71.973 35.8502 72.6397 39 72.5C41.0326 72.4944 42.866 72.1611 44.5 71.5C46.6208 71.6747 48.6208 71.3414 50.5 70.5C50.4142 71.4959 50.7476 72.3292 51.5 73C54.4816 73.498 57.4816 73.6646 60.5 73.5C60.5 74.8333 60.5 76.1667 60.5 77.5C50.0563 83.0806 39.3896 83.7473 28.5 79.5C27.7025 79.9569 27.3691 80.6236 27.5 81.5C26.5084 81.6716 25.8417 81.3382 25.5 80.5C22.8004 78.6137 20.1337 76.4471 17.5 74C20.3647 73.8171 23.0314 73.3171 25.5 72.5C26.9063 72.0269 27.573 71.0269 27.5 69.5Z" fill="#DB9F25"/>
<path fill-rule="evenodd" clip-rule="evenodd" d="M30.5 70.5C35.1304 71.2295 39.7971 71.5628 44.5 71.5C42.866 72.1611 41.0326 72.4944 39 72.5C35.8502 72.6397 33.0169 71.973 30.5 70.5Z" fill="#EDCD55"/>
<path opacity="0.69" fill-rule="evenodd" clip-rule="evenodd" d="M69.5 73.5C63.8166 78.1739 57.4833 81.5073 50.5 83.5C44.5 83.5 38.5 83.5 32.5 83.5C30.9724 82.6908 29.3057 82.0241 27.5 81.5C27.3691 80.6236 27.7025 79.9569 28.5 79.5C39.3896 83.7473 50.0563 83.0806 60.5 77.5C63.4539 75.7195 66.2872 73.7195 69 71.5C69.4643 72.0944 69.631 72.7611 69.5 73.5Z" fill="#BD7F12"/>
</g>
<defs>
<clipPath id="clip0_2_740">
<rect width="84" height="84" fill="white"/>
</clipPath>
</defs>
</svg>
