<svg width="1025" height="1025" viewBox="0 0 1025 1025" fill="none" xmlns="http://www.w3.org/2000/svg">
<path fill-rule="evenodd" clip-rule="evenodd" d="M512.409 0C795.23 0 1024.82 229.599 1024.82 512.404C1024.82 795.208 795.23 1024.81 512.409 1024.81C229.587 1024.81 0 795.208 0 512.404C0 229.599 229.587 0 512.409 0ZM681.763 541.499C694.747 602.455 748.94 648.226 813.746 648.226C888.262 648.226 948.778 587.738 948.778 513.234C948.778 438.729 888.262 378.241 813.746 378.241C749.843 378.241 696.215 422.787 682.272 482.507H655.852C641.909 422.787 588.336 378.241 524.376 378.241C460.473 378.241 406.845 422.787 392.902 482.507H362.531C348.587 422.787 294.958 378.241 231.055 378.241C156.539 378.241 96.0239 438.729 96.0239 513.234C96.0239 587.738 156.539 648.226 231.055 648.226C295.861 648.226 350.055 602.455 363.039 541.499H392.337C405.378 602.455 459.57 648.226 524.376 648.226C589.183 648.226 643.376 602.455 656.416 541.499H681.763ZM231.055 438.989C272.039 438.989 305.289 472.256 305.289 513.234C305.289 554.212 272.039 587.478 231.055 587.478C190.071 587.478 156.765 554.212 156.765 513.234C156.765 472.256 190.071 438.989 231.055 438.989ZM524.376 438.989C565.36 438.989 598.61 472.256 598.61 513.234C598.61 554.212 565.36 587.478 524.376 587.478C483.393 587.478 450.143 554.212 450.143 513.234C450.143 472.256 483.393 438.989 524.376 438.989ZM813.746 438.989C854.73 438.989 888.037 472.256 888.037 513.234C888.037 554.212 854.73 587.478 813.746 587.478C772.819 587.478 739.513 554.212 739.513 513.234C739.513 472.256 772.819 438.989 813.746 438.989Z" fill="#BA5827"/>
</svg>
