<svg width="83" height="83" viewBox="0 0 83 83" fill="none" xmlns="http://www.w3.org/2000/svg">
<g clip-path="url(#clip0_2_879)">
<path fill-rule="evenodd" clip-rule="evenodd" d="M31.5 -0.5C36.1667 -0.5 40.8333 -0.5 45.5 -0.5C46.6085 0.28997 47.9419 0.78997 49.5 1C49.0426 1.41395 48.7093 1.91395 48.5 2.5C51.6422 4.42918 54.6422 6.59585 57.5 9C56.552 9.48278 55.552 9.64945 54.5 9.5C53.2673 6.42713 51.7673 6.0938 50 8.5C47.476 1.80723 42.6427 -0.359437 35.5 2C15.5187 6.14389 4.51869 18.3106 2.5 38.5C1.56451 45.1071 2.56451 51.6071 5.5 58C5.31658 59.6836 4.64991 59.8502 3.5 58.5C1.97475 55.9209 0.641417 53.2542 -0.5 50.5C-0.5 44.1667 -0.5 37.8333 -0.5 31.5C4.5 15.1667 15.1667 4.5 31.5 -0.5Z" fill="#3F3F3F"/>
<path fill-rule="evenodd" clip-rule="evenodd" d="M45.5 -0.5C47.1667 -0.5 48.8333 -0.5 50.5 -0.5C51.5 0.166667 52.5 0.833333 53.5 1.5C52.448 1.35055 51.448 1.51722 50.5 2C60.8216 4.40308 68.9883 9.90308 75 18.5C75.6877 19.3317 75.521 19.9984 74.5 20.5C72.6675 19.7515 71.0009 18.7515 69.5 17.5C70.5042 15.3227 69.8375 14.9893 67.5 16.5C65.456 15.7608 63.2893 14.4275 61 12.5C60.4926 13.9961 60.9926 15.1627 62.5 16C68.162 19.1646 73.8287 22.3313 79.5 25.5C79.7135 27.1439 79.3802 28.6439 78.5 30C79.8491 30.7724 80.6824 31.9391 81 33.5C81.6667 37.1667 81.6667 40.8333 81 44.5C79.2111 42.771 77.0444 42.1043 74.5 42.5C74.2601 45.5788 74.5934 48.5788 75.5 51.5C74.229 51.1255 73.0623 51.7922 72 53.5C70.9614 52.7562 70.4614 51.7562 70.5 50.5C70.6741 48.139 71.0074 45.8056 71.5 43.5C74.4504 41.089 75.1171 38.089 73.5 34.5C72.3112 33.5713 70.9778 33.238 69.5 33.5C67.0552 24.7228 61.7219 18.3895 53.5 14.5C54.4972 14.5299 55.1639 14.0299 55.5 13C55.0109 11.8615 54.6775 10.6948 54.5 9.5C55.552 9.64945 56.552 9.48278 57.5 9C54.6422 6.59585 51.6422 4.42918 48.5 2.5C48.7093 1.91395 49.0426 1.41395 49.5 1C47.9419 0.78997 46.6085 0.28997 45.5 -0.5Z" fill="#2A2A2A"/>
<path fill-rule="evenodd" clip-rule="evenodd" d="M54.5 9.49999C54.6775 10.6948 55.0109 11.8615 55.5 13C55.1639 14.0299 54.4972 14.5299 53.5 14.5C52.0328 14.1062 50.5328 13.7728 49 13.5C47.6244 13.6842 46.7911 14.3509 46.5 15.5C45.7321 14.7375 45.2321 13.7375 45 12.5C44.79 14.0581 44.29 15.3915 43.5 16.5C43.9717 13.6421 42.9717 11.6421 40.5 10.5C41.675 10.719 42.675 10.3857 43.5 9.49999C43.1667 9.16666 42.8333 8.83332 42.5 8.49999C39.655 8.16722 37.155 7.16722 35 5.49999C34.3333 7.49999 33 8.83332 31 9.49999C30.3923 11.1545 29.8923 12.8211 29.5 14.5C20.4026 19.6018 14.736 27.2685 12.5 37.5C11.1779 37.33 10.0113 37.6634 8.99997 38.5C8.66664 37.8333 8.3333 37.1667 7.99997 36.5C6.99997 40.5 5.99997 40.5 4.99997 36.5C4.69479 38.5568 4.69479 40.5568 4.99997 42.5C3.29421 41.6921 2.46088 40.3588 2.49997 38.5C4.51866 18.3106 15.5187 6.14388 35.5 1.99999C42.6427 -0.35945 47.476 1.80722 50 8.49999C51.7673 6.09379 53.2673 6.42712 54.5 9.49999Z" fill="#262726"/>
<path opacity="0.275" fill-rule="evenodd" clip-rule="evenodd" d="M53.5 1.50001C66.3259 4.99255 74.9926 12.9925 79.5 25.5C73.8287 22.3313 68.162 19.1646 62.5 16C60.9926 15.1627 60.4926 13.9961 61 12.5C63.2893 14.4275 65.456 15.7608 67.5 16.5C69.8375 14.9893 70.5042 15.3227 69.5 17.5C71.0009 18.7515 72.6675 19.7515 74.5 20.5C75.521 19.9984 75.6877 19.3317 75 18.5C68.9883 9.90309 60.8216 4.40309 50.5 2.00001C51.448 1.51723 52.448 1.35056 53.5 1.50001Z" fill="#4B4B4B"/>
<path fill-rule="evenodd" clip-rule="evenodd" d="M40.5 10.5001C42.9717 11.6422 43.9717 13.6422 43.5 16.5001C46.0494 20.5486 48.3827 24.7152 50.5 29.0001C53.2456 30.9246 56.0789 31.7579 59 31.5001C59.1805 33.4885 59.0138 35.4885 58.5 37.5001C62.8526 36.9413 67.186 36.2746 71.5 35.5001C72.3971 40.2718 70.3971 42.6052 65.5 42.5001C63.0642 41.1092 62.3975 41.6092 63.5 44.0001C61.765 44.6515 60.0983 44.4848 58.5 43.5001C56.49 48.0447 54.1567 48.3781 51.5 44.5001C50.3241 48.0025 51.3241 50.8359 54.5 53.0001C56.2672 57.0329 57.6006 61.1996 58.5 65.5001C59.9814 66.4804 61.3147 67.6471 62.5 69.0001C58.5138 69.4989 54.5138 69.6656 50.5 69.5001C49.5961 62.8801 47.9294 56.5468 45.5 50.5001C43.68 48.539 41.68 48.2057 39.5 49.5001C38.3617 52.2676 36.5283 52.9342 34 51.5001C32.7308 52.9048 32.2308 54.5715 32.5 56.5001C31.8333 57.1668 31.1667 57.8334 30.5 58.5001C29.5655 59.5677 29.2322 60.9011 29.5 62.5001C28.661 63.6413 27.9943 64.9746 27.5 66.5001C27.6236 67.1068 27.9569 67.4401 28.5 67.5001C28.5 68.5001 28.5 69.5001 28.5 70.5001C25.5 70.5001 22.5 70.5001 19.5 70.5001C19.9978 67.5132 20.4978 64.5132 21 61.5001C23.5727 57.4142 26.0727 53.2475 28.5 49.0001C25.5491 46.0296 25.8824 43.5296 29.5 41.5001C27.2529 40.7555 25.4196 39.4221 24 37.5001C23.8933 34.8691 23.7266 32.3691 23.5 30.0001C24.1667 24.0001 27.5 20.6668 33.5 20.0001C30.3704 12.5722 32.7038 9.40548 40.5 10.5001Z" fill="#F4F4C3"/>
<path fill-rule="evenodd" clip-rule="evenodd" d="M46.5 15.5C56.9452 17.546 63.9452 23.546 67.5 33.5C65.8561 33.2865 64.3561 33.6198 63 34.5C62.4837 31.9664 61.317 29.7998 59.5 28C58.451 27.5078 57.451 27.6744 56.5 28.5C55.1667 27.8333 53.8333 27.1667 52.5 26.5C50.4371 22.7956 48.4371 19.129 46.5 15.5Z" fill="#393939"/>
<path fill-rule="evenodd" clip-rule="evenodd" d="M53.5 14.5C61.7219 18.3895 67.0552 24.7228 69.5 33.5C68.8333 33.5 68.1667 33.5 67.5 33.5C63.9452 23.546 56.9452 17.546 46.5 15.5C46.7911 14.3509 47.6244 13.6842 49 13.5C50.5328 13.7728 52.0328 14.1062 53.5 14.5Z" fill="#777777"/>
<path fill-rule="evenodd" clip-rule="evenodd" d="M46.5 15.5C48.4371 19.129 50.4371 22.7956 52.5 26.5C53.8333 27.1667 55.1667 27.8333 56.5 28.5C57.451 27.6744 58.451 27.5078 59.5 28C61.317 29.7998 62.4837 31.9664 63 34.5C64.3561 33.6198 65.8561 33.2865 67.5 33.5C68.1667 33.5 68.8333 33.5 69.5 33.5C70.9778 33.238 72.3112 33.5713 73.5 34.5C75.1171 38.089 74.4504 41.089 71.5 43.5C70.209 43.2627 69.209 43.596 68.5 44.5C63.932 45.4085 59.932 47.4085 56.5 50.5C58.1974 54.8497 59.5307 59.183 60.5 63.5C60.5 64.1667 60.8333 64.5 61.5 64.5C65.1312 66.6817 65.7979 69.3483 63.5 72.5C62.8333 72.5 62.1667 72.5 61.5 72.5C56.706 73.0969 52.3727 72.4302 48.5 70.5C48.5 69.8333 48.5 69.1667 48.5 68.5C47.3432 63.8726 46.1765 59.2059 45 54.5C42.224 59.6398 38.0573 61.6398 32.5 60.5C31.8333 62.1667 31.1667 63.8333 30.5 65.5C29.6143 64.675 29.281 63.675 29.5 62.5C29.2322 60.901 29.5655 59.5676 30.5 58.5C33.9783 58.8158 37.3117 58.3158 40.5 57C42.0866 54.5943 43.7533 52.4276 45.5 50.5C47.9294 56.5467 49.5961 62.88 50.5 69.5C54.5138 69.6655 58.5138 69.4988 62.5 69C61.3147 67.647 59.9814 66.4803 58.5 65.5C57.6006 61.1995 56.2672 57.0328 54.5 53C51.3241 50.8358 50.3241 48.0024 51.5 44.5C54.1567 48.378 56.49 48.0446 58.5 43.5C60.0983 44.4847 61.765 44.6514 63.5 44C62.3975 41.6091 63.0642 41.1091 65.5 42.5C70.3971 42.6051 72.3971 40.2717 71.5 35.5C67.186 36.2745 62.8526 36.9412 58.5 37.5C59.0138 35.4884 59.1805 33.4884 59 31.5C56.0789 31.7578 53.2456 30.9245 50.5 29C48.3827 24.7151 46.0494 20.5485 43.5 16.5C44.29 15.3915 44.79 14.0581 45 12.5C45.2321 13.7375 45.7321 14.7375 46.5 15.5Z" fill="#151513"/>
<path fill-rule="evenodd" clip-rule="evenodd" d="M29.5 14.5C30.5735 15.2506 30.7401 16.2506 30 17.5C26.369 18.9732 23.5356 21.3065 21.5 24.5C12.5433 35.266 12.2099 46.266 20.5 57.5C20.1667 58.1667 19.8333 58.8333 19.5 59.5C16.6761 57.2004 14.8428 54.2004 14 50.5C12.8054 46.2486 12.3054 41.9152 12.5 37.5C14.736 27.2685 20.4026 19.6018 29.5 14.5Z" fill="#7F7F7F"/>
<path fill-rule="evenodd" clip-rule="evenodd" d="M29.5 32.5C31.1344 33.2066 32.4677 34.3732 33.5 36C32.2068 36.49 30.8734 36.6567 29.5 36.5C29.5 35.1667 29.5 33.8333 29.5 32.5Z" fill="#211D19"/>
<path fill-rule="evenodd" clip-rule="evenodd" d="M46.5 32.5C49.8337 34.6767 53.5003 36.1767 57.5 37C54.6894 37.911 51.8561 38.7443 49 39.5C45.8502 37.8865 45.0169 35.5532 46.5 32.5Z" fill="#1A1915"/>
<path fill-rule="evenodd" clip-rule="evenodd" d="M40.5 10.5C32.7038 9.40543 30.3704 12.5721 33.5 20C27.5 20.6667 24.1667 24 23.5 30C23.7266 32.369 23.8933 34.869 24 37.5C25.4196 39.422 27.2529 40.7554 29.5 41.5C25.8824 43.5295 25.5491 46.0295 28.5 49C26.0727 53.2474 23.5727 57.4141 21 61.5C20.4978 64.5131 19.9978 67.5131 19.5 70.5C22.5 70.5 25.5 70.5 28.5 70.5C28.5 69.5 28.5 68.5 28.5 67.5C28.8417 66.6618 29.5084 66.3284 30.5 66.5C30.5 67.5 30.5 68.5 30.5 69.5C30.67 70.8221 30.3366 71.9887 29.5 73C25.8484 73.4986 22.1817 73.6653 18.5 73.5C17.8333 73.5 17.5 73.1667 17.5 72.5C16.7446 68.0263 17.4113 63.6929 19.5 59.5C19.8333 58.8333 20.1667 58.1667 20.5 57.5C21.7837 54.4312 23.4504 51.5979 25.5 49C24.2808 46.616 24.2808 44.2826 25.5 42C22.7699 40.1219 21.1032 37.6219 20.5 34.5C21.2096 31.2008 21.5429 27.8674 21.5 24.5C23.5356 21.3065 26.369 18.9732 30 17.5C30.7401 16.2506 30.5735 15.2506 29.5 14.5C29.8923 12.8211 30.3923 11.1545 31 9.5C33 8.83333 34.3333 7.5 35 5.5C37.155 7.16723 39.655 8.16723 42.5 8.5C42.8333 8.83333 43.1667 9.16667 43.5 9.5C42.675 10.3857 41.675 10.719 40.5 10.5Z" fill="#11110F"/>
<path fill-rule="evenodd" clip-rule="evenodd" d="M21.5 24.5C21.5429 27.8674 21.2096 31.2008 20.5 34.5C21.1032 37.6219 22.7699 40.1219 25.5 42C24.2808 44.2826 24.2808 46.616 25.5 49C23.4504 51.5979 21.7837 54.4312 20.5 57.5C12.2099 46.266 12.5433 35.266 21.5 24.5Z" fill="#4A4A4A"/>
<path fill-rule="evenodd" clip-rule="evenodd" d="M79.5 25.5C80.5 27.5 81.5 29.5 82.5 31.5C82.5 37.8333 82.5 44.1667 82.5 50.5C79.7628 59.1288 75.0962 66.6288 68.5 73C67.9056 73.4643 67.2389 73.631 66.5 73.5C65.5041 73.4142 64.6708 73.7476 64 74.5C63.5357 73.9056 63.369 73.2389 63.5 72.5C65.7979 69.3483 65.1312 66.6817 61.5 64.5C65.3535 60.3269 68.3535 55.6602 70.5 50.5C70.4614 51.7562 70.9614 52.7562 72 53.5C73.0623 51.7922 74.229 51.1255 75.5 51.5C74.5934 48.5788 74.2601 45.5788 74.5 42.5C77.0444 42.1043 79.2111 42.771 81 44.5C81.6667 40.8333 81.6667 37.1667 81 33.5C80.6824 31.9391 79.8491 30.7724 78.5 30C79.3802 28.6439 79.7135 27.1439 79.5 25.5Z" fill="#363636"/>
<path fill-rule="evenodd" clip-rule="evenodd" d="M12.5 37.5C12.3054 41.9152 12.8054 46.2486 14 50.5C14.8428 54.2004 16.6761 57.2004 19.5 59.5C17.4113 63.6929 16.7446 68.0263 17.5 72.5C13.5298 69.3613 10.0298 65.6947 7 61.5C6.80503 62.8193 6.97169 64.1526 7.5 65.5C5.41203 63.6644 4.0787 61.3311 3.5 58.5C4.64991 59.8502 5.31659 59.6836 5.50001 58C2.56452 51.6071 1.56451 45.1071 2.5 38.5C2.46091 40.3588 3.29425 41.6921 5.00001 42.5C4.69482 40.5568 4.69482 38.5568 5.00001 36.5C6.00001 40.5 7 40.5 8 36.5C8.33333 37.1667 8.66667 37.8333 9 38.5C10.0113 37.6634 11.1779 37.33 12.5 37.5Z" fill="#2B2B2B"/>
<path fill-rule="evenodd" clip-rule="evenodd" d="M68.5 44.5C68.6602 46.1992 68.4935 47.8659 68 49.5C65.7095 54.4224 63.2095 59.0891 60.5 63.5C59.5307 59.183 58.1974 54.8497 56.5 50.5C59.932 47.4085 63.932 45.4085 68.5 44.5Z" fill="#434343"/>
<path fill-rule="evenodd" clip-rule="evenodd" d="M71.5 43.5C71.0074 45.8056 70.6741 48.139 70.5 50.5C68.3535 55.6602 65.3535 60.3269 61.5 64.5C60.8333 64.5 60.5 64.1667 60.5 63.5C63.2095 59.0891 65.7095 54.4224 68 49.5C68.4935 47.8659 68.6602 46.1992 68.5 44.5C69.209 43.596 70.209 43.2627 71.5 43.5Z" fill="#7B7B7B"/>
<path fill-rule="evenodd" clip-rule="evenodd" d="M39.5 49.5C40.552 49.3505 41.552 49.5172 42.5 50C41.1141 55.2264 37.7808 57.3931 32.5 56.5C32.2308 54.5714 32.7308 52.9047 34 51.5C36.5283 52.9341 38.3617 52.2675 39.5 49.5Z" fill="#141310"/>
<path fill-rule="evenodd" clip-rule="evenodd" d="M39.5 49.5C41.68 48.2056 43.68 48.5389 45.5 50.5C43.7533 52.4276 42.0866 54.5943 40.5 57C37.3117 58.3158 33.9783 58.8158 30.5 58.5C31.1667 57.8333 31.8333 57.1667 32.5 56.5C37.7808 57.3931 41.1141 55.2264 42.5 50C41.552 49.5172 40.552 49.3505 39.5 49.5Z" fill="#C3C5A7"/>
<path fill-rule="evenodd" clip-rule="evenodd" d="M48.5 68.5C42.316 68.9653 36.316 68.2986 30.5 66.5C29.5084 66.3284 28.8417 66.6618 28.5 67.5C27.9569 67.44 27.6236 67.1067 27.5 66.5C27.9943 64.9745 28.661 63.6412 29.5 62.5C29.281 63.675 29.6143 64.675 30.5 65.5C31.1667 63.8333 31.8333 62.1667 32.5 60.5C38.0573 61.6398 42.224 59.6398 45 54.5C46.1765 59.2059 47.3432 63.8726 48.5 68.5Z" fill="#414040"/>
<path fill-rule="evenodd" clip-rule="evenodd" d="M30.5 66.5C36.316 68.2986 42.316 68.9653 48.5 68.5C48.5 69.1667 48.5 69.8333 48.5 70.5C42.4638 70.6401 36.4638 70.3068 30.5 69.5C30.5 68.5 30.5 67.5 30.5 66.5Z" fill="#7E7D7D"/>
<path fill-rule="evenodd" clip-rule="evenodd" d="M30.5 69.5C36.4638 70.3068 42.4638 70.6401 48.5 70.5C52.3727 72.4302 56.706 73.0969 61.5 72.5C61.6107 73.1174 61.944 73.6174 62.5 74C61.2624 73.9227 60.2624 74.0894 59.5 74.5C60.0253 75.1924 60.6919 75.6924 61.5 76C46.5466 83.7963 32.2133 82.963 18.5 73.5C22.1817 73.6653 25.8484 73.4986 29.5 73C30.3366 71.9887 30.67 70.8221 30.5 69.5Z" fill="#2D2D2D"/>
<path fill-rule="evenodd" clip-rule="evenodd" d="M17.5 72.5C17.5 73.1667 17.8333 73.5 18.5 73.5C32.2133 82.963 46.5466 83.7963 61.5 76C60.6919 75.6924 60.0253 75.1924 59.5 74.5C60.2624 74.0894 61.2624 73.9227 62.5 74C61.944 73.6174 61.6107 73.1174 61.5 72.5C62.1667 72.5 62.8333 72.5 63.5 72.5C63.369 73.2389 63.5357 73.9056 64 74.5C64.6708 73.7476 65.5041 73.4142 66.5 73.5C66.0472 74.4584 65.3805 75.2917 64.5 76C59.8627 78.4889 55.196 80.6555 50.5 82.5C44.1667 82.5 37.8333 82.5 31.5 82.5C26.804 80.6555 22.1373 78.4889 17.5 76C13.2877 73.2889 9.95433 69.7889 7.49998 65.5C6.97167 64.1526 6.80501 62.8193 6.99998 61.5C10.0298 65.6947 13.5298 69.3613 17.5 72.5Z" fill="#4F4F4F"/>
</g>
<defs>
<clipPath id="clip0_2_879">
<rect width="83" height="83" fill="white"/>
</clipPath>
</defs>
</svg>
