<svg width="1025" height="1025" viewBox="0 0 1025 1025" fill="none" xmlns="http://www.w3.org/2000/svg">
<path fill-rule="evenodd" clip-rule="evenodd" d="M512.404 0C795.209 0 1024.82 229.604 1024.82 512.404C1024.82 795.209 795.209 1024.81 512.404 1024.81C229.598 1024.81 0 795.209 0 512.404C0 229.604 229.598 0 512.404 0ZM494.061 247.465C494.061 247.465 470.508 233.509 428.797 242.781L448.344 220.959C448.344 220.959 431.817 227.295 427.206 229.665C422.589 232.03 425.62 225.015 431.015 221.458C436.411 217.906 448.529 207.815 448.529 207.815C448.529 207.815 441.537 196.627 432.461 201.473C413.972 211.334 413.166 228.153 413.166 228.153C413.166 228.153 400.639 212.762 405.916 193.176C415.67 156.989 452.955 157.331 452.955 157.331C452.955 157.331 454.697 137.632 479.382 137.055C522.253 136.052 541.262 155.067 541.262 155.067C541.262 155.067 550.675 144.036 562.535 144.916C574.401 145.795 585.573 151.515 597.686 147.543C609.804 143.571 619.497 136.769 619.497 136.769C619.497 136.769 613.306 161.505 597.658 170.211C597.658 170.211 616.012 169.315 633.811 160.715C633.811 160.715 625.245 201.692 582.407 200.728C582.407 200.728 588.598 222.287 597.809 231.878C597.809 231.878 592.005 240.159 584.447 237.722C584.447 237.722 588.744 255.308 600.207 265.18C600.207 265.18 594.727 268.11 588.447 265.163C588.447 265.163 591.181 278.822 599.512 286.52C599.512 286.52 592.722 293.069 585.545 289.355C585.545 289.355 588.257 313.693 586.85 320.886L578.906 318.83C578.906 318.83 578.665 344.237 566.496 358.496L560.042 354.266C560.042 354.266 559.403 366.687 556.58 373.505L547.633 371.091C547.633 371.091 541.795 385.102 546.338 394.442C546.338 394.442 553.913 392.924 559.846 396.582C565.779 400.241 571.421 410.465 571.421 410.465C571.421 410.465 580.391 383.926 582.284 375.085C584.178 366.244 585.96 361.863 585.96 361.863C585.96 361.863 601.098 365.342 608.796 384.15C608.796 384.15 616.707 358.933 609.227 327.396C609.227 327.396 634.545 321.026 648.507 351.907C648.507 351.907 654.109 281.562 657.403 254.266C660.692 226.976 672.474 191.473 672.474 191.473C672.474 191.473 692.117 210.74 692.481 256.176C692.845 301.613 688.985 338.876 688.985 338.876C688.985 338.876 742.489 275.012 745.845 228.466C749.201 181.92 747.201 141.089 747.201 141.089C747.201 141.089 788.682 160.58 787.741 202.28C786.396 261.852 755.011 322.785 755.011 322.785C755.011 322.785 798.369 275.293 815.916 266.194C833.458 257.095 845.548 262.014 845.548 262.014C845.548 262.014 840.439 282.542 827.878 297.058C815.322 311.569 775.455 363.706 775.455 363.706C775.455 363.706 809.126 343.98 829.844 340.573C847.039 337.75 853.05 353.174 853.05 353.174C853.05 353.174 823.62 381.186 801.193 397.092C778.766 412.992 737.413 438.153 737.413 438.153C737.413 438.153 788.693 424.78 816.079 434.752C843.47 444.725 844.467 467.057 844.467 467.057C844.467 467.057 810.034 461.824 770.956 467.124C731.878 472.424 695.176 480.116 695.176 480.116C695.176 480.116 678.334 505.905 626.085 503.434L626.701 512.404C626.701 512.404 595.674 517.67 564.86 496.027C564.86 496.027 577.332 528.797 616.583 545.487C655.835 562.177 685.618 584.245 695.338 623.872C705.053 663.504 711.787 707.395 747.318 724.482C779.348 739.889 787.92 731.379 788.929 727.379C789.943 723.379 785.494 718.04 780.239 721.446C774.984 724.852 769.297 726.992 769.297 726.992C769.297 726.992 766.244 715.093 773.964 709.412C785.315 701.058 802.549 708.106 802.549 708.106C802.549 708.106 798.397 692.834 784.43 685.276C770.468 677.718 747.935 665.045 731.777 631.368C724.74 616.701 737.133 582.245 721.995 571.27C704.179 558.35 686.912 555.067 686.912 555.067C686.912 555.067 728.023 525.827 751.84 561.42C751.84 561.42 775.326 543.772 781.36 527.368C787.394 510.958 794.862 484.48 815.72 487.511C836.573 490.537 844.203 517.558 838.287 529.676C832.365 541.789 818.695 552.809 825.457 565.174C832.214 577.544 852.148 566.031 835.357 558.076C835.357 558.076 848.781 542.596 858.697 561.224C866.799 576.429 839.453 594.672 828.819 592.492C818.18 590.313 804.487 582.671 803.064 564.732C801.635 546.792 814.331 530.422 816.605 521.967C818.874 513.507 812.729 504.751 809.782 515.636C806.835 526.522 800.347 548.154 790.094 559.011C779.847 569.863 774.463 578.318 774.463 578.318C774.463 578.318 808.202 573.953 810.028 600.33C810.028 600.33 784.497 583.584 772.457 600.75C772.457 600.75 813.149 594.795 809.832 618.622C809.832 618.622 788.626 605.21 778.726 621.743C778.726 621.743 820.505 618.404 811.793 645.918C811.793 645.918 796.772 636.175 790.357 642.736C783.948 649.302 786.234 660.524 797.086 667.717C807.944 674.911 836.55 705.871 823.356 734.651C810.157 763.426 766.093 766.743 737.593 752.243C709.087 737.738 684.262 692.021 677.152 658.126C665.611 603.092 647.901 594.117 647.901 594.117C647.901 594.117 650.182 638.142 640.954 661.493C631.727 684.839 608.857 708.56 608.857 708.56C608.857 708.56 620.09 720.936 628.674 717.221C637.257 713.507 649.084 702.694 662.339 708.246C675.589 713.798 675.993 733.396 680.503 740.965C685.007 748.534 701.159 743.912 701.159 743.912C701.159 743.912 698.98 771.197 667.331 764.647C667.331 764.647 666.261 779.191 679.012 777.768C691.758 776.345 700.969 769.813 700.969 769.813C700.969 769.813 693.68 794.469 676.351 800.778C659.028 807.092 651.851 791.842 651.851 791.842L645.044 853.661C645.044 853.661 673.539 862.064 671.46 879.628C666.558 920.97 648.131 918.532 648.131 918.532L649.56 895.209C649.56 895.209 638.478 903.075 631.559 890.514C631.559 890.514 609.72 904.184 602.285 914.661C594.856 925.138 578.699 938.153 562.166 922.65C562.166 922.65 546.473 920.835 536.22 939.766C536.22 939.766 524.001 914.885 554.322 905.137C554.322 905.137 536.741 882.138 519.368 905.697C519.368 905.697 514.073 872.732 544.652 873.796C544.652 873.796 538.887 864.12 540.237 853.487C540.237 853.487 527.15 851.352 519.205 867.762C519.205 867.762 507.221 836.573 550.148 832.455C578.844 829.699 587.355 856.764 587.355 856.764C587.355 856.764 603.434 854.411 601.283 839.402C597.372 812.101 596.414 785.354 596.414 785.354C596.414 785.354 578.021 773.734 566.748 770.401C566.748 770.401 569.734 787.444 551.666 793.752C533.604 800.067 519.25 794.554 519.25 794.554C519.25 794.554 541.005 779.023 540.478 773.247C539.957 767.471 522.864 748.775 523.732 732.119C524.601 715.463 534.355 679.909 534.355 679.909C534.355 679.909 493.338 671.931 472.525 669.068C454.036 666.524 452.546 673.259 453.549 681.814C454.557 690.374 481.102 694.789 482.99 711.703C484.878 728.612 467.656 742.618 467.656 742.618C467.656 742.618 464.872 752.921 482.794 765.65C482.794 765.65 450.081 776.558 436.299 746.159C436.299 746.159 429.766 765.745 454.126 774.205C454.126 774.205 422.46 799.501 410.051 768.009C410.051 768.009 384.352 794.626 355.527 806.61C355.527 806.61 363.124 827.76 360.401 836.595C357.678 845.43 348.288 845.1 348.288 845.1C348.288 845.1 346.535 865.476 328.562 868.754C328.562 868.754 331.324 855.991 332.075 843.436C332.075 843.436 311.138 844.315 313.911 820.633C313.911 820.633 282.24 821.356 259.034 814.409C235.828 807.456 246.456 790.8 246.456 790.8C246.456 790.8 235.43 783.808 221.968 796.43C221.968 796.43 221.362 767.034 254.507 777.483C254.507 777.483 263.09 746.428 228.724 755.515C228.724 755.515 244.305 726.78 267.281 746.232C267.281 746.232 277.13 733.956 282.43 731.267C282.43 731.267 277.388 722.88 256.507 725.771C256.507 725.771 275.797 693.612 300.667 723.272C300.667 723.272 315.306 725.497 316.533 743.038C317.754 760.585 319.267 773.835 319.267 773.835C319.267 773.835 336.753 778.514 341.997 760.765C347.241 743.016 367.006 713.602 385.338 701.176C385.338 701.176 353.269 682.8 356.602 656.624C356.602 656.624 322.707 667.594 324.163 626.517C324.163 626.517 333.486 634.478 347.117 635.99C347.117 635.99 353.633 604.028 376.508 597.456C399.383 590.884 420.303 596.319 435.318 601.619C450.339 606.919 498.829 597.198 498.829 597.198C498.829 597.198 397.803 581.024 373.987 536.142C373.987 536.142 363.477 543.251 362.911 552.568C362.911 552.568 345.218 541.806 346.983 523.429C346.983 523.429 325.587 524.035 318.897 528.578C318.897 528.578 315.715 519.345 317.48 512.404C317.48 512.404 306.902 515.804 305.866 505.938L261.729 509.95C261.729 509.95 272.127 553.162 257.398 554.776C257.398 554.776 242.501 587.069 215.496 565.376C215.496 565.376 241.991 563.264 240.999 549.224C240.999 549.224 226.321 547.728 235.122 523.895C235.122 523.895 212.701 518.241 218.987 499.663C218.987 499.663 209.866 496.464 208.353 490.543C208.353 490.543 185.383 494.582 188.912 474.85C188.912 474.85 187.321 465.975 161.185 469.129C161.185 469.129 162.552 451.728 197.753 456.182C197.753 456.182 206.667 452.316 214.746 472.004C214.746 472.004 217.754 457.947 212.241 451C206.734 444.053 201.524 437.789 207.328 432.383C207.328 432.383 195.658 419.771 180.268 425.217C180.268 425.217 187.955 399.658 218.141 418.751C218.141 418.751 226.634 416.382 232.433 432.792C238.232 449.201 239.722 463.588 239.722 463.588C239.722 463.588 254.927 464.244 248.26 450.154C242.938 438.898 230.915 427.435 246.165 416.645C246.165 416.645 247.532 402.863 229.458 389.685C229.458 389.685 252.647 381.892 264.995 410.796C264.995 410.796 277.707 413.888 276.553 435.469C275.399 457.05 266.547 478.256 266.547 478.256L295.484 473.001C295.484 473.001 293.002 463.807 296.717 460.871C300.437 457.936 311.793 456.905 311.793 456.905C311.793 456.905 299.406 446.596 298.095 426.477C298.095 426.477 311.188 436.091 325.575 437.856C325.575 437.856 325.693 393.131 332.254 367.505C332.254 367.505 308.801 344.708 294.576 340.349C294.576 340.349 307.406 332.388 323.183 336.557C323.183 336.557 308.745 328.892 307.72 306.364C307.72 306.364 312.101 306.88 319.928 305.076L296.157 268.598C296.157 268.598 300.835 319.457 274.609 309.233C274.609 309.233 245.84 330.371 232.209 296.476C232.209 296.476 243.235 305.26 258.888 301.227C258.888 301.227 257.381 281.287 273.539 280.867C273.539 280.867 277.304 265.32 272.564 258.277C267.819 251.229 266.009 244.815 267.399 240.714C267.399 240.714 251.622 230.186 239.453 225.833C227.279 221.475 220.931 209.205 227.604 200.487C227.604 200.487 224.102 190.184 202.443 192.784C202.443 192.784 213.435 168.48 238.036 187.142C238.036 187.142 244.747 186.19 254.507 195.781C264.272 205.373 269.516 216.107 269.516 216.107C269.516 216.107 275.915 206.235 269.892 199.826C263.875 193.422 256.44 187.529 265.903 179.455C265.903 179.455 266.581 164.916 243.565 161.387C243.565 161.387 256.35 144.143 278.816 165.096C278.816 165.096 295.255 173.023 297.266 201.171C297.266 201.171 304.616 200.582 303.451 190.464C302.286 180.34 303.429 178.049 312.499 178.128C312.499 178.128 316.365 164.681 297.91 153.499C297.91 153.499 326.696 142.148 333.234 183.545C333.234 183.545 339.52 191.921 330.808 204.919C322.096 217.917 305.412 234.842 305.412 234.842L347.644 282.833C347.644 282.833 354.58 273.993 355.084 267.326C355.084 267.326 363.342 275.657 363.028 291.938C363.028 291.938 370.032 280.957 382.279 280.043C382.279 280.043 379.214 306.062 391.96 316.92C391.96 316.92 434.052 311.513 461.723 292.151C489.394 272.788 494.061 247.465 494.061 247.465Z" fill="#212121"/>
</svg>
